%TF.GenerationSoftware,KiCad,Pcbnew,7.0.8*%
%TF.CreationDate,2023-10-25T20:50:04+02:00*%
%TF.ProjectId,SCART_syncSplitter,53434152-545f-4737-996e-6353706c6974,rev?*%
%TF.SameCoordinates,Original*%
%TF.FileFunction,Copper,L1,Top*%
%TF.FilePolarity,Positive*%
%FSLAX46Y46*%
G04 Gerber Fmt 4.6, Leading zero omitted, Abs format (unit mm)*
G04 Created by KiCad (PCBNEW 7.0.8) date 2023-10-25 20:50:04*
%MOMM*%
%LPD*%
G01*
G04 APERTURE LIST*
G04 Aperture macros list*
%AMRoundRect*
0 Rectangle with rounded corners*
0 $1 Rounding radius*
0 $2 $3 $4 $5 $6 $7 $8 $9 X,Y pos of 4 corners*
0 Add a 4 corners polygon primitive as box body*
4,1,4,$2,$3,$4,$5,$6,$7,$8,$9,$2,$3,0*
0 Add four circle primitives for the rounded corners*
1,1,$1+$1,$2,$3*
1,1,$1+$1,$4,$5*
1,1,$1+$1,$6,$7*
1,1,$1+$1,$8,$9*
0 Add four rect primitives between the rounded corners*
20,1,$1+$1,$2,$3,$4,$5,0*
20,1,$1+$1,$4,$5,$6,$7,0*
20,1,$1+$1,$6,$7,$8,$9,0*
20,1,$1+$1,$8,$9,$2,$3,0*%
G04 Aperture macros list end*
%TA.AperFunction,ComponentPad*%
%ADD10R,2.200000X2.200000*%
%TD*%
%TA.AperFunction,ComponentPad*%
%ADD11O,2.200000X2.200000*%
%TD*%
%TA.AperFunction,SMDPad,CuDef*%
%ADD12RoundRect,0.250000X-0.400000X-0.625000X0.400000X-0.625000X0.400000X0.625000X-0.400000X0.625000X0*%
%TD*%
%TA.AperFunction,SMDPad,CuDef*%
%ADD13RoundRect,0.250000X0.400000X0.625000X-0.400000X0.625000X-0.400000X-0.625000X0.400000X-0.625000X0*%
%TD*%
%TA.AperFunction,ComponentPad*%
%ADD14O,4.000000X2.200000*%
%TD*%
%TA.AperFunction,ComponentPad*%
%ADD15O,2.200000X4.000000*%
%TD*%
%TA.AperFunction,ComponentPad*%
%ADD16R,4.000000X2.200000*%
%TD*%
%TA.AperFunction,ComponentPad*%
%ADD17R,3.500000X3.500000*%
%TD*%
%TA.AperFunction,ComponentPad*%
%ADD18RoundRect,0.750000X-0.750000X-1.000000X0.750000X-1.000000X0.750000X1.000000X-0.750000X1.000000X0*%
%TD*%
%TA.AperFunction,ComponentPad*%
%ADD19RoundRect,0.875000X-0.875000X-0.875000X0.875000X-0.875000X0.875000X0.875000X-0.875000X0.875000X0*%
%TD*%
%TA.AperFunction,ComponentPad*%
%ADD20R,1.600000X1.600000*%
%TD*%
%TA.AperFunction,ComponentPad*%
%ADD21C,1.600000*%
%TD*%
%TA.AperFunction,SMDPad,CuDef*%
%ADD22RoundRect,0.100000X-0.637500X-0.100000X0.637500X-0.100000X0.637500X0.100000X-0.637500X0.100000X0*%
%TD*%
%TA.AperFunction,SMDPad,CuDef*%
%ADD23RoundRect,0.250000X0.650000X-0.412500X0.650000X0.412500X-0.650000X0.412500X-0.650000X-0.412500X0*%
%TD*%
%TA.AperFunction,SMDPad,CuDef*%
%ADD24RoundRect,0.250000X-0.412500X-0.650000X0.412500X-0.650000X0.412500X0.650000X-0.412500X0.650000X0*%
%TD*%
%TA.AperFunction,SMDPad,CuDef*%
%ADD25RoundRect,0.250000X-0.650000X0.412500X-0.650000X-0.412500X0.650000X-0.412500X0.650000X0.412500X0*%
%TD*%
%TA.AperFunction,SMDPad,CuDef*%
%ADD26RoundRect,0.250001X-0.462499X-0.624999X0.462499X-0.624999X0.462499X0.624999X-0.462499X0.624999X0*%
%TD*%
%TA.AperFunction,ComponentPad*%
%ADD27O,2.000000X4.000000*%
%TD*%
%TA.AperFunction,ComponentPad*%
%ADD28C,4.000000*%
%TD*%
%TA.AperFunction,ComponentPad*%
%ADD29R,1.700000X1.700000*%
%TD*%
%TA.AperFunction,ComponentPad*%
%ADD30O,1.700000X1.700000*%
%TD*%
%TA.AperFunction,SMDPad,CuDef*%
%ADD31RoundRect,0.250000X0.300000X-2.050000X0.300000X2.050000X-0.300000X2.050000X-0.300000X-2.050000X0*%
%TD*%
%TA.AperFunction,SMDPad,CuDef*%
%ADD32RoundRect,0.250000X2.375000X-2.025000X2.375000X2.025000X-2.375000X2.025000X-2.375000X-2.025000X0*%
%TD*%
%TA.AperFunction,SMDPad,CuDef*%
%ADD33RoundRect,0.250002X5.149998X-4.449998X5.149998X4.449998X-5.149998X4.449998X-5.149998X-4.449998X0*%
%TD*%
%TA.AperFunction,ViaPad*%
%ADD34C,0.800000*%
%TD*%
%TA.AperFunction,ViaPad*%
%ADD35C,1.000000*%
%TD*%
%TA.AperFunction,Conductor*%
%ADD36C,0.250000*%
%TD*%
%TA.AperFunction,Conductor*%
%ADD37C,0.400000*%
%TD*%
G04 APERTURE END LIST*
D10*
%TO.P,D1,1,K*%
%TO.N,Net-(D1-K)*%
X51835000Y-56920000D03*
D11*
%TO.P,D1,2,A*%
%TO.N,Net-(D1-A)*%
X61995000Y-56920000D03*
%TD*%
D12*
%TO.P,R4,1*%
%TO.N,Net-(U1-CSync)*%
X98780000Y-59690000D03*
%TO.P,R4,2*%
%TO.N,/CSync_OUT*%
X101880000Y-59690000D03*
%TD*%
D13*
%TO.P,R2,1*%
%TO.N,/COMPOSITE_IN*%
X103150000Y-35560000D03*
%TO.P,R2,2*%
%TO.N,Net-(C1-Pad1)*%
X100050000Y-35560000D03*
%TD*%
%TO.P,R8,1*%
%TO.N,Net-(U1-HSync)*%
X84392500Y-50800000D03*
%TO.P,R8,2*%
%TO.N,/HSync_OUT*%
X81292500Y-50800000D03*
%TD*%
D14*
%TO.P,J5,R*%
%TO.N,/AUDIO_R*%
X55700000Y-22860000D03*
D15*
%TO.P,J5,S*%
%TO.N,GND*%
X51390000Y-28060000D03*
D16*
%TO.P,J5,T*%
%TO.N,/AUDIO_L*%
X55700000Y-32660000D03*
%TD*%
D17*
%TO.P,J3,1*%
%TO.N,Net-(D1-A)*%
X59105000Y-44450000D03*
D18*
%TO.P,J3,2*%
%TO.N,GND*%
X53105000Y-44450000D03*
D19*
%TO.P,J3,3*%
%TO.N,N/C*%
X56105000Y-49150000D03*
%TD*%
D20*
%TO.P,C9,1*%
%TO.N,Net-(D1-K)*%
X54375000Y-64500000D03*
D21*
%TO.P,C9,2*%
%TO.N,GND*%
X54375000Y-62000000D03*
%TD*%
D22*
%TO.P,U1,1,Rext*%
%TO.N,Net-(U1-Rext)*%
X88900000Y-45010000D03*
%TO.P,U1,2,GND*%
%TO.N,GND*%
X88900000Y-45660000D03*
%TO.P,U1,3,Vcc1*%
%TO.N,VCC*%
X88900000Y-46310000D03*
%TO.P,U1,4,Vin*%
%TO.N,/FILT_COMPOSITE*%
X88900000Y-46960000D03*
%TO.P,U1,5,GND*%
%TO.N,GND*%
X88900000Y-47610000D03*
%TO.P,U1,6,Vcc2*%
%TO.N,VCC*%
X88900000Y-48260000D03*
%TO.P,U1,7,HSync*%
%TO.N,Net-(U1-HSync)*%
X88900000Y-48910000D03*
%TO.P,U1,8,VSync*%
%TO.N,Net-(U1-VSync)*%
X94625000Y-48910000D03*
%TO.P,U1,9,VF*%
%TO.N,Net-(U1-VF)*%
X94625000Y-48260000D03*
%TO.P,U1,10,GND*%
%TO.N,GND*%
X94625000Y-47610000D03*
%TO.P,U1,11,Vcc3*%
%TO.N,VCC*%
X94625000Y-46960000D03*
%TO.P,U1,12,CSync*%
%TO.N,Net-(U1-CSync)*%
X94625000Y-46310000D03*
%TO.P,U1,13,BP*%
%TO.N,Net-(U1-BP)*%
X94625000Y-45660000D03*
%TO.P,U1,14,OE*%
%TO.N,Net-(U1-OE)*%
X94625000Y-45010000D03*
%TD*%
D13*
%TO.P,R9,1*%
%TO.N,GND*%
X84392500Y-54610000D03*
%TO.P,R9,2*%
%TO.N,/HSync_OUT*%
X81292500Y-54610000D03*
%TD*%
D23*
%TO.P,C7,1*%
%TO.N,Net-(D1-K)*%
X60725000Y-64832500D03*
%TO.P,C7,2*%
%TO.N,GND*%
X60725000Y-61707500D03*
%TD*%
D24*
%TO.P,C3,1*%
%TO.N,VCC*%
X81280000Y-46990000D03*
%TO.P,C3,2*%
%TO.N,GND*%
X84405000Y-46990000D03*
%TD*%
D25*
%TO.P,C6,1*%
%TO.N,VCC*%
X74695000Y-61937500D03*
%TO.P,C6,2*%
%TO.N,GND*%
X74695000Y-65062500D03*
%TD*%
D12*
%TO.P,R7,1*%
%TO.N,GND*%
X98780000Y-55880000D03*
%TO.P,R7,2*%
%TO.N,/VSync_OUT*%
X101880000Y-55880000D03*
%TD*%
D20*
%TO.P,C8,1*%
%TO.N,VCC*%
X68345000Y-62270000D03*
D21*
%TO.P,C8,2*%
%TO.N,GND*%
X68345000Y-64770000D03*
%TD*%
D26*
%TO.P,D2,1,K*%
%TO.N,Net-(D2-K)*%
X90232500Y-63500000D03*
%TO.P,D2,2,A*%
%TO.N,VCC*%
X93207500Y-63500000D03*
%TD*%
D27*
%TO.P,J1,1,P1*%
%TO.N,unconnected-(J1-P1-Pad1)*%
X75565000Y-30480000D03*
%TO.P,J1,2,P2*%
%TO.N,/AUDIO_R*%
X77470000Y-25400000D03*
%TO.P,J1,3,P3*%
%TO.N,unconnected-(J1-P3-Pad3)*%
X79375000Y-30480000D03*
%TO.P,J1,4,P4*%
%TO.N,GND*%
X81280000Y-25400000D03*
%TO.P,J1,5,P5*%
X83185000Y-30480000D03*
%TO.P,J1,6,P6*%
%TO.N,/AUDIO_L*%
X85090000Y-25400000D03*
%TO.P,J1,7,P7*%
%TO.N,/S_BLUE*%
X86995000Y-30480000D03*
%TO.P,J1,8,P8*%
%TO.N,unconnected-(J1-P8-Pad8)*%
X88900000Y-25400000D03*
%TO.P,J1,9,P9*%
%TO.N,GND*%
X90805000Y-30480000D03*
%TO.P,J1,10,P10*%
%TO.N,unconnected-(J1-P10-Pad10)*%
X92710000Y-25400000D03*
%TO.P,J1,11,P11*%
%TO.N,/S_GREEN*%
X94615000Y-30480000D03*
%TO.P,J1,12,P12*%
%TO.N,unconnected-(J1-P12-Pad12)*%
X96520000Y-25400000D03*
%TO.P,J1,13,P13*%
%TO.N,GND*%
X98425000Y-30480000D03*
%TO.P,J1,14,P14*%
X100330000Y-25400000D03*
%TO.P,J1,15,P15*%
%TO.N,/S_RED*%
X102235000Y-30480000D03*
%TO.P,J1,16,P16*%
%TO.N,unconnected-(J1-P16-Pad16)*%
X104140000Y-25400000D03*
%TO.P,J1,17,P17*%
%TO.N,GND*%
X106045000Y-30480000D03*
%TO.P,J1,18,P18*%
X107950000Y-25400000D03*
%TO.P,J1,19,P19*%
%TO.N,unconnected-(J1-P19-Pad19)*%
X109855000Y-30480000D03*
%TO.P,J1,20,P20*%
%TO.N,/COMPOSITE_IN*%
X111760000Y-25400000D03*
%TO.P,J1,21,P21*%
%TO.N,GND*%
X113665000Y-30480000D03*
%TD*%
D12*
%TO.P,R5,1*%
%TO.N,GND*%
X98780000Y-63500000D03*
%TO.P,R5,2*%
%TO.N,/CSync_OUT*%
X101880000Y-63500000D03*
%TD*%
D28*
%TO.P,J2,0*%
%TO.N,GND*%
X120010000Y-63805000D03*
X120010000Y-38805000D03*
D20*
%TO.P,J2,1*%
%TO.N,/S_RED*%
X117960000Y-46990000D03*
D21*
%TO.P,J2,2*%
%TO.N,/S_GREEN*%
X117960000Y-49280000D03*
%TO.P,J2,3*%
%TO.N,/S_BLUE*%
X117960000Y-51570000D03*
%TO.P,J2,4*%
%TO.N,unconnected-(J2-Pad4)*%
X117960000Y-53860000D03*
%TO.P,J2,5*%
%TO.N,GND*%
X117960000Y-56150000D03*
%TO.P,J2,6*%
X119940000Y-45845000D03*
%TO.P,J2,7*%
X119940000Y-48135000D03*
%TO.P,J2,8*%
X119940000Y-50425000D03*
%TO.P,J2,9*%
%TO.N,Net-(JP2-B)*%
X119940000Y-52715000D03*
%TO.P,J2,10*%
%TO.N,GND*%
X119940000Y-55005000D03*
%TO.P,J2,11*%
%TO.N,unconnected-(J2-Pad11)*%
X121920000Y-46990000D03*
%TO.P,J2,12*%
%TO.N,unconnected-(J2-Pad12)*%
X121920000Y-49280000D03*
%TO.P,J2,13*%
%TO.N,Net-(JP1-A)*%
X121920000Y-51570000D03*
%TO.P,J2,14*%
%TO.N,Net-(J4-Pin_1)*%
X121920000Y-53860000D03*
%TO.P,J2,15*%
%TO.N,unconnected-(J2-Pad15)*%
X121920000Y-56150000D03*
%TD*%
D25*
%TO.P,C2,1*%
%TO.N,Net-(C1-Pad1)*%
X88900000Y-35560000D03*
%TO.P,C2,2*%
%TO.N,/FILT_COMPOSITE*%
X88900000Y-38685000D03*
%TD*%
D12*
%TO.P,R3,1*%
%TO.N,GND*%
X81292500Y-43180000D03*
%TO.P,R3,2*%
%TO.N,Net-(U1-Rext)*%
X84392500Y-43180000D03*
%TD*%
D20*
%TO.P,C5,1*%
%TO.N,VCC*%
X107950000Y-41910000D03*
D21*
%TO.P,C5,2*%
%TO.N,GND*%
X107950000Y-44410000D03*
%TD*%
D12*
%TO.P,R10,1*%
%TO.N,GND*%
X82550000Y-63500000D03*
%TO.P,R10,2*%
%TO.N,Net-(D2-K)*%
X85650000Y-63500000D03*
%TD*%
D29*
%TO.P,JP1,1,A*%
%TO.N,Net-(JP1-A)*%
X110490000Y-54610000D03*
D30*
%TO.P,JP1,2,B*%
%TO.N,/VSync_OUT*%
X107950000Y-54610000D03*
%TD*%
D31*
%TO.P,U2,1,IN*%
%TO.N,Net-(D1-K)*%
X68580000Y-54755000D03*
%TO.P,U2,2,GND*%
%TO.N,GND*%
X71120000Y-54755000D03*
D32*
X68345000Y-48030000D03*
X73895000Y-48030000D03*
D33*
X71120000Y-45605000D03*
D32*
X68345000Y-43180000D03*
X73895000Y-43180000D03*
D31*
%TO.P,U2,3,OUT*%
%TO.N,VCC*%
X73660000Y-54755000D03*
%TD*%
D12*
%TO.P,R1,1*%
%TO.N,/COMPOSITE_IN*%
X107670000Y-35560000D03*
%TO.P,R1,2*%
%TO.N,GND*%
X110770000Y-35560000D03*
%TD*%
%TO.P,R6,1*%
%TO.N,Net-(U1-VSync)*%
X98780000Y-52070000D03*
%TO.P,R6,2*%
%TO.N,/VSync_OUT*%
X101880000Y-52070000D03*
%TD*%
D25*
%TO.P,C1,1*%
%TO.N,Net-(C1-Pad1)*%
X93980000Y-35560000D03*
%TO.P,C1,2*%
%TO.N,GND*%
X93980000Y-38685000D03*
%TD*%
D23*
%TO.P,C4,1*%
%TO.N,GND*%
X101600000Y-44742500D03*
%TO.P,C4,2*%
%TO.N,VCC*%
X101600000Y-41617500D03*
%TD*%
D29*
%TO.P,J4,1,Pin_1*%
%TO.N,Net-(J4-Pin_1)*%
X110490000Y-59690000D03*
D30*
%TO.P,J4,2,Pin_2*%
X110490000Y-62230000D03*
%TO.P,J4,3,Pin_3*%
%TO.N,/CSync_OUT*%
X107950000Y-59690000D03*
%TO.P,J4,4,Pin_4*%
%TO.N,/HSync_OUT*%
X107950000Y-62230000D03*
%TD*%
D34*
%TO.N,GND*%
X74930000Y-48260000D03*
X81280000Y-43180000D03*
X74930000Y-41910000D03*
X67310000Y-48260000D03*
X67310000Y-41910000D03*
D35*
X119380000Y-58420000D03*
D34*
X99060000Y-55880000D03*
D35*
X85090000Y-54610000D03*
D34*
X93980000Y-38100000D03*
X99060000Y-63500000D03*
D35*
X84405000Y-46990000D03*
X99060000Y-44450000D03*
X91440000Y-46990000D03*
X110770000Y-35560000D03*
D34*
%TO.N,/FILT_COMPOSITE*%
X88900000Y-38685000D03*
X86360000Y-46990000D03*
%TO.N,VCC*%
X73660000Y-55880000D03*
D35*
X96520000Y-50800000D03*
D34*
%TO.N,Net-(D1-K)*%
X60960000Y-64770000D03*
X68580000Y-54610000D03*
%TO.N,Net-(U1-OE)*%
X96520000Y-44450000D03*
%TO.N,Net-(U1-BP)*%
X96520000Y-45720000D03*
%TO.N,Net-(U1-VF)*%
X96520000Y-48260000D03*
%TD*%
D36*
%TO.N,Net-(C1-Pad1)*%
X93980000Y-35560000D02*
X100050000Y-35560000D01*
X88900000Y-35560000D02*
X93980000Y-35560000D01*
D37*
%TO.N,GND*%
X71120000Y-54755000D02*
X71120000Y-57055000D01*
X91440000Y-46990000D02*
X91440000Y-52070000D01*
X107950000Y-44410000D02*
X101932500Y-44410000D01*
X101600000Y-21590000D02*
X100330000Y-22860000D01*
X90110000Y-45660000D02*
X91440000Y-46990000D01*
X54667500Y-61707500D02*
X54375000Y-62000000D01*
X112361440Y-22951283D02*
X110398717Y-22951283D01*
X92060000Y-47610000D02*
X94625000Y-47610000D01*
X91440000Y-41225000D02*
X91440000Y-46990000D01*
X113665000Y-30480000D02*
X113665000Y-24254843D01*
X107950000Y-28575000D02*
X106045000Y-30480000D01*
X71120000Y-57055000D02*
X68485000Y-59690000D01*
X74402500Y-64770000D02*
X74695000Y-65062500D01*
X66040000Y-59690000D02*
X62742500Y-59690000D01*
X113665000Y-30480000D02*
X113665000Y-32665000D01*
X68485000Y-59690000D02*
X66040000Y-59690000D01*
X60725000Y-61707500D02*
X54667500Y-61707500D01*
X67310000Y-64770000D02*
X66040000Y-63500000D01*
X51390000Y-42735000D02*
X53105000Y-44450000D01*
X74695000Y-65062500D02*
X80987500Y-65062500D01*
X84392500Y-54610000D02*
X85090000Y-54610000D01*
X106680000Y-21590000D02*
X101600000Y-21590000D01*
X80987500Y-65062500D02*
X82550000Y-63500000D01*
X100330000Y-28575000D02*
X98425000Y-30480000D01*
X68345000Y-64770000D02*
X67310000Y-64770000D01*
X100330000Y-22860000D02*
X100330000Y-25400000D01*
X83185000Y-27305000D02*
X81280000Y-25400000D01*
X99060000Y-44450000D02*
X101307500Y-44450000D01*
X113665000Y-32665000D02*
X110770000Y-35560000D01*
X88900000Y-47610000D02*
X90820000Y-47610000D01*
X101932500Y-44410000D02*
X101600000Y-44742500D01*
X110398717Y-22951283D02*
X107950000Y-25400000D01*
X101307500Y-44450000D02*
X101600000Y-44742500D01*
X66040000Y-63500000D02*
X66040000Y-59690000D01*
X51390000Y-28060000D02*
X51390000Y-42735000D01*
X113665000Y-24254843D02*
X112361440Y-22951283D01*
X86360000Y-40640000D02*
X90855000Y-40640000D01*
X62742500Y-59690000D02*
X60725000Y-61707500D01*
X107950000Y-25400000D02*
X107950000Y-28575000D01*
X88356283Y-32928717D02*
X85633717Y-32928717D01*
X107950000Y-25400000D02*
X107950000Y-22860000D01*
X91440000Y-46990000D02*
X92060000Y-47610000D01*
X91440000Y-52070000D02*
X95250000Y-55880000D01*
X93980000Y-38685000D02*
X91440000Y-41225000D01*
X85633717Y-32928717D02*
X85633717Y-39913717D01*
X68345000Y-64770000D02*
X74402500Y-64770000D01*
X95976283Y-28031283D02*
X98425000Y-30480000D01*
X107950000Y-22860000D02*
X106680000Y-21590000D01*
X85633717Y-32928717D02*
X83185000Y-30480000D01*
X116765000Y-35560000D02*
X110770000Y-35560000D01*
X85633717Y-39913717D02*
X86360000Y-40640000D01*
X95250000Y-55880000D02*
X98780000Y-55880000D01*
X93253717Y-28031283D02*
X95976283Y-28031283D01*
X90805000Y-30480000D02*
X88356283Y-32928717D01*
X90855000Y-40640000D02*
X91440000Y-41225000D01*
X83185000Y-30480000D02*
X83185000Y-27305000D01*
X88900000Y-45660000D02*
X90110000Y-45660000D01*
X119380000Y-58420000D02*
X120010000Y-59050000D01*
X90805000Y-30480000D02*
X93253717Y-28031283D01*
X120010000Y-38805000D02*
X116765000Y-35560000D01*
X90820000Y-47610000D02*
X91440000Y-46990000D01*
X120010000Y-59050000D02*
X120010000Y-63805000D01*
X71120000Y-54755000D02*
X71120000Y-45605000D01*
X100330000Y-25400000D02*
X100330000Y-28575000D01*
D36*
%TO.N,/FILT_COMPOSITE*%
X86390000Y-46960000D02*
X88900000Y-46960000D01*
X86360000Y-46990000D02*
X86390000Y-46960000D01*
D37*
%TO.N,VCC*%
X74695000Y-60725000D02*
X73660000Y-59690000D01*
X88900000Y-46310000D02*
X86882082Y-46310000D01*
X70142500Y-61937500D02*
X74695000Y-61937500D01*
X101600000Y-41617500D02*
X107657500Y-41617500D01*
X85187450Y-48260000D02*
X85107450Y-48340000D01*
X86212082Y-45640000D02*
X82630000Y-45640000D01*
X97790000Y-45652082D02*
X97790000Y-43180000D01*
X74695000Y-61937500D02*
X91645000Y-61937500D01*
X82630000Y-45640000D02*
X81280000Y-46990000D01*
X94625000Y-46960000D02*
X96482082Y-46960000D01*
X97756041Y-45686041D02*
X97790000Y-45652082D01*
X76200000Y-52070000D02*
X76200000Y-54610000D01*
X96482082Y-46960000D02*
X97756041Y-45686041D01*
X68345000Y-62270000D02*
X69810000Y-62270000D01*
X82630000Y-48340000D02*
X81280000Y-46990000D01*
X86882082Y-46310000D02*
X86212082Y-45640000D01*
X81280000Y-46990000D02*
X76200000Y-52070000D01*
X88900000Y-48260000D02*
X85187450Y-48260000D01*
X74930000Y-55880000D02*
X73660000Y-55880000D01*
X85107450Y-48340000D02*
X82630000Y-48340000D01*
X97790000Y-43180000D02*
X99352500Y-41617500D01*
X97756041Y-45686041D02*
X97756041Y-49563959D01*
X76200000Y-54610000D02*
X74930000Y-55880000D01*
X99352500Y-41617500D02*
X101600000Y-41617500D01*
X73660000Y-59690000D02*
X73660000Y-54755000D01*
X74695000Y-61937500D02*
X74695000Y-60725000D01*
X69810000Y-62270000D02*
X70142500Y-61937500D01*
X97756041Y-49563959D02*
X96520000Y-50800000D01*
X91645000Y-61937500D02*
X93207500Y-63500000D01*
X107657500Y-41617500D02*
X107950000Y-41910000D01*
D36*
%TO.N,/COMPOSITE_IN*%
X111760000Y-31470000D02*
X111760000Y-25400000D01*
X103150000Y-35560000D02*
X107670000Y-35560000D01*
X107670000Y-35560000D02*
X111760000Y-31470000D01*
%TO.N,/AUDIO_R*%
X62230000Y-22860000D02*
X55700000Y-22860000D01*
X77470000Y-25400000D02*
X75545000Y-27325000D01*
X66695000Y-27325000D02*
X62230000Y-22860000D01*
X75545000Y-27325000D02*
X66695000Y-27325000D01*
%TO.N,Net-(JP1-A)*%
X117015000Y-57325000D02*
X122328878Y-57325000D01*
X114300000Y-54610000D02*
X117015000Y-57325000D01*
X123190000Y-52840000D02*
X121920000Y-51570000D01*
X122328878Y-57325000D02*
X123190000Y-56463878D01*
X110490000Y-54610000D02*
X114300000Y-54610000D01*
X123190000Y-56463878D02*
X123190000Y-52840000D01*
%TO.N,/CSync_OUT*%
X101880000Y-59690000D02*
X101880000Y-63500000D01*
X107950000Y-59690000D02*
X101880000Y-59690000D01*
%TO.N,/HSync_OUT*%
X81292500Y-50800000D02*
X81292500Y-54610000D01*
X81280000Y-57150000D02*
X81292500Y-57137500D01*
X107950000Y-62230000D02*
X106680000Y-62230000D01*
X96520000Y-64770000D02*
X95250000Y-63500000D01*
X95250000Y-59690000D02*
X93980000Y-58420000D01*
X106680000Y-62230000D02*
X104140000Y-64770000D01*
X104140000Y-64770000D02*
X96520000Y-64770000D01*
X95250000Y-63500000D02*
X95250000Y-59690000D01*
X81292500Y-57137500D02*
X81292500Y-54610000D01*
X93980000Y-58420000D02*
X82550000Y-58420000D01*
X82550000Y-58420000D02*
X81280000Y-57150000D01*
%TO.N,/VSync_OUT*%
X101880000Y-55880000D02*
X105410000Y-55880000D01*
X106680000Y-54610000D02*
X107950000Y-54610000D01*
X105410000Y-55880000D02*
X106680000Y-54610000D01*
X101880000Y-52070000D02*
X101880000Y-55880000D01*
%TO.N,Net-(U1-Rext)*%
X88900000Y-45010000D02*
X87070000Y-43180000D01*
X87070000Y-43180000D02*
X84392500Y-43180000D01*
%TO.N,Net-(U1-VSync)*%
X94625000Y-48910000D02*
X95250000Y-49535000D01*
X95250000Y-49535000D02*
X95250000Y-50800000D01*
X96520000Y-52070000D02*
X98780000Y-52070000D01*
X95250000Y-50800000D02*
X96520000Y-52070000D01*
%TO.N,Net-(U1-HSync)*%
X87010000Y-50800000D02*
X84392500Y-50800000D01*
X88900000Y-48910000D02*
X87010000Y-50800000D01*
%TO.N,Net-(U1-OE)*%
X94625000Y-45010000D02*
X95960000Y-45010000D01*
X95960000Y-45010000D02*
X96520000Y-44450000D01*
%TO.N,Net-(U1-BP)*%
X94625000Y-45660000D02*
X96460000Y-45660000D01*
X96460000Y-45660000D02*
X96520000Y-45720000D01*
%TO.N,Net-(U1-VF)*%
X94625000Y-48260000D02*
X96520000Y-48260000D01*
%TO.N,Net-(D2-K)*%
X85650000Y-63500000D02*
X90232500Y-63500000D01*
%TD*%
%TA.AperFunction,Conductor*%
%TO.N,GND*%
G36*
X83185539Y-46360185D02*
G01*
X83231294Y-46412989D01*
X83242500Y-46464500D01*
X83242500Y-46740000D01*
X84531000Y-46740000D01*
X84598039Y-46759685D01*
X84643794Y-46812489D01*
X84655000Y-46864000D01*
X84655000Y-47116000D01*
X84635315Y-47183039D01*
X84582511Y-47228794D01*
X84531000Y-47240000D01*
X83242501Y-47240000D01*
X83242501Y-47515500D01*
X83222816Y-47582539D01*
X83170012Y-47628294D01*
X83118501Y-47639500D01*
X82971519Y-47639500D01*
X82904480Y-47619815D01*
X82883838Y-47603181D01*
X82479318Y-47198661D01*
X82445833Y-47137338D01*
X82442999Y-47110980D01*
X82442999Y-46869019D01*
X82462684Y-46801980D01*
X82479318Y-46781338D01*
X82883838Y-46376819D01*
X82945161Y-46343334D01*
X82971519Y-46340500D01*
X83118500Y-46340500D01*
X83185539Y-46360185D01*
G37*
%TD.AperFunction*%
%TA.AperFunction,Conductor*%
G36*
X121922018Y-19550633D02*
G01*
X122108581Y-19562860D01*
X122182158Y-19567682D01*
X122190191Y-19568740D01*
X122427754Y-19615994D01*
X122443869Y-19619200D01*
X122451712Y-19621301D01*
X122696644Y-19704444D01*
X122704118Y-19707540D01*
X122936107Y-19821944D01*
X122943129Y-19825999D01*
X123158191Y-19969699D01*
X123164627Y-19974638D01*
X123359085Y-20145174D01*
X123364825Y-20150914D01*
X123535361Y-20345372D01*
X123540304Y-20351813D01*
X123683999Y-20566868D01*
X123688057Y-20573897D01*
X123796814Y-20794435D01*
X123802453Y-20805868D01*
X123805557Y-20813363D01*
X123828101Y-20879774D01*
X123888698Y-21058288D01*
X123890799Y-21066130D01*
X123941257Y-21319795D01*
X123942317Y-21327844D01*
X123959367Y-21587981D01*
X123959500Y-21592037D01*
X123959500Y-52453328D01*
X123939815Y-52520367D01*
X123887011Y-52566122D01*
X123817853Y-52576066D01*
X123754297Y-52547041D01*
X123735183Y-52526215D01*
X123715099Y-52498572D01*
X123711890Y-52493687D01*
X123688172Y-52453582D01*
X123688163Y-52453571D01*
X123674005Y-52439413D01*
X123661370Y-52424620D01*
X123649593Y-52408412D01*
X123613693Y-52378713D01*
X123609381Y-52374790D01*
X123219413Y-51984822D01*
X123185928Y-51923499D01*
X123187319Y-51865048D01*
X123188653Y-51860068D01*
X123205635Y-51796692D01*
X123225468Y-51570000D01*
X123205635Y-51343308D01*
X123147318Y-51125666D01*
X123146741Y-51123511D01*
X123146738Y-51123502D01*
X123091781Y-51005647D01*
X123050568Y-50917266D01*
X122920047Y-50730861D01*
X122920045Y-50730858D01*
X122759142Y-50569955D01*
X122748079Y-50562208D01*
X122697188Y-50526574D01*
X122653563Y-50471999D01*
X122646369Y-50402501D01*
X122677891Y-50340146D01*
X122697188Y-50323425D01*
X122759139Y-50280047D01*
X122920047Y-50119139D01*
X123050568Y-49932734D01*
X123146739Y-49726496D01*
X123205635Y-49506692D01*
X123225468Y-49280000D01*
X123205635Y-49053308D01*
X123146739Y-48833504D01*
X123050568Y-48627266D01*
X122920047Y-48440861D01*
X122920046Y-48440860D01*
X122920045Y-48440858D01*
X122759142Y-48279955D01*
X122699290Y-48238047D01*
X122697188Y-48236574D01*
X122653563Y-48181999D01*
X122646369Y-48112501D01*
X122677891Y-48050146D01*
X122697186Y-48033426D01*
X122759139Y-47990047D01*
X122920047Y-47829139D01*
X123050568Y-47642734D01*
X123146739Y-47436496D01*
X123205635Y-47216692D01*
X123225468Y-46990000D01*
X123221684Y-46946754D01*
X123217550Y-46899500D01*
X123205635Y-46763308D01*
X123146739Y-46543504D01*
X123050568Y-46337266D01*
X122933895Y-46170638D01*
X122920045Y-46150858D01*
X122759141Y-45989954D01*
X122572734Y-45859432D01*
X122572732Y-45859431D01*
X122366497Y-45763261D01*
X122366488Y-45763258D01*
X122146697Y-45704366D01*
X122146693Y-45704365D01*
X122146692Y-45704365D01*
X122146691Y-45704364D01*
X122146686Y-45704364D01*
X121920002Y-45684532D01*
X121919998Y-45684532D01*
X121693313Y-45704364D01*
X121693302Y-45704366D01*
X121473511Y-45763258D01*
X121473506Y-45763260D01*
X121407550Y-45794016D01*
X121338472Y-45804507D01*
X121274689Y-45775987D01*
X121236450Y-45717510D01*
X121231618Y-45692439D01*
X121225141Y-45618400D01*
X121225139Y-45618389D01*
X121166269Y-45398682D01*
X121166265Y-45398673D01*
X121070133Y-45192516D01*
X121070131Y-45192512D01*
X121019025Y-45119526D01*
X120423076Y-45715474D01*
X120399493Y-45635156D01*
X120321761Y-45514202D01*
X120213100Y-45420048D01*
X120082315Y-45360320D01*
X120072533Y-45358913D01*
X120665472Y-44765974D01*
X120665471Y-44765973D01*
X120592483Y-44714866D01*
X120592481Y-44714865D01*
X120386326Y-44618734D01*
X120386317Y-44618730D01*
X120166610Y-44559860D01*
X120166599Y-44559858D01*
X119940002Y-44540034D01*
X119939998Y-44540034D01*
X119713400Y-44559858D01*
X119713389Y-44559860D01*
X119493682Y-44618730D01*
X119493673Y-44618734D01*
X119287513Y-44714868D01*
X119214527Y-44765972D01*
X119214526Y-44765973D01*
X119807467Y-45358913D01*
X119797685Y-45360320D01*
X119666900Y-45420048D01*
X119558239Y-45514202D01*
X119480507Y-45635156D01*
X119456922Y-45715476D01*
X118860973Y-45119527D01*
X118809868Y-45192513D01*
X118713734Y-45398673D01*
X118713731Y-45398680D01*
X118660432Y-45597594D01*
X118624067Y-45657254D01*
X118561220Y-45687783D01*
X118540657Y-45689500D01*
X117112129Y-45689500D01*
X117112123Y-45689501D01*
X117052516Y-45695908D01*
X116917671Y-45746202D01*
X116917664Y-45746206D01*
X116802455Y-45832452D01*
X116802452Y-45832455D01*
X116716206Y-45947664D01*
X116716202Y-45947671D01*
X116665908Y-46082517D01*
X116659501Y-46142116D01*
X116659500Y-46142135D01*
X116659500Y-47837870D01*
X116659501Y-47837876D01*
X116665908Y-47897483D01*
X116716202Y-48032328D01*
X116716206Y-48032335D01*
X116802452Y-48147544D01*
X116802455Y-48147547D01*
X116917664Y-48233793D01*
X116917675Y-48233799D01*
X116918497Y-48234106D01*
X116919198Y-48234631D01*
X116925454Y-48238047D01*
X116924962Y-48238946D01*
X116974431Y-48275977D01*
X116998847Y-48341442D01*
X116983995Y-48409715D01*
X116962851Y-48437962D01*
X116959953Y-48440860D01*
X116829432Y-48627265D01*
X116829431Y-48627267D01*
X116733261Y-48833502D01*
X116733258Y-48833511D01*
X116674366Y-49053302D01*
X116674364Y-49053313D01*
X116654532Y-49279998D01*
X116654532Y-49280001D01*
X116674364Y-49506686D01*
X116674366Y-49506697D01*
X116733258Y-49726488D01*
X116733261Y-49726497D01*
X116829431Y-49932732D01*
X116829432Y-49932734D01*
X116959954Y-50119141D01*
X117120859Y-50280046D01*
X117182811Y-50323425D01*
X117226436Y-50378002D01*
X117233630Y-50447500D01*
X117202107Y-50509855D01*
X117182811Y-50526575D01*
X117120859Y-50569953D01*
X116959954Y-50730858D01*
X116829432Y-50917265D01*
X116829431Y-50917267D01*
X116733261Y-51123502D01*
X116733258Y-51123511D01*
X116674366Y-51343302D01*
X116674364Y-51343313D01*
X116654532Y-51569998D01*
X116654532Y-51570001D01*
X116674364Y-51796686D01*
X116674366Y-51796697D01*
X116733258Y-52016488D01*
X116733261Y-52016497D01*
X116829431Y-52222732D01*
X116829432Y-52222734D01*
X116959954Y-52409141D01*
X117120859Y-52570046D01*
X117182811Y-52613425D01*
X117226436Y-52668002D01*
X117233630Y-52737500D01*
X117202107Y-52799855D01*
X117182811Y-52816575D01*
X117120859Y-52859953D01*
X116959954Y-53020858D01*
X116829432Y-53207265D01*
X116829431Y-53207267D01*
X116733261Y-53413502D01*
X116733258Y-53413511D01*
X116674366Y-53633302D01*
X116674364Y-53633313D01*
X116654532Y-53859998D01*
X116654532Y-53860001D01*
X116674364Y-54086686D01*
X116674366Y-54086697D01*
X116733258Y-54306488D01*
X116733261Y-54306497D01*
X116829431Y-54512732D01*
X116829432Y-54512734D01*
X116959954Y-54699141D01*
X117120858Y-54860045D01*
X117186709Y-54906154D01*
X117230334Y-54960730D01*
X117239114Y-55018536D01*
X117234526Y-55070972D01*
X117827467Y-55663913D01*
X117817685Y-55665320D01*
X117686900Y-55725048D01*
X117578239Y-55819202D01*
X117500507Y-55940156D01*
X117476922Y-56020476D01*
X116880973Y-55424527D01*
X116829868Y-55497513D01*
X116733734Y-55703673D01*
X116733731Y-55703680D01*
X116693068Y-55855435D01*
X116656702Y-55915095D01*
X116593855Y-55945624D01*
X116524480Y-55937329D01*
X116485612Y-55911022D01*
X116032078Y-55457488D01*
X114800803Y-54226212D01*
X114790980Y-54213950D01*
X114790759Y-54214134D01*
X114785786Y-54208123D01*
X114767159Y-54190631D01*
X114735364Y-54160773D01*
X114724919Y-54150328D01*
X114714475Y-54139883D01*
X114708986Y-54135625D01*
X114704561Y-54131847D01*
X114670582Y-54099938D01*
X114670580Y-54099936D01*
X114670577Y-54099935D01*
X114653029Y-54090288D01*
X114636763Y-54079604D01*
X114620933Y-54067325D01*
X114578168Y-54048818D01*
X114572922Y-54046248D01*
X114532093Y-54023803D01*
X114532092Y-54023802D01*
X114512693Y-54018822D01*
X114494281Y-54012518D01*
X114475898Y-54004562D01*
X114475892Y-54004560D01*
X114429874Y-53997272D01*
X114424152Y-53996087D01*
X114379021Y-53984500D01*
X114379019Y-53984500D01*
X114358984Y-53984500D01*
X114339586Y-53982973D01*
X114332162Y-53981797D01*
X114319805Y-53979840D01*
X114319804Y-53979840D01*
X114273416Y-53984225D01*
X114267578Y-53984500D01*
X111964499Y-53984500D01*
X111897460Y-53964815D01*
X111851705Y-53912011D01*
X111840499Y-53860500D01*
X111840499Y-53712129D01*
X111840498Y-53712123D01*
X111834091Y-53652516D01*
X111783797Y-53517671D01*
X111783793Y-53517664D01*
X111697547Y-53402455D01*
X111697544Y-53402452D01*
X111582335Y-53316206D01*
X111582328Y-53316202D01*
X111447482Y-53265908D01*
X111447483Y-53265908D01*
X111387883Y-53259501D01*
X111387881Y-53259500D01*
X111387873Y-53259500D01*
X111387864Y-53259500D01*
X109592129Y-53259500D01*
X109592123Y-53259501D01*
X109532516Y-53265908D01*
X109397671Y-53316202D01*
X109397664Y-53316206D01*
X109282455Y-53402452D01*
X109282452Y-53402455D01*
X109196206Y-53517664D01*
X109196203Y-53517669D01*
X109147189Y-53649083D01*
X109105317Y-53705016D01*
X109039853Y-53729433D01*
X108971580Y-53714581D01*
X108943326Y-53693430D01*
X108821402Y-53571506D01*
X108821395Y-53571501D01*
X108627834Y-53435967D01*
X108627830Y-53435965D01*
X108574093Y-53410907D01*
X108413663Y-53336097D01*
X108413659Y-53336096D01*
X108413655Y-53336094D01*
X108185413Y-53274938D01*
X108185403Y-53274936D01*
X107950001Y-53254341D01*
X107949999Y-53254341D01*
X107714596Y-53274936D01*
X107714586Y-53274938D01*
X107486344Y-53336094D01*
X107486335Y-53336098D01*
X107272171Y-53435964D01*
X107272169Y-53435965D01*
X107078597Y-53571505D01*
X106911505Y-53738597D01*
X106776495Y-53931413D01*
X106721918Y-53975038D01*
X106678825Y-53984228D01*
X106671284Y-53984466D01*
X106670203Y-53984500D01*
X106640650Y-53984500D01*
X106639929Y-53984590D01*
X106633757Y-53985369D01*
X106627945Y-53985826D01*
X106581373Y-53987290D01*
X106581372Y-53987290D01*
X106562129Y-53992881D01*
X106543079Y-53996825D01*
X106523211Y-53999334D01*
X106523209Y-53999335D01*
X106479884Y-54016488D01*
X106474357Y-54018380D01*
X106429610Y-54031381D01*
X106429609Y-54031382D01*
X106412367Y-54041579D01*
X106394899Y-54050137D01*
X106376269Y-54057513D01*
X106376267Y-54057514D01*
X106338576Y-54084898D01*
X106333694Y-54088105D01*
X106293579Y-54111830D01*
X106279408Y-54126000D01*
X106264623Y-54138628D01*
X106248412Y-54150407D01*
X106218709Y-54186310D01*
X106214776Y-54190631D01*
X105688100Y-54717309D01*
X105187228Y-55218181D01*
X105125905Y-55251666D01*
X105099547Y-55254500D01*
X103147535Y-55254500D01*
X103080496Y-55234815D01*
X103034741Y-55182011D01*
X103024177Y-55143102D01*
X103021982Y-55121616D01*
X103019999Y-55102203D01*
X102964814Y-54935666D01*
X102872712Y-54786344D01*
X102748656Y-54662288D01*
X102599334Y-54570186D01*
X102599333Y-54570185D01*
X102599332Y-54570185D01*
X102590493Y-54567256D01*
X102533049Y-54527482D01*
X102506228Y-54462965D01*
X102505500Y-54449551D01*
X102505500Y-53500448D01*
X102525185Y-53433409D01*
X102577989Y-53387654D01*
X102590488Y-53382744D01*
X102599334Y-53379814D01*
X102748656Y-53287712D01*
X102872712Y-53163656D01*
X102964814Y-53014334D01*
X103019999Y-52847797D01*
X103030500Y-52745009D01*
X103030499Y-51394992D01*
X103026910Y-51359862D01*
X103019999Y-51292203D01*
X103019998Y-51292200D01*
X102999912Y-51231586D01*
X102964814Y-51125666D01*
X102872712Y-50976344D01*
X102748656Y-50852288D01*
X102599334Y-50760186D01*
X102432797Y-50705001D01*
X102432795Y-50705000D01*
X102330010Y-50694500D01*
X101429998Y-50694500D01*
X101429980Y-50694501D01*
X101327203Y-50705000D01*
X101327200Y-50705001D01*
X101160668Y-50760185D01*
X101160663Y-50760187D01*
X101011342Y-50852289D01*
X100887289Y-50976342D01*
X100795187Y-51125663D01*
X100795185Y-51125668D01*
X100775615Y-51184727D01*
X100740001Y-51292203D01*
X100740001Y-51292204D01*
X100740000Y-51292204D01*
X100729500Y-51394983D01*
X100729500Y-52745001D01*
X100729501Y-52745018D01*
X100740000Y-52847796D01*
X100740001Y-52847799D01*
X100795185Y-53014331D01*
X100795186Y-53014334D01*
X100887288Y-53163656D01*
X101011344Y-53287712D01*
X101160666Y-53379814D01*
X101169498Y-53382740D01*
X101226944Y-53422508D01*
X101253771Y-53487022D01*
X101254500Y-53500448D01*
X101254500Y-54449551D01*
X101234815Y-54516590D01*
X101182011Y-54562345D01*
X101169507Y-54567256D01*
X101160667Y-54570185D01*
X101011342Y-54662289D01*
X100887289Y-54786342D01*
X100795187Y-54935663D01*
X100795185Y-54935668D01*
X100785194Y-54965819D01*
X100740001Y-55102203D01*
X100740001Y-55102204D01*
X100740000Y-55102204D01*
X100729500Y-55204983D01*
X100729500Y-56555001D01*
X100729501Y-56555018D01*
X100740000Y-56657796D01*
X100740001Y-56657799D01*
X100780046Y-56778645D01*
X100795186Y-56824334D01*
X100887288Y-56973656D01*
X101011344Y-57097712D01*
X101160666Y-57189814D01*
X101327203Y-57244999D01*
X101429991Y-57255500D01*
X102330008Y-57255499D01*
X102330016Y-57255498D01*
X102330019Y-57255498D01*
X102397281Y-57248627D01*
X102432797Y-57244999D01*
X102599334Y-57189814D01*
X102748656Y-57097712D01*
X102872712Y-56973656D01*
X102964814Y-56824334D01*
X103019999Y-56657797D01*
X103024177Y-56616896D01*
X103050573Y-56552207D01*
X103107753Y-56512055D01*
X103147535Y-56505500D01*
X105327257Y-56505500D01*
X105342877Y-56507224D01*
X105342904Y-56506939D01*
X105350660Y-56507671D01*
X105350667Y-56507673D01*
X105419814Y-56505500D01*
X105449350Y-56505500D01*
X105456228Y-56504630D01*
X105462041Y-56504172D01*
X105508627Y-56502709D01*
X105527869Y-56497117D01*
X105546912Y-56493174D01*
X105566792Y-56490664D01*
X105610122Y-56473507D01*
X105615646Y-56471617D01*
X105619396Y-56470527D01*
X105660390Y-56458618D01*
X105677629Y-56448422D01*
X105695103Y-56439862D01*
X105713727Y-56432488D01*
X105713727Y-56432487D01*
X105713732Y-56432486D01*
X105751449Y-56405082D01*
X105756305Y-56401892D01*
X105796420Y-56378170D01*
X105810589Y-56363999D01*
X105825379Y-56351368D01*
X105841587Y-56339594D01*
X105871299Y-56303676D01*
X105875212Y-56299376D01*
X106717102Y-55457486D01*
X106778423Y-55424003D01*
X106848115Y-55428987D01*
X106904048Y-55470859D01*
X106906308Y-55473980D01*
X106911505Y-55481401D01*
X107078599Y-55648495D01*
X107157401Y-55703673D01*
X107272165Y-55784032D01*
X107272167Y-55784033D01*
X107272170Y-55784035D01*
X107486337Y-55883903D01*
X107714592Y-55945063D01*
X107891034Y-55960500D01*
X107949999Y-55965659D01*
X107950000Y-55965659D01*
X107950001Y-55965659D01*
X108008966Y-55960500D01*
X108185408Y-55945063D01*
X108413663Y-55883903D01*
X108627830Y-55784035D01*
X108821401Y-55648495D01*
X108943329Y-55526566D01*
X109004648Y-55493084D01*
X109074340Y-55498068D01*
X109130274Y-55539939D01*
X109147189Y-55570917D01*
X109196202Y-55702328D01*
X109196206Y-55702335D01*
X109282452Y-55817544D01*
X109282455Y-55817547D01*
X109397664Y-55903793D01*
X109397671Y-55903797D01*
X109532517Y-55954091D01*
X109532516Y-55954091D01*
X109539444Y-55954835D01*
X109592127Y-55960500D01*
X111387872Y-55960499D01*
X111447483Y-55954091D01*
X111582331Y-55903796D01*
X111697546Y-55817546D01*
X111783796Y-55702331D01*
X111834091Y-55567483D01*
X111840500Y-55507873D01*
X111840500Y-55359500D01*
X111860185Y-55292461D01*
X111912989Y-55246706D01*
X111964500Y-55235500D01*
X113989548Y-55235500D01*
X114056587Y-55255185D01*
X114077228Y-55271818D01*
X115296071Y-56490662D01*
X116514197Y-57708788D01*
X116524022Y-57721051D01*
X116524243Y-57720869D01*
X116529214Y-57726878D01*
X116550043Y-57746437D01*
X116579635Y-57774226D01*
X116600529Y-57795120D01*
X116606011Y-57799373D01*
X116610443Y-57803157D01*
X116644418Y-57835062D01*
X116661976Y-57844714D01*
X116678233Y-57855393D01*
X116694064Y-57867673D01*
X116713737Y-57876186D01*
X116736833Y-57886182D01*
X116742077Y-57888750D01*
X116782908Y-57911197D01*
X116795523Y-57914435D01*
X116802305Y-57916177D01*
X116820719Y-57922481D01*
X116839104Y-57930438D01*
X116885157Y-57937732D01*
X116890826Y-57938906D01*
X116935981Y-57950500D01*
X116956016Y-57950500D01*
X116975413Y-57952026D01*
X116995196Y-57955160D01*
X117041584Y-57950775D01*
X117047422Y-57950500D01*
X122246135Y-57950500D01*
X122261755Y-57952224D01*
X122261782Y-57951939D01*
X122269538Y-57952671D01*
X122269545Y-57952673D01*
X122338692Y-57950500D01*
X122368228Y-57950500D01*
X122375106Y-57949630D01*
X122380919Y-57949172D01*
X122427505Y-57947709D01*
X122446747Y-57942117D01*
X122465790Y-57938174D01*
X122485670Y-57935664D01*
X122529000Y-57918507D01*
X122534524Y-57916617D01*
X122538274Y-57915527D01*
X122579268Y-57903618D01*
X122596507Y-57893422D01*
X122613981Y-57884862D01*
X122632605Y-57877488D01*
X122632605Y-57877487D01*
X122632610Y-57877486D01*
X122670327Y-57850082D01*
X122675183Y-57846892D01*
X122715298Y-57823170D01*
X122729467Y-57808999D01*
X122744257Y-57796368D01*
X122760465Y-57784594D01*
X122790177Y-57748676D01*
X122794090Y-57744376D01*
X123573787Y-56964680D01*
X123586042Y-56954864D01*
X123585859Y-56954642D01*
X123591866Y-56949670D01*
X123591877Y-56949664D01*
X123622775Y-56916760D01*
X123639227Y-56899242D01*
X123649671Y-56888796D01*
X123660120Y-56878349D01*
X123664379Y-56872856D01*
X123668152Y-56868439D01*
X123700062Y-56834460D01*
X123709713Y-56816902D01*
X123720396Y-56800639D01*
X123732673Y-56784814D01*
X123732672Y-56784814D01*
X123737459Y-56778645D01*
X123740224Y-56780790D01*
X123779535Y-56743886D01*
X123848242Y-56731194D01*
X123912904Y-56757664D01*
X123952991Y-56814890D01*
X123959500Y-56854538D01*
X123959500Y-64767962D01*
X123959367Y-64772018D01*
X123942317Y-65032155D01*
X123941257Y-65040204D01*
X123890799Y-65293869D01*
X123888698Y-65301711D01*
X123805560Y-65546630D01*
X123802453Y-65554131D01*
X123688058Y-65786101D01*
X123683999Y-65793131D01*
X123540304Y-66008186D01*
X123535361Y-66014627D01*
X123364825Y-66209085D01*
X123359085Y-66214825D01*
X123164627Y-66385361D01*
X123158186Y-66390304D01*
X122943131Y-66533999D01*
X122936101Y-66538058D01*
X122704131Y-66652453D01*
X122696630Y-66655560D01*
X122451711Y-66738698D01*
X122443869Y-66740799D01*
X122190204Y-66791257D01*
X122182155Y-66792317D01*
X121922018Y-66809367D01*
X121917962Y-66809500D01*
X52072038Y-66809500D01*
X52067982Y-66809367D01*
X51807844Y-66792317D01*
X51799795Y-66791257D01*
X51546130Y-66740799D01*
X51538288Y-66738698D01*
X51380361Y-66685089D01*
X51293363Y-66655557D01*
X51285874Y-66652455D01*
X51053897Y-66538057D01*
X51046868Y-66533999D01*
X50831813Y-66390304D01*
X50825372Y-66385361D01*
X50630914Y-66214825D01*
X50625174Y-66209085D01*
X50454638Y-66014627D01*
X50449699Y-66008191D01*
X50305999Y-65793129D01*
X50301944Y-65786107D01*
X50187540Y-65554118D01*
X50184444Y-65546644D01*
X50101301Y-65301711D01*
X50099200Y-65293869D01*
X50088756Y-65241365D01*
X50048740Y-65040191D01*
X50047682Y-65032154D01*
X50046345Y-65011761D01*
X50037382Y-64874998D01*
X50030633Y-64772018D01*
X50030500Y-64767962D01*
X50030500Y-62000002D01*
X53070034Y-62000002D01*
X53089858Y-62226599D01*
X53089860Y-62226610D01*
X53148730Y-62446317D01*
X53148734Y-62446326D01*
X53244865Y-62652481D01*
X53244866Y-62652483D01*
X53295973Y-62725471D01*
X53295974Y-62725472D01*
X53977046Y-62044399D01*
X53989835Y-62125148D01*
X54047359Y-62238045D01*
X54136955Y-62327641D01*
X54249852Y-62385165D01*
X54330599Y-62397953D01*
X53644351Y-63084200D01*
X53634505Y-63133194D01*
X53585889Y-63183376D01*
X53530367Y-63198048D01*
X53530423Y-63199099D01*
X53530429Y-63199146D01*
X53530426Y-63199146D01*
X53530436Y-63199324D01*
X53527123Y-63199501D01*
X53467516Y-63205908D01*
X53332671Y-63256202D01*
X53332664Y-63256206D01*
X53217455Y-63342452D01*
X53217452Y-63342455D01*
X53131206Y-63457664D01*
X53131202Y-63457671D01*
X53080908Y-63592517D01*
X53075231Y-63645325D01*
X53074501Y-63652123D01*
X53074500Y-63652135D01*
X53074500Y-65347870D01*
X53074501Y-65347876D01*
X53080908Y-65407483D01*
X53131202Y-65542328D01*
X53131206Y-65542335D01*
X53217452Y-65657544D01*
X53217455Y-65657547D01*
X53332664Y-65743793D01*
X53332671Y-65743797D01*
X53467517Y-65794091D01*
X53467516Y-65794091D01*
X53474444Y-65794835D01*
X53527127Y-65800500D01*
X55222872Y-65800499D01*
X55282483Y-65794091D01*
X55417331Y-65743796D01*
X55532546Y-65657546D01*
X55618796Y-65542331D01*
X55669091Y-65407483D01*
X55675500Y-65347873D01*
X55675500Y-65295001D01*
X59324500Y-65295001D01*
X59324501Y-65295019D01*
X59335000Y-65397796D01*
X59335001Y-65397799D01*
X59343179Y-65422478D01*
X59390186Y-65564334D01*
X59482288Y-65713656D01*
X59606344Y-65837712D01*
X59755666Y-65929814D01*
X59922203Y-65984999D01*
X60024991Y-65995500D01*
X61425008Y-65995499D01*
X61527797Y-65984999D01*
X61694334Y-65929814D01*
X61843656Y-65837712D01*
X61967712Y-65713656D01*
X62059814Y-65564334D01*
X62114999Y-65397797D01*
X62125500Y-65295009D01*
X62125499Y-64770002D01*
X67040034Y-64770002D01*
X67059858Y-64996599D01*
X67059860Y-64996610D01*
X67118730Y-65216317D01*
X67118734Y-65216326D01*
X67214865Y-65422481D01*
X67214866Y-65422483D01*
X67265973Y-65495471D01*
X67265974Y-65495472D01*
X67947046Y-64814399D01*
X67959835Y-64895148D01*
X68017359Y-65008045D01*
X68106955Y-65097641D01*
X68219852Y-65155165D01*
X68300599Y-65167953D01*
X67619526Y-65849025D01*
X67619526Y-65849026D01*
X67692512Y-65900131D01*
X67692516Y-65900133D01*
X67898673Y-65996265D01*
X67898682Y-65996269D01*
X68118389Y-66055139D01*
X68118400Y-66055141D01*
X68344998Y-66074966D01*
X68345002Y-66074966D01*
X68571599Y-66055141D01*
X68571610Y-66055139D01*
X68791317Y-65996269D01*
X68791331Y-65996264D01*
X68997478Y-65900136D01*
X69070472Y-65849025D01*
X68389401Y-65167953D01*
X68470148Y-65155165D01*
X68583045Y-65097641D01*
X68672641Y-65008045D01*
X68730165Y-64895148D01*
X68742953Y-64814400D01*
X69424025Y-65495472D01*
X69475136Y-65422478D01*
X69526420Y-65312500D01*
X73295001Y-65312500D01*
X73295001Y-65524986D01*
X73305494Y-65627697D01*
X73360641Y-65794119D01*
X73360643Y-65794124D01*
X73452684Y-65943345D01*
X73576654Y-66067315D01*
X73725875Y-66159356D01*
X73725880Y-66159358D01*
X73892302Y-66214505D01*
X73892309Y-66214506D01*
X73995019Y-66224999D01*
X74444999Y-66224999D01*
X74445000Y-66224998D01*
X74445000Y-65312500D01*
X74945000Y-65312500D01*
X74945000Y-66224999D01*
X75394972Y-66224999D01*
X75394986Y-66224998D01*
X75497697Y-66214505D01*
X75664119Y-66159358D01*
X75664124Y-66159356D01*
X75813345Y-66067315D01*
X75937315Y-65943345D01*
X76029356Y-65794124D01*
X76029358Y-65794119D01*
X76084505Y-65627697D01*
X76084506Y-65627690D01*
X76094999Y-65524986D01*
X76095000Y-65524973D01*
X76095000Y-65312500D01*
X74945000Y-65312500D01*
X74445000Y-65312500D01*
X73295001Y-65312500D01*
X69526420Y-65312500D01*
X69571264Y-65216331D01*
X69571269Y-65216317D01*
X69630139Y-64996610D01*
X69630141Y-64996599D01*
X69646248Y-64812500D01*
X73295000Y-64812500D01*
X74445000Y-64812500D01*
X74445000Y-63900000D01*
X74945000Y-63900000D01*
X74945000Y-64812500D01*
X76094999Y-64812500D01*
X76094999Y-64600028D01*
X76094998Y-64600013D01*
X76084505Y-64497302D01*
X76029358Y-64330880D01*
X76029356Y-64330875D01*
X75937315Y-64181654D01*
X75813345Y-64057684D01*
X75664124Y-63965643D01*
X75664119Y-63965641D01*
X75497697Y-63910494D01*
X75497690Y-63910493D01*
X75394986Y-63900000D01*
X74945000Y-63900000D01*
X74445000Y-63900000D01*
X73995028Y-63900000D01*
X73995012Y-63900001D01*
X73892302Y-63910494D01*
X73725880Y-63965641D01*
X73725875Y-63965643D01*
X73576654Y-64057684D01*
X73452684Y-64181654D01*
X73360643Y-64330875D01*
X73360641Y-64330880D01*
X73305494Y-64497302D01*
X73305493Y-64497309D01*
X73295000Y-64600013D01*
X73295000Y-64812500D01*
X69646248Y-64812500D01*
X69649966Y-64770002D01*
X69649966Y-64769997D01*
X69630141Y-64543400D01*
X69630139Y-64543389D01*
X69571269Y-64323682D01*
X69571265Y-64323673D01*
X69475133Y-64117516D01*
X69475131Y-64117512D01*
X69424026Y-64044526D01*
X69424025Y-64044526D01*
X68742953Y-64725598D01*
X68730165Y-64644852D01*
X68672641Y-64531955D01*
X68583045Y-64442359D01*
X68470148Y-64384835D01*
X68389400Y-64372046D01*
X69011445Y-63750000D01*
X81400001Y-63750000D01*
X81400001Y-64174986D01*
X81410494Y-64277697D01*
X81465641Y-64444119D01*
X81465643Y-64444124D01*
X81557684Y-64593345D01*
X81681654Y-64717315D01*
X81830875Y-64809356D01*
X81830880Y-64809358D01*
X81997302Y-64864505D01*
X81997309Y-64864506D01*
X82100019Y-64874999D01*
X82299999Y-64874999D01*
X82300000Y-64874998D01*
X82300000Y-63750000D01*
X82800000Y-63750000D01*
X82800000Y-64874999D01*
X82999972Y-64874999D01*
X82999986Y-64874998D01*
X83102697Y-64864505D01*
X83269119Y-64809358D01*
X83269124Y-64809356D01*
X83418345Y-64717315D01*
X83542315Y-64593345D01*
X83634356Y-64444124D01*
X83634358Y-64444119D01*
X83689505Y-64277697D01*
X83689506Y-64277690D01*
X83699999Y-64174986D01*
X83700000Y-64174973D01*
X83700000Y-63750000D01*
X82800000Y-63750000D01*
X82300000Y-63750000D01*
X81400001Y-63750000D01*
X69011445Y-63750000D01*
X69075646Y-63685799D01*
X69085492Y-63636807D01*
X69134107Y-63586624D01*
X69189633Y-63571981D01*
X69189576Y-63570900D01*
X69189571Y-63570854D01*
X69189573Y-63570853D01*
X69189564Y-63570676D01*
X69192857Y-63570499D01*
X69192872Y-63570499D01*
X69252483Y-63564091D01*
X69387331Y-63513796D01*
X69502546Y-63427546D01*
X69588796Y-63312331D01*
X69639091Y-63177483D01*
X69645500Y-63117873D01*
X69645500Y-63094500D01*
X69665185Y-63027461D01*
X69717989Y-62981706D01*
X69769500Y-62970500D01*
X69786952Y-62970500D01*
X69790697Y-62970613D01*
X69798042Y-62971057D01*
X69852606Y-62974358D01*
X69890314Y-62967447D01*
X69913621Y-62963177D01*
X69917325Y-62962613D01*
X69935170Y-62960446D01*
X69978872Y-62955140D01*
X69988335Y-62951550D01*
X70009961Y-62945522D01*
X70010893Y-62945351D01*
X70019932Y-62943695D01*
X70076512Y-62918229D01*
X70079942Y-62916809D01*
X70137930Y-62894818D01*
X70146266Y-62889062D01*
X70165821Y-62878034D01*
X70175057Y-62873878D01*
X70223896Y-62835613D01*
X70226876Y-62833421D01*
X70277929Y-62798183D01*
X70319072Y-62751740D01*
X70321609Y-62749047D01*
X70396340Y-62674318D01*
X70457664Y-62640833D01*
X70484020Y-62638000D01*
X73271652Y-62638000D01*
X73338691Y-62657685D01*
X73377189Y-62696901D01*
X73452288Y-62818656D01*
X73576344Y-62942712D01*
X73725666Y-63034814D01*
X73892203Y-63089999D01*
X73994991Y-63100500D01*
X75395008Y-63100499D01*
X75497797Y-63089999D01*
X75664334Y-63034814D01*
X75813656Y-62942712D01*
X75937712Y-62818656D01*
X76012809Y-62696902D01*
X76064757Y-62650179D01*
X76118348Y-62638000D01*
X81281793Y-62638000D01*
X81348832Y-62657685D01*
X81394587Y-62710489D01*
X81405151Y-62774603D01*
X81400000Y-62825013D01*
X81400000Y-63250000D01*
X83699999Y-63250000D01*
X83699999Y-62825028D01*
X83699998Y-62825015D01*
X83694848Y-62774603D01*
X83707617Y-62705910D01*
X83755497Y-62655025D01*
X83818206Y-62638000D01*
X84381290Y-62638000D01*
X84448329Y-62657685D01*
X84494084Y-62710489D01*
X84504648Y-62774603D01*
X84499500Y-62824984D01*
X84499500Y-64175001D01*
X84499501Y-64175018D01*
X84510000Y-64277796D01*
X84510001Y-64277799D01*
X84564532Y-64442359D01*
X84565186Y-64444334D01*
X84657288Y-64593656D01*
X84781344Y-64717712D01*
X84930666Y-64809814D01*
X85097203Y-64864999D01*
X85199991Y-64875500D01*
X86100008Y-64875499D01*
X86100016Y-64875498D01*
X86100019Y-64875498D01*
X86156302Y-64869748D01*
X86202797Y-64864999D01*
X86369334Y-64809814D01*
X86518656Y-64717712D01*
X86642712Y-64593656D01*
X86734814Y-64444334D01*
X86789999Y-64277797D01*
X86794177Y-64236896D01*
X86820573Y-64172207D01*
X86877753Y-64132055D01*
X86917535Y-64125500D01*
X88902465Y-64125500D01*
X88969504Y-64145185D01*
X89015259Y-64197989D01*
X89025823Y-64236898D01*
X89030000Y-64277794D01*
X89030001Y-64277796D01*
X89085186Y-64444335D01*
X89085187Y-64444337D01*
X89177286Y-64593651D01*
X89177289Y-64593655D01*
X89301344Y-64717710D01*
X89301348Y-64717713D01*
X89450662Y-64809812D01*
X89450664Y-64809813D01*
X89450666Y-64809814D01*
X89617203Y-64864999D01*
X89719992Y-64875500D01*
X89719997Y-64875500D01*
X90745003Y-64875500D01*
X90745008Y-64875500D01*
X90847797Y-64864999D01*
X91014334Y-64809814D01*
X91163655Y-64717711D01*
X91287711Y-64593655D01*
X91379814Y-64444334D01*
X91434999Y-64277797D01*
X91445500Y-64175008D01*
X91445500Y-63028019D01*
X91465185Y-62960980D01*
X91517989Y-62915225D01*
X91587147Y-62905281D01*
X91650703Y-62934306D01*
X91657181Y-62940338D01*
X91958181Y-63241338D01*
X91991666Y-63302661D01*
X91994500Y-63329019D01*
X91994500Y-64175015D01*
X92005000Y-64277795D01*
X92005001Y-64277796D01*
X92060186Y-64444335D01*
X92060187Y-64444337D01*
X92152286Y-64593651D01*
X92152289Y-64593655D01*
X92276344Y-64717710D01*
X92276348Y-64717713D01*
X92425662Y-64809812D01*
X92425664Y-64809813D01*
X92425666Y-64809814D01*
X92592203Y-64864999D01*
X92694992Y-64875500D01*
X92694997Y-64875500D01*
X93720003Y-64875500D01*
X93720008Y-64875500D01*
X93822797Y-64864999D01*
X93989334Y-64809814D01*
X94138655Y-64717711D01*
X94262711Y-64593655D01*
X94354814Y-64444334D01*
X94409999Y-64277797D01*
X94420500Y-64175008D01*
X94420500Y-63758119D01*
X94440185Y-63691080D01*
X94492989Y-63645325D01*
X94562147Y-63635381D01*
X94625703Y-63664406D01*
X94663477Y-63723184D01*
X94663576Y-63723524D01*
X94671380Y-63750387D01*
X94681580Y-63767634D01*
X94690138Y-63785103D01*
X94697514Y-63803732D01*
X94724898Y-63841423D01*
X94728106Y-63846307D01*
X94751827Y-63886416D01*
X94751833Y-63886424D01*
X94765990Y-63900580D01*
X94778627Y-63915375D01*
X94790406Y-63931587D01*
X94814288Y-63951344D01*
X94826309Y-63961288D01*
X94830620Y-63965210D01*
X95729914Y-64864505D01*
X96019197Y-65153788D01*
X96029022Y-65166051D01*
X96029243Y-65165869D01*
X96034214Y-65171878D01*
X96055043Y-65191437D01*
X96084635Y-65219226D01*
X96105529Y-65240120D01*
X96111011Y-65244373D01*
X96115443Y-65248157D01*
X96149418Y-65280062D01*
X96166976Y-65289714D01*
X96183235Y-65300395D01*
X96199064Y-65312673D01*
X96241838Y-65331182D01*
X96247056Y-65333738D01*
X96287908Y-65356197D01*
X96307316Y-65361180D01*
X96325717Y-65367480D01*
X96344104Y-65375437D01*
X96387488Y-65382308D01*
X96390119Y-65382725D01*
X96395839Y-65383909D01*
X96440981Y-65395500D01*
X96461016Y-65395500D01*
X96480414Y-65397026D01*
X96500194Y-65400159D01*
X96500195Y-65400160D01*
X96500195Y-65400159D01*
X96500196Y-65400160D01*
X96546584Y-65395775D01*
X96552422Y-65395500D01*
X104057257Y-65395500D01*
X104072877Y-65397224D01*
X104072904Y-65396939D01*
X104080660Y-65397671D01*
X104080667Y-65397673D01*
X104149814Y-65395500D01*
X104179350Y-65395500D01*
X104186228Y-65394630D01*
X104192041Y-65394172D01*
X104238627Y-65392709D01*
X104257869Y-65387117D01*
X104276912Y-65383174D01*
X104296792Y-65380664D01*
X104340122Y-65363507D01*
X104345646Y-65361617D01*
X104349396Y-65360527D01*
X104390390Y-65348618D01*
X104407629Y-65338422D01*
X104425103Y-65329862D01*
X104443727Y-65322488D01*
X104443727Y-65322487D01*
X104443732Y-65322486D01*
X104481449Y-65295082D01*
X104486305Y-65291892D01*
X104526420Y-65268170D01*
X104540589Y-65253999D01*
X104555379Y-65241368D01*
X104571587Y-65229594D01*
X104601299Y-65193676D01*
X104605212Y-65189376D01*
X105989584Y-63805005D01*
X117505057Y-63805005D01*
X117524807Y-64118942D01*
X117524808Y-64118949D01*
X117583755Y-64427958D01*
X117680963Y-64727132D01*
X117680965Y-64727137D01*
X117814900Y-65011761D01*
X117814903Y-65011767D01*
X117983457Y-65277367D01*
X117983460Y-65277371D01*
X118074286Y-65387160D01*
X118712266Y-64749180D01*
X118875130Y-64939870D01*
X119065818Y-65102732D01*
X118424971Y-65743579D01*
X118424972Y-65743581D01*
X118667772Y-65919985D01*
X118667790Y-65919996D01*
X118943447Y-66071540D01*
X118943455Y-66071544D01*
X119235926Y-66187340D01*
X119540620Y-66265573D01*
X119540629Y-66265575D01*
X119852701Y-66304999D01*
X119852715Y-66305000D01*
X120167285Y-66305000D01*
X120167298Y-66304999D01*
X120479370Y-66265575D01*
X120479379Y-66265573D01*
X120784073Y-66187340D01*
X121076544Y-66071544D01*
X121076552Y-66071540D01*
X121352209Y-65919996D01*
X121352219Y-65919990D01*
X121595026Y-65743579D01*
X121595027Y-65743579D01*
X120954180Y-65102733D01*
X121144870Y-64939870D01*
X121307733Y-64749181D01*
X121945712Y-65387160D01*
X122036544Y-65277364D01*
X122205096Y-65011767D01*
X122205099Y-65011761D01*
X122339034Y-64727137D01*
X122339036Y-64727132D01*
X122436244Y-64427958D01*
X122495191Y-64118949D01*
X122495192Y-64118942D01*
X122514943Y-63805005D01*
X122514943Y-63804994D01*
X122495192Y-63491057D01*
X122495191Y-63491050D01*
X122436244Y-63182041D01*
X122339036Y-62882867D01*
X122339034Y-62882862D01*
X122205099Y-62598238D01*
X122205096Y-62598232D01*
X122036542Y-62332632D01*
X122036539Y-62332628D01*
X121945712Y-62222838D01*
X121307732Y-62860818D01*
X121144870Y-62670130D01*
X120954180Y-62507266D01*
X121595027Y-61866419D01*
X121595026Y-61866417D01*
X121352227Y-61690014D01*
X121352209Y-61690003D01*
X121076552Y-61538459D01*
X121076544Y-61538455D01*
X120784073Y-61422659D01*
X120479379Y-61344426D01*
X120479370Y-61344424D01*
X120167298Y-61305000D01*
X119852701Y-61305000D01*
X119540629Y-61344424D01*
X119540620Y-61344426D01*
X119235926Y-61422659D01*
X118943455Y-61538455D01*
X118943447Y-61538459D01*
X118667787Y-61690004D01*
X118667782Y-61690007D01*
X118424972Y-61866418D01*
X118424971Y-61866419D01*
X119065819Y-62507266D01*
X118875130Y-62670130D01*
X118712266Y-62860818D01*
X118074286Y-62222838D01*
X118074285Y-62222838D01*
X117983459Y-62332629D01*
X117983457Y-62332632D01*
X117814903Y-62598232D01*
X117814900Y-62598238D01*
X117680965Y-62882862D01*
X117680963Y-62882867D01*
X117583755Y-63182041D01*
X117524808Y-63491050D01*
X117524807Y-63491057D01*
X117505057Y-63804994D01*
X117505057Y-63805005D01*
X105989584Y-63805005D01*
X106717102Y-63077487D01*
X106778423Y-63044004D01*
X106848115Y-63048988D01*
X106904048Y-63090860D01*
X106906328Y-63094008D01*
X106911505Y-63101401D01*
X107078599Y-63268495D01*
X107091684Y-63277657D01*
X107272165Y-63404032D01*
X107272167Y-63404033D01*
X107272170Y-63404035D01*
X107486337Y-63503903D01*
X107486343Y-63503904D01*
X107486344Y-63503905D01*
X107523262Y-63513797D01*
X107714592Y-63565063D01*
X107902918Y-63581539D01*
X107949999Y-63585659D01*
X107950000Y-63585659D01*
X107950001Y-63585659D01*
X107989234Y-63582226D01*
X108185408Y-63565063D01*
X108413663Y-63503903D01*
X108627830Y-63404035D01*
X108821401Y-63268495D01*
X108988495Y-63101401D01*
X109118425Y-62915842D01*
X109173002Y-62872217D01*
X109242500Y-62865023D01*
X109304855Y-62896546D01*
X109321575Y-62915842D01*
X109451500Y-63101395D01*
X109451505Y-63101401D01*
X109618599Y-63268495D01*
X109631684Y-63277657D01*
X109812165Y-63404032D01*
X109812167Y-63404033D01*
X109812170Y-63404035D01*
X110026337Y-63503903D01*
X110026343Y-63503904D01*
X110026344Y-63503905D01*
X110063262Y-63513797D01*
X110254592Y-63565063D01*
X110442918Y-63581539D01*
X110489999Y-63585659D01*
X110490000Y-63585659D01*
X110490001Y-63585659D01*
X110529234Y-63582226D01*
X110725408Y-63565063D01*
X110953663Y-63503903D01*
X111167830Y-63404035D01*
X111361401Y-63268495D01*
X111528495Y-63101401D01*
X111664035Y-62907830D01*
X111763903Y-62693663D01*
X111825063Y-62465408D01*
X111845659Y-62230000D01*
X111845361Y-62226599D01*
X111837391Y-62135494D01*
X111825063Y-61994592D01*
X111763903Y-61766337D01*
X111664035Y-61552171D01*
X111663504Y-61551413D01*
X111528496Y-61358600D01*
X111474896Y-61305000D01*
X111406567Y-61236671D01*
X111373084Y-61175351D01*
X111378068Y-61105659D01*
X111419939Y-61049725D01*
X111450915Y-61032810D01*
X111582331Y-60983796D01*
X111697546Y-60897546D01*
X111783796Y-60782331D01*
X111834091Y-60647483D01*
X111840500Y-60587873D01*
X111840499Y-58792128D01*
X111834091Y-58732517D01*
X111832810Y-58729083D01*
X111783797Y-58597671D01*
X111783793Y-58597664D01*
X111697547Y-58482455D01*
X111697544Y-58482452D01*
X111582335Y-58396206D01*
X111582328Y-58396202D01*
X111447482Y-58345908D01*
X111447483Y-58345908D01*
X111387883Y-58339501D01*
X111387881Y-58339500D01*
X111387873Y-58339500D01*
X111387864Y-58339500D01*
X109592129Y-58339500D01*
X109592123Y-58339501D01*
X109532516Y-58345908D01*
X109397671Y-58396202D01*
X109397664Y-58396206D01*
X109282455Y-58482452D01*
X109282452Y-58482455D01*
X109196206Y-58597664D01*
X109196203Y-58597669D01*
X109147189Y-58729083D01*
X109105317Y-58785016D01*
X109039853Y-58809433D01*
X108971580Y-58794581D01*
X108943326Y-58773430D01*
X108821402Y-58651506D01*
X108821395Y-58651501D01*
X108627834Y-58515967D01*
X108627830Y-58515965D01*
X108605778Y-58505682D01*
X108413663Y-58416097D01*
X108413659Y-58416096D01*
X108413655Y-58416094D01*
X108185413Y-58354938D01*
X108185403Y-58354936D01*
X107950001Y-58334341D01*
X107949999Y-58334341D01*
X107714596Y-58354936D01*
X107714586Y-58354938D01*
X107486344Y-58416094D01*
X107486335Y-58416098D01*
X107272171Y-58515964D01*
X107272169Y-58515965D01*
X107078597Y-58651505D01*
X106911505Y-58818597D01*
X106776348Y-59011623D01*
X106721771Y-59055248D01*
X106674773Y-59064500D01*
X103147535Y-59064500D01*
X103080496Y-59044815D01*
X103034741Y-58992011D01*
X103024177Y-58953102D01*
X103021823Y-58930059D01*
X103019999Y-58912203D01*
X102964814Y-58745666D01*
X102872712Y-58596344D01*
X102748656Y-58472288D01*
X102625307Y-58396206D01*
X102599336Y-58380187D01*
X102599331Y-58380185D01*
X102591361Y-58377544D01*
X102432797Y-58325001D01*
X102432795Y-58325000D01*
X102330010Y-58314500D01*
X101429998Y-58314500D01*
X101429980Y-58314501D01*
X101327203Y-58325000D01*
X101327200Y-58325001D01*
X101160668Y-58380185D01*
X101160663Y-58380187D01*
X101011342Y-58472289D01*
X100887289Y-58596342D01*
X100795187Y-58745663D01*
X100795185Y-58745668D01*
X100779790Y-58792127D01*
X100740001Y-58912203D01*
X100740001Y-58912204D01*
X100740000Y-58912204D01*
X100729500Y-59014983D01*
X100729500Y-60365001D01*
X100729501Y-60365018D01*
X100740000Y-60467796D01*
X100740001Y-60467799D01*
X100789665Y-60617673D01*
X100795186Y-60634334D01*
X100887288Y-60783656D01*
X101011344Y-60907712D01*
X101160666Y-60999814D01*
X101169498Y-61002740D01*
X101226944Y-61042508D01*
X101253771Y-61107022D01*
X101254500Y-61120448D01*
X101254500Y-62069551D01*
X101234815Y-62136590D01*
X101182011Y-62182345D01*
X101169507Y-62187256D01*
X101160667Y-62190185D01*
X101011342Y-62282289D01*
X100887289Y-62406342D01*
X100795187Y-62555663D01*
X100795185Y-62555668D01*
X100767903Y-62638000D01*
X100740001Y-62722203D01*
X100740001Y-62722204D01*
X100740000Y-62722204D01*
X100729500Y-62824983D01*
X100729500Y-62824991D01*
X100729500Y-63457671D01*
X100729501Y-64020500D01*
X100709816Y-64087539D01*
X100657013Y-64133294D01*
X100605501Y-64144500D01*
X100054000Y-64144500D01*
X99986961Y-64124815D01*
X99941206Y-64072011D01*
X99930000Y-64020500D01*
X99930000Y-63750000D01*
X97630001Y-63750000D01*
X97630001Y-64020500D01*
X97610316Y-64087539D01*
X97557512Y-64133294D01*
X97506001Y-64144500D01*
X96830453Y-64144500D01*
X96763414Y-64124815D01*
X96742772Y-64108181D01*
X95911819Y-63277228D01*
X95896951Y-63250000D01*
X97630000Y-63250000D01*
X98530000Y-63250000D01*
X98530000Y-62125000D01*
X99030000Y-62125000D01*
X99030000Y-63250000D01*
X99929999Y-63250000D01*
X99929999Y-62825028D01*
X99929998Y-62825013D01*
X99919505Y-62722302D01*
X99864358Y-62555880D01*
X99864356Y-62555875D01*
X99772315Y-62406654D01*
X99648345Y-62282684D01*
X99499124Y-62190643D01*
X99499119Y-62190641D01*
X99332697Y-62135494D01*
X99332690Y-62135493D01*
X99229986Y-62125000D01*
X99030000Y-62125000D01*
X98530000Y-62125000D01*
X98330029Y-62125000D01*
X98330012Y-62125001D01*
X98227302Y-62135494D01*
X98060880Y-62190641D01*
X98060875Y-62190643D01*
X97911654Y-62282684D01*
X97787684Y-62406654D01*
X97695643Y-62555875D01*
X97695641Y-62555880D01*
X97640494Y-62722302D01*
X97640493Y-62722309D01*
X97630000Y-62825013D01*
X97630000Y-63250000D01*
X95896951Y-63250000D01*
X95878334Y-63215905D01*
X95875500Y-63189547D01*
X95875500Y-60365001D01*
X97629500Y-60365001D01*
X97629501Y-60365018D01*
X97640000Y-60467796D01*
X97640001Y-60467799D01*
X97689665Y-60617673D01*
X97695186Y-60634334D01*
X97787288Y-60783656D01*
X97911344Y-60907712D01*
X98060666Y-60999814D01*
X98227203Y-61054999D01*
X98329991Y-61065500D01*
X99230008Y-61065499D01*
X99230016Y-61065498D01*
X99230019Y-61065498D01*
X99319630Y-61056344D01*
X99332797Y-61054999D01*
X99499334Y-60999814D01*
X99648656Y-60907712D01*
X99772712Y-60783656D01*
X99864814Y-60634334D01*
X99919999Y-60467797D01*
X99930500Y-60365009D01*
X99930499Y-59014992D01*
X99930357Y-59013606D01*
X99919999Y-58912203D01*
X99919998Y-58912200D01*
X99890068Y-58821877D01*
X99864814Y-58745666D01*
X99772712Y-58596344D01*
X99648656Y-58472288D01*
X99525307Y-58396206D01*
X99499336Y-58380187D01*
X99499331Y-58380185D01*
X99491361Y-58377544D01*
X99332797Y-58325001D01*
X99332795Y-58325000D01*
X99230010Y-58314500D01*
X98329998Y-58314500D01*
X98329980Y-58314501D01*
X98227203Y-58325000D01*
X98227200Y-58325001D01*
X98060668Y-58380185D01*
X98060663Y-58380187D01*
X97911342Y-58472289D01*
X97787289Y-58596342D01*
X97695187Y-58745663D01*
X97695185Y-58745668D01*
X97679790Y-58792127D01*
X97640001Y-58912203D01*
X97640001Y-58912204D01*
X97640000Y-58912204D01*
X97629500Y-59014983D01*
X97629500Y-60365001D01*
X95875500Y-60365001D01*
X95875500Y-59772737D01*
X95877224Y-59757123D01*
X95876938Y-59757096D01*
X95877672Y-59749333D01*
X95875500Y-59680203D01*
X95875500Y-59650651D01*
X95875500Y-59650650D01*
X95874629Y-59643759D01*
X95874172Y-59637945D01*
X95872709Y-59591372D01*
X95867122Y-59572144D01*
X95863174Y-59553084D01*
X95860664Y-59533208D01*
X95843507Y-59489875D01*
X95841619Y-59484359D01*
X95828619Y-59439612D01*
X95818418Y-59422363D01*
X95809860Y-59404894D01*
X95802486Y-59386268D01*
X95802483Y-59386264D01*
X95802483Y-59386263D01*
X95775098Y-59348571D01*
X95771890Y-59343687D01*
X95748172Y-59303582D01*
X95748163Y-59303571D01*
X95734005Y-59289413D01*
X95721370Y-59274620D01*
X95709593Y-59258412D01*
X95673693Y-59228713D01*
X95669381Y-59224790D01*
X94480803Y-58036212D01*
X94470980Y-58023950D01*
X94470759Y-58024134D01*
X94465786Y-58018123D01*
X94415364Y-57970773D01*
X94399750Y-57955159D01*
X94394475Y-57949883D01*
X94388986Y-57945625D01*
X94384561Y-57941847D01*
X94350582Y-57909938D01*
X94350580Y-57909936D01*
X94350577Y-57909935D01*
X94333029Y-57900288D01*
X94316763Y-57889604D01*
X94315665Y-57888752D01*
X94300936Y-57877327D01*
X94300935Y-57877326D01*
X94300933Y-57877325D01*
X94258168Y-57858818D01*
X94252922Y-57856248D01*
X94212093Y-57833803D01*
X94212092Y-57833802D01*
X94192693Y-57828822D01*
X94174281Y-57822518D01*
X94155898Y-57814562D01*
X94155892Y-57814560D01*
X94109874Y-57807272D01*
X94104152Y-57806087D01*
X94059021Y-57794500D01*
X94059019Y-57794500D01*
X94038984Y-57794500D01*
X94019586Y-57792973D01*
X94012162Y-57791797D01*
X93999805Y-57789840D01*
X93999804Y-57789840D01*
X93953416Y-57794225D01*
X93947578Y-57794500D01*
X82860453Y-57794500D01*
X82793414Y-57774815D01*
X82772772Y-57758181D01*
X81954319Y-56939728D01*
X81920834Y-56878405D01*
X81918000Y-56852047D01*
X81918000Y-56130000D01*
X97630001Y-56130000D01*
X97630001Y-56554986D01*
X97640494Y-56657697D01*
X97695641Y-56824119D01*
X97695643Y-56824124D01*
X97787684Y-56973345D01*
X97911654Y-57097315D01*
X98060875Y-57189356D01*
X98060880Y-57189358D01*
X98227302Y-57244505D01*
X98227309Y-57244506D01*
X98330019Y-57254999D01*
X98529999Y-57254999D01*
X98530000Y-57254998D01*
X98530000Y-56130000D01*
X99030000Y-56130000D01*
X99030000Y-57254999D01*
X99229972Y-57254999D01*
X99229986Y-57254998D01*
X99332697Y-57244505D01*
X99499119Y-57189358D01*
X99499124Y-57189356D01*
X99648345Y-57097315D01*
X99772315Y-56973345D01*
X99864356Y-56824124D01*
X99864358Y-56824119D01*
X99919505Y-56657697D01*
X99919506Y-56657690D01*
X99929999Y-56554986D01*
X99930000Y-56554973D01*
X99930000Y-56130000D01*
X99030000Y-56130000D01*
X98530000Y-56130000D01*
X97630001Y-56130000D01*
X81918000Y-56130000D01*
X81918000Y-56040448D01*
X81937685Y-55973409D01*
X81990489Y-55927654D01*
X82002988Y-55922744D01*
X82011834Y-55919814D01*
X82161156Y-55827712D01*
X82285212Y-55703656D01*
X82377314Y-55554334D01*
X82432499Y-55387797D01*
X82443000Y-55285009D01*
X82443000Y-54860000D01*
X83242501Y-54860000D01*
X83242501Y-55284986D01*
X83252994Y-55387697D01*
X83308141Y-55554119D01*
X83308143Y-55554124D01*
X83400184Y-55703345D01*
X83524154Y-55827315D01*
X83673375Y-55919356D01*
X83673380Y-55919358D01*
X83839802Y-55974505D01*
X83839809Y-55974506D01*
X83942519Y-55984999D01*
X84142499Y-55984999D01*
X84142500Y-55984998D01*
X84142500Y-54860000D01*
X84642500Y-54860000D01*
X84642500Y-55984999D01*
X84842472Y-55984999D01*
X84842486Y-55984998D01*
X84945197Y-55974505D01*
X85111619Y-55919358D01*
X85111624Y-55919356D01*
X85260845Y-55827315D01*
X85384815Y-55703345D01*
X85430055Y-55630000D01*
X97630000Y-55630000D01*
X98530000Y-55630000D01*
X98530000Y-54505000D01*
X99030000Y-54505000D01*
X99030000Y-55630000D01*
X99929999Y-55630000D01*
X99929999Y-55205028D01*
X99929998Y-55205013D01*
X99919505Y-55102302D01*
X99864358Y-54935880D01*
X99864356Y-54935875D01*
X99772315Y-54786654D01*
X99648345Y-54662684D01*
X99499124Y-54570643D01*
X99499119Y-54570641D01*
X99332697Y-54515494D01*
X99332690Y-54515493D01*
X99229986Y-54505000D01*
X99030000Y-54505000D01*
X98530000Y-54505000D01*
X98330029Y-54505000D01*
X98330012Y-54505001D01*
X98227302Y-54515494D01*
X98060880Y-54570641D01*
X98060875Y-54570643D01*
X97911654Y-54662684D01*
X97787684Y-54786654D01*
X97695643Y-54935875D01*
X97695641Y-54935880D01*
X97640494Y-55102302D01*
X97640493Y-55102309D01*
X97630000Y-55205013D01*
X97630000Y-55630000D01*
X85430055Y-55630000D01*
X85476856Y-55554124D01*
X85476858Y-55554119D01*
X85532005Y-55387697D01*
X85532006Y-55387690D01*
X85542499Y-55284986D01*
X85542500Y-55284973D01*
X85542500Y-54860000D01*
X84642500Y-54860000D01*
X84142500Y-54860000D01*
X83242501Y-54860000D01*
X82443000Y-54860000D01*
X82442999Y-54360000D01*
X83242500Y-54360000D01*
X84142500Y-54360000D01*
X84142500Y-53235000D01*
X84642500Y-53235000D01*
X84642500Y-54360000D01*
X85542499Y-54360000D01*
X85542499Y-53935028D01*
X85542498Y-53935013D01*
X85532005Y-53832302D01*
X85476858Y-53665880D01*
X85476856Y-53665875D01*
X85384815Y-53516654D01*
X85260845Y-53392684D01*
X85111624Y-53300643D01*
X85111619Y-53300641D01*
X84945197Y-53245494D01*
X84945190Y-53245493D01*
X84842486Y-53235000D01*
X84642500Y-53235000D01*
X84142500Y-53235000D01*
X83942529Y-53235000D01*
X83942512Y-53235001D01*
X83839802Y-53245494D01*
X83673380Y-53300641D01*
X83673375Y-53300643D01*
X83524154Y-53392684D01*
X83400184Y-53516654D01*
X83308143Y-53665875D01*
X83308141Y-53665880D01*
X83252994Y-53832302D01*
X83252993Y-53832309D01*
X83242500Y-53935013D01*
X83242500Y-54360000D01*
X82442999Y-54360000D01*
X82442999Y-53934992D01*
X82442633Y-53931413D01*
X82432499Y-53832203D01*
X82432498Y-53832200D01*
X82431228Y-53828367D01*
X82377314Y-53665666D01*
X82285212Y-53516344D01*
X82161156Y-53392288D01*
X82011834Y-53300186D01*
X82011833Y-53300185D01*
X82011832Y-53300185D01*
X82002993Y-53297256D01*
X81945549Y-53257482D01*
X81918728Y-53192965D01*
X81918000Y-53179551D01*
X81918000Y-52230448D01*
X81937685Y-52163409D01*
X81990489Y-52117654D01*
X82002988Y-52112744D01*
X82011834Y-52109814D01*
X82161156Y-52017712D01*
X82285212Y-51893656D01*
X82377314Y-51744334D01*
X82432499Y-51577797D01*
X82443000Y-51475009D01*
X82442999Y-50124992D01*
X82440651Y-50102011D01*
X82432499Y-50022203D01*
X82432498Y-50022200D01*
X82377314Y-49855666D01*
X82285212Y-49706344D01*
X82161156Y-49582288D01*
X82038585Y-49506686D01*
X82011836Y-49490187D01*
X82011831Y-49490185D01*
X81989982Y-49482945D01*
X81845297Y-49435001D01*
X81845295Y-49435000D01*
X81742510Y-49424500D01*
X80842498Y-49424500D01*
X80842480Y-49424501D01*
X80739703Y-49435000D01*
X80739700Y-49435001D01*
X80573168Y-49490185D01*
X80573163Y-49490187D01*
X80423842Y-49582289D01*
X80299789Y-49706342D01*
X80207687Y-49855663D01*
X80207685Y-49855668D01*
X80183380Y-49929016D01*
X80152501Y-50022203D01*
X80152501Y-50022204D01*
X80152500Y-50022204D01*
X80142000Y-50124983D01*
X80142000Y-51475001D01*
X80142001Y-51475018D01*
X80152500Y-51577796D01*
X80152501Y-51577799D01*
X80201099Y-51724457D01*
X80207686Y-51744334D01*
X80299788Y-51893656D01*
X80423844Y-52017712D01*
X80573166Y-52109814D01*
X80581998Y-52112740D01*
X80639444Y-52152508D01*
X80666271Y-52217022D01*
X80667000Y-52230448D01*
X80667000Y-53179551D01*
X80647315Y-53246590D01*
X80594511Y-53292345D01*
X80582007Y-53297256D01*
X80573167Y-53300185D01*
X80423842Y-53392289D01*
X80299789Y-53516342D01*
X80207687Y-53665663D01*
X80207685Y-53665668D01*
X80192290Y-53712127D01*
X80152501Y-53832203D01*
X80152501Y-53832204D01*
X80152500Y-53832204D01*
X80142000Y-53934983D01*
X80142000Y-55285001D01*
X80142001Y-55285018D01*
X80152500Y-55387796D01*
X80152501Y-55387799D01*
X80202916Y-55539939D01*
X80207686Y-55554334D01*
X80299788Y-55703656D01*
X80423844Y-55827712D01*
X80573166Y-55919814D01*
X80581998Y-55922740D01*
X80639444Y-55962508D01*
X80666271Y-56027022D01*
X80667000Y-56040448D01*
X80667000Y-57011332D01*
X80664014Y-57038380D01*
X80652326Y-57090668D01*
X80652326Y-57090669D01*
X80652583Y-57098840D01*
X80651119Y-57122118D01*
X80649840Y-57130196D01*
X80649840Y-57130198D01*
X80655242Y-57187352D01*
X80655487Y-57191239D01*
X80657290Y-57248627D01*
X80659570Y-57256472D01*
X80663943Y-57279392D01*
X80664712Y-57287531D01*
X80684161Y-57341553D01*
X80685364Y-57345257D01*
X80701381Y-57400389D01*
X80701382Y-57400392D01*
X80705543Y-57407428D01*
X80715477Y-57428537D01*
X80718246Y-57436227D01*
X80718247Y-57436230D01*
X80750513Y-57483708D01*
X80752600Y-57486996D01*
X80754267Y-57489814D01*
X80781830Y-57536420D01*
X80781833Y-57536423D01*
X80787602Y-57542192D01*
X80802476Y-57560170D01*
X80807076Y-57566938D01*
X80807082Y-57566943D01*
X80850146Y-57604909D01*
X80852970Y-57607560D01*
X81751091Y-58505682D01*
X82049197Y-58803788D01*
X82059022Y-58816051D01*
X82059243Y-58815869D01*
X82064214Y-58821878D01*
X82090217Y-58846295D01*
X82114635Y-58869226D01*
X82135529Y-58890120D01*
X82141011Y-58894373D01*
X82145443Y-58898157D01*
X82179418Y-58930062D01*
X82196976Y-58939714D01*
X82213235Y-58950395D01*
X82229064Y-58962673D01*
X82271838Y-58981182D01*
X82277056Y-58983738D01*
X82317908Y-59006197D01*
X82337316Y-59011180D01*
X82355717Y-59017480D01*
X82374104Y-59025437D01*
X82417488Y-59032308D01*
X82420119Y-59032725D01*
X82425839Y-59033909D01*
X82470981Y-59045500D01*
X82491016Y-59045500D01*
X82510414Y-59047026D01*
X82530194Y-59050159D01*
X82530195Y-59050160D01*
X82530195Y-59050159D01*
X82530196Y-59050160D01*
X82576584Y-59045775D01*
X82582422Y-59045500D01*
X93669548Y-59045500D01*
X93736587Y-59065185D01*
X93757229Y-59081819D01*
X94588181Y-59912771D01*
X94621666Y-59974094D01*
X94624500Y-60000452D01*
X94624500Y-62601100D01*
X94604815Y-62668139D01*
X94552011Y-62713894D01*
X94482853Y-62723838D01*
X94419297Y-62694813D01*
X94382794Y-62640104D01*
X94368919Y-62598232D01*
X94354814Y-62555666D01*
X94282929Y-62439124D01*
X94262713Y-62406348D01*
X94262710Y-62406344D01*
X94138655Y-62282289D01*
X94138651Y-62282286D01*
X93989337Y-62190187D01*
X93989335Y-62190186D01*
X93860462Y-62147482D01*
X93822797Y-62135001D01*
X93822795Y-62135000D01*
X93720015Y-62124500D01*
X93720008Y-62124500D01*
X92874019Y-62124500D01*
X92806980Y-62104815D01*
X92786338Y-62088181D01*
X92471546Y-61773389D01*
X92156598Y-61458441D01*
X92154064Y-61455750D01*
X92112929Y-61409317D01*
X92112928Y-61409316D01*
X92112924Y-61409312D01*
X92061896Y-61374091D01*
X92058887Y-61371877D01*
X92027786Y-61347512D01*
X92010060Y-61333624D01*
X92010055Y-61333620D01*
X92000813Y-61329461D01*
X91981266Y-61318436D01*
X91972931Y-61312683D01*
X91972932Y-61312683D01*
X91972930Y-61312682D01*
X91914941Y-61290689D01*
X91911490Y-61289259D01*
X91854930Y-61263804D01*
X91844946Y-61261974D01*
X91823343Y-61255951D01*
X91813874Y-61252360D01*
X91813870Y-61252359D01*
X91752313Y-61244884D01*
X91748612Y-61244321D01*
X91687608Y-61233142D01*
X91687603Y-61233142D01*
X91625697Y-61236887D01*
X91621952Y-61237000D01*
X76118348Y-61237000D01*
X76051309Y-61217315D01*
X76012809Y-61178097D01*
X75937712Y-61056344D01*
X75813656Y-60932288D01*
X75720888Y-60875069D01*
X75664336Y-60840187D01*
X75664331Y-60840185D01*
X75497792Y-60784999D01*
X75495963Y-60784608D01*
X75494944Y-60784056D01*
X75491371Y-60782872D01*
X75491582Y-60782234D01*
X75434533Y-60751319D01*
X75400853Y-60690103D01*
X75399965Y-60685708D01*
X75393589Y-60650917D01*
X75388175Y-60621375D01*
X75387613Y-60617673D01*
X75380140Y-60556127D01*
X75376548Y-60546656D01*
X75370522Y-60525042D01*
X75368695Y-60515068D01*
X75343234Y-60458496D01*
X75341806Y-60455049D01*
X75319818Y-60397071D01*
X75319818Y-60397070D01*
X75314063Y-60388733D01*
X75303036Y-60369182D01*
X75298879Y-60359946D01*
X75298878Y-60359943D01*
X75269195Y-60322055D01*
X75260630Y-60311122D01*
X75258410Y-60308106D01*
X75223182Y-60257070D01*
X75218148Y-60252610D01*
X75176750Y-60215935D01*
X75174056Y-60213399D01*
X74396819Y-59436162D01*
X74363334Y-59374839D01*
X74360500Y-59348481D01*
X74360500Y-57508957D01*
X74380185Y-57441918D01*
X74419407Y-57403416D01*
X74428656Y-57397712D01*
X74552712Y-57273656D01*
X74644814Y-57124334D01*
X74699999Y-56957797D01*
X74710500Y-56855009D01*
X74710500Y-56704500D01*
X74730185Y-56637461D01*
X74782989Y-56591706D01*
X74834500Y-56580500D01*
X74906952Y-56580500D01*
X74910697Y-56580613D01*
X74918042Y-56581057D01*
X74972606Y-56584358D01*
X75010314Y-56577447D01*
X75033621Y-56573177D01*
X75037325Y-56572613D01*
X75055170Y-56570446D01*
X75098872Y-56565140D01*
X75108335Y-56561550D01*
X75129961Y-56555522D01*
X75132711Y-56555018D01*
X75139932Y-56553695D01*
X75196512Y-56528229D01*
X75199942Y-56526809D01*
X75257930Y-56504818D01*
X75266266Y-56499062D01*
X75285821Y-56488034D01*
X75295057Y-56483878D01*
X75343896Y-56445613D01*
X75346876Y-56443421D01*
X75397929Y-56408183D01*
X75439065Y-56361748D01*
X75441599Y-56359056D01*
X76679056Y-55121599D01*
X76681748Y-55119065D01*
X76728183Y-55077929D01*
X76763436Y-55026855D01*
X76765613Y-55023896D01*
X76803878Y-54975057D01*
X76808037Y-54965815D01*
X76819062Y-54946268D01*
X76824818Y-54937930D01*
X76846820Y-54879912D01*
X76848235Y-54876495D01*
X76873694Y-54819932D01*
X76875520Y-54809965D01*
X76881548Y-54788340D01*
X76885140Y-54778872D01*
X76892615Y-54717309D01*
X76893179Y-54713605D01*
X76900399Y-54674202D01*
X76904357Y-54652606D01*
X76900613Y-54590707D01*
X76900500Y-54586963D01*
X76900500Y-52411518D01*
X76920185Y-52344479D01*
X76936814Y-52323842D01*
X80833838Y-48426817D01*
X80895161Y-48393333D01*
X80921519Y-48390499D01*
X81638480Y-48390499D01*
X81705519Y-48410184D01*
X81726161Y-48426818D01*
X82118399Y-48819056D01*
X82120935Y-48821750D01*
X82162071Y-48868183D01*
X82187159Y-48885500D01*
X82213110Y-48903413D01*
X82216127Y-48905633D01*
X82264938Y-48943874D01*
X82264943Y-48943877D01*
X82274174Y-48948031D01*
X82293727Y-48959059D01*
X82302070Y-48964818D01*
X82360044Y-48986804D01*
X82360057Y-48986809D01*
X82363508Y-48988238D01*
X82393093Y-49001553D01*
X82420063Y-49013692D01*
X82420064Y-49013692D01*
X82420068Y-49013694D01*
X82430030Y-49015519D01*
X82451651Y-49021546D01*
X82451667Y-49021552D01*
X82461128Y-49025140D01*
X82477871Y-49027173D01*
X82522689Y-49032615D01*
X82526386Y-49033177D01*
X82587394Y-49044357D01*
X82587395Y-49044356D01*
X82587396Y-49044357D01*
X82649293Y-49040613D01*
X82653037Y-49040500D01*
X85084402Y-49040500D01*
X85088147Y-49040613D01*
X85095492Y-49041057D01*
X85150056Y-49044358D01*
X85187764Y-49037447D01*
X85211071Y-49033177D01*
X85214775Y-49032613D01*
X85232620Y-49030446D01*
X85276322Y-49025140D01*
X85285785Y-49021550D01*
X85307411Y-49015522D01*
X85308343Y-49015351D01*
X85317382Y-49013695D01*
X85373962Y-48988229D01*
X85377392Y-48986809D01*
X85425521Y-48968557D01*
X85469489Y-48960500D01*
X87541557Y-48960500D01*
X87608596Y-48980185D01*
X87654351Y-49032989D01*
X87664496Y-49068316D01*
X87678516Y-49174820D01*
X87675763Y-49175182D01*
X87674417Y-49231506D01*
X87643990Y-49281418D01*
X86787228Y-50138181D01*
X86725905Y-50171666D01*
X86699547Y-50174500D01*
X85660035Y-50174500D01*
X85592996Y-50154815D01*
X85547241Y-50102011D01*
X85536677Y-50063102D01*
X85533488Y-50031888D01*
X85532499Y-50022203D01*
X85477314Y-49855666D01*
X85385212Y-49706344D01*
X85261156Y-49582288D01*
X85138585Y-49506686D01*
X85111836Y-49490187D01*
X85111831Y-49490185D01*
X85089982Y-49482945D01*
X84945297Y-49435001D01*
X84945295Y-49435000D01*
X84842510Y-49424500D01*
X83942498Y-49424500D01*
X83942480Y-49424501D01*
X83839703Y-49435000D01*
X83839700Y-49435001D01*
X83673168Y-49490185D01*
X83673163Y-49490187D01*
X83523842Y-49582289D01*
X83399789Y-49706342D01*
X83307687Y-49855663D01*
X83307685Y-49855668D01*
X83283380Y-49929016D01*
X83252501Y-50022203D01*
X83252501Y-50022204D01*
X83252500Y-50022204D01*
X83242000Y-50124983D01*
X83242000Y-51475001D01*
X83242001Y-51475018D01*
X83252500Y-51577796D01*
X83252501Y-51577799D01*
X83301099Y-51724457D01*
X83307686Y-51744334D01*
X83399788Y-51893656D01*
X83523844Y-52017712D01*
X83673166Y-52109814D01*
X83839703Y-52164999D01*
X83942491Y-52175500D01*
X84842508Y-52175499D01*
X84842516Y-52175498D01*
X84842519Y-52175498D01*
X84898802Y-52169748D01*
X84945297Y-52164999D01*
X85111834Y-52109814D01*
X85261156Y-52017712D01*
X85385212Y-51893656D01*
X85477314Y-51744334D01*
X85532499Y-51577797D01*
X85536677Y-51536896D01*
X85563073Y-51472207D01*
X85620253Y-51432055D01*
X85660035Y-51425500D01*
X86927257Y-51425500D01*
X86942877Y-51427224D01*
X86942904Y-51426939D01*
X86950660Y-51427671D01*
X86950667Y-51427673D01*
X87019814Y-51425500D01*
X87049350Y-51425500D01*
X87056228Y-51424630D01*
X87062041Y-51424172D01*
X87108627Y-51422709D01*
X87127869Y-51417117D01*
X87146912Y-51413174D01*
X87166792Y-51410664D01*
X87210122Y-51393507D01*
X87215646Y-51391617D01*
X87219396Y-51390527D01*
X87260390Y-51378618D01*
X87277629Y-51368422D01*
X87295103Y-51359862D01*
X87313727Y-51352488D01*
X87313727Y-51352487D01*
X87313732Y-51352486D01*
X87351449Y-51325082D01*
X87356305Y-51321892D01*
X87396420Y-51298170D01*
X87410589Y-51283999D01*
X87425379Y-51271368D01*
X87441587Y-51259594D01*
X87471299Y-51223676D01*
X87475212Y-51219376D01*
X89047771Y-49646818D01*
X89109094Y-49613333D01*
X89135452Y-49610499D01*
X89576863Y-49610499D01*
X89694253Y-49595046D01*
X89694257Y-49595044D01*
X89694262Y-49595044D01*
X89840341Y-49534536D01*
X89965782Y-49438282D01*
X90062036Y-49312841D01*
X90122544Y-49166762D01*
X90138000Y-49049363D01*
X93387000Y-49049363D01*
X93402453Y-49166753D01*
X93402456Y-49166762D01*
X93422083Y-49214147D01*
X93462964Y-49312841D01*
X93559218Y-49438282D01*
X93684659Y-49534536D01*
X93830738Y-49595044D01*
X93948139Y-49610500D01*
X94389547Y-49610499D01*
X94456586Y-49630183D01*
X94477228Y-49646818D01*
X94588181Y-49757771D01*
X94621666Y-49819094D01*
X94624500Y-49845452D01*
X94624500Y-50717255D01*
X94622775Y-50732872D01*
X94623061Y-50732899D01*
X94622326Y-50740665D01*
X94624500Y-50809814D01*
X94624500Y-50839343D01*
X94624501Y-50839360D01*
X94625368Y-50846231D01*
X94625826Y-50852050D01*
X94627290Y-50898624D01*
X94627291Y-50898627D01*
X94632880Y-50917867D01*
X94636824Y-50936911D01*
X94639336Y-50956792D01*
X94656490Y-51000119D01*
X94658382Y-51005647D01*
X94671381Y-51050388D01*
X94681580Y-51067634D01*
X94690138Y-51085103D01*
X94697514Y-51103732D01*
X94724898Y-51141423D01*
X94728106Y-51146307D01*
X94751827Y-51186416D01*
X94751833Y-51186424D01*
X94765990Y-51200580D01*
X94778628Y-51215376D01*
X94790405Y-51231586D01*
X94790406Y-51231587D01*
X94826309Y-51261288D01*
X94830620Y-51265210D01*
X95728818Y-52163409D01*
X96019197Y-52453788D01*
X96029022Y-52466051D01*
X96029243Y-52465869D01*
X96034214Y-52471878D01*
X96057439Y-52493687D01*
X96084635Y-52519226D01*
X96105529Y-52540120D01*
X96111011Y-52544373D01*
X96115443Y-52548157D01*
X96149418Y-52580062D01*
X96166976Y-52589714D01*
X96183235Y-52600395D01*
X96199064Y-52612673D01*
X96241838Y-52631182D01*
X96247056Y-52633738D01*
X96287908Y-52656197D01*
X96307316Y-52661180D01*
X96325717Y-52667480D01*
X96344104Y-52675437D01*
X96387488Y-52682308D01*
X96390119Y-52682725D01*
X96395839Y-52683909D01*
X96440981Y-52695500D01*
X96461016Y-52695500D01*
X96480414Y-52697026D01*
X96500194Y-52700159D01*
X96500195Y-52700160D01*
X96500195Y-52700159D01*
X96500196Y-52700160D01*
X96546584Y-52695775D01*
X96552422Y-52695500D01*
X97512465Y-52695500D01*
X97579504Y-52715185D01*
X97625259Y-52767989D01*
X97635823Y-52806898D01*
X97640001Y-52847797D01*
X97640001Y-52847799D01*
X97695185Y-53014331D01*
X97695186Y-53014334D01*
X97787288Y-53163656D01*
X97911344Y-53287712D01*
X98060666Y-53379814D01*
X98227203Y-53434999D01*
X98329991Y-53445500D01*
X99230008Y-53445499D01*
X99230016Y-53445498D01*
X99230019Y-53445498D01*
X99286302Y-53439748D01*
X99332797Y-53434999D01*
X99499334Y-53379814D01*
X99648656Y-53287712D01*
X99772712Y-53163656D01*
X99864814Y-53014334D01*
X99919999Y-52847797D01*
X99930500Y-52745009D01*
X99930499Y-51394992D01*
X99926910Y-51359862D01*
X99919999Y-51292203D01*
X99919998Y-51292200D01*
X99899912Y-51231586D01*
X99864814Y-51125666D01*
X99772712Y-50976344D01*
X99648656Y-50852288D01*
X99499334Y-50760186D01*
X99332797Y-50705001D01*
X99332795Y-50705000D01*
X99230010Y-50694500D01*
X98329998Y-50694500D01*
X98329980Y-50694501D01*
X98227203Y-50705000D01*
X98227200Y-50705001D01*
X98060668Y-50760185D01*
X98060663Y-50760187D01*
X97911342Y-50852289D01*
X97787289Y-50976342D01*
X97736397Y-51058852D01*
X97684449Y-51105576D01*
X97615486Y-51116799D01*
X97551404Y-51088955D01*
X97512548Y-51030886D01*
X97507455Y-50981601D01*
X97507973Y-50976342D01*
X97522596Y-50827861D01*
X97548757Y-50763077D01*
X97558309Y-50752346D01*
X98235097Y-50075558D01*
X98237789Y-50073024D01*
X98284224Y-50031888D01*
X98319462Y-49980835D01*
X98321654Y-49977855D01*
X98359919Y-49929016D01*
X98364075Y-49919780D01*
X98375103Y-49900225D01*
X98380859Y-49891889D01*
X98402853Y-49833890D01*
X98404268Y-49830474D01*
X98429736Y-49773890D01*
X98431563Y-49763918D01*
X98437587Y-49742306D01*
X98441181Y-49732831D01*
X98448654Y-49671283D01*
X98449218Y-49667578D01*
X98453022Y-49646818D01*
X98460399Y-49606565D01*
X98456654Y-49544655D01*
X98456541Y-49540910D01*
X98456541Y-45903841D01*
X98462157Y-45866946D01*
X98463691Y-45862018D01*
X98463694Y-45862014D01*
X98465520Y-45852047D01*
X98471548Y-45830422D01*
X98475140Y-45820954D01*
X98482615Y-45759391D01*
X98483179Y-45755687D01*
X98489150Y-45723100D01*
X98494357Y-45694688D01*
X98493939Y-45687783D01*
X98490613Y-45632789D01*
X98490500Y-45629045D01*
X98490500Y-44992500D01*
X100200001Y-44992500D01*
X100200001Y-45204986D01*
X100210494Y-45307697D01*
X100265641Y-45474119D01*
X100265643Y-45474124D01*
X100357684Y-45623345D01*
X100481654Y-45747315D01*
X100630875Y-45839356D01*
X100630880Y-45839358D01*
X100797302Y-45894505D01*
X100797309Y-45894506D01*
X100900019Y-45904999D01*
X101349999Y-45904999D01*
X101350000Y-45904998D01*
X101350000Y-44992500D01*
X101850000Y-44992500D01*
X101850000Y-45904999D01*
X102299972Y-45904999D01*
X102299986Y-45904998D01*
X102402697Y-45894505D01*
X102569119Y-45839358D01*
X102569124Y-45839356D01*
X102718345Y-45747315D01*
X102842315Y-45623345D01*
X102934356Y-45474124D01*
X102934358Y-45474119D01*
X102989505Y-45307697D01*
X102989506Y-45307690D01*
X102999999Y-45204986D01*
X103000000Y-45204973D01*
X103000000Y-44992500D01*
X101850000Y-44992500D01*
X101350000Y-44992500D01*
X100200001Y-44992500D01*
X98490500Y-44992500D01*
X98490500Y-44492500D01*
X100200000Y-44492500D01*
X101350000Y-44492500D01*
X101350000Y-43580000D01*
X101850000Y-43580000D01*
X101850000Y-44492500D01*
X102999999Y-44492500D01*
X102999999Y-44280028D01*
X102999998Y-44280013D01*
X102989505Y-44177302D01*
X102934358Y-44010880D01*
X102934356Y-44010875D01*
X102842315Y-43861654D01*
X102718345Y-43737684D01*
X102569124Y-43645643D01*
X102569119Y-43645641D01*
X102402697Y-43590494D01*
X102402690Y-43590493D01*
X102299986Y-43580000D01*
X101850000Y-43580000D01*
X101350000Y-43580000D01*
X100900028Y-43580000D01*
X100900012Y-43580001D01*
X100797302Y-43590494D01*
X100630880Y-43645641D01*
X100630875Y-43645643D01*
X100481654Y-43737684D01*
X100357684Y-43861654D01*
X100265643Y-44010875D01*
X100265641Y-44010880D01*
X100210494Y-44177302D01*
X100210493Y-44177309D01*
X100200000Y-44280013D01*
X100200000Y-44492500D01*
X98490500Y-44492500D01*
X98490500Y-43521519D01*
X98510185Y-43454480D01*
X98526819Y-43433838D01*
X99606338Y-42354319D01*
X99667661Y-42320834D01*
X99694019Y-42318000D01*
X100176652Y-42318000D01*
X100243691Y-42337685D01*
X100282189Y-42376901D01*
X100357288Y-42498656D01*
X100481344Y-42622712D01*
X100630666Y-42714814D01*
X100797203Y-42769999D01*
X100899991Y-42780500D01*
X102300008Y-42780499D01*
X102402797Y-42769999D01*
X102569334Y-42714814D01*
X102718656Y-42622712D01*
X102842712Y-42498656D01*
X102917809Y-42376902D01*
X102969757Y-42330179D01*
X103023348Y-42318000D01*
X106525501Y-42318000D01*
X106592540Y-42337685D01*
X106638295Y-42390489D01*
X106649501Y-42442000D01*
X106649501Y-42757876D01*
X106655908Y-42817483D01*
X106706202Y-42952328D01*
X106706206Y-42952335D01*
X106792452Y-43067544D01*
X106792455Y-43067547D01*
X106907664Y-43153793D01*
X106907671Y-43153797D01*
X106952618Y-43170561D01*
X107042517Y-43204091D01*
X107102127Y-43210500D01*
X107102153Y-43210499D01*
X107105453Y-43210678D01*
X107105372Y-43212183D01*
X107166672Y-43230112D01*
X107212483Y-43282867D01*
X107220016Y-43326463D01*
X107905600Y-44012046D01*
X107824852Y-44024835D01*
X107711955Y-44082359D01*
X107622359Y-44171955D01*
X107564835Y-44284852D01*
X107552046Y-44365599D01*
X106870973Y-43684526D01*
X106870972Y-43684527D01*
X106819868Y-43757513D01*
X106723734Y-43963673D01*
X106723730Y-43963682D01*
X106664860Y-44183389D01*
X106664858Y-44183400D01*
X106645034Y-44409997D01*
X106645034Y-44410002D01*
X106664858Y-44636599D01*
X106664860Y-44636610D01*
X106723730Y-44856317D01*
X106723734Y-44856326D01*
X106819865Y-45062481D01*
X106819866Y-45062483D01*
X106870973Y-45135471D01*
X106870974Y-45135472D01*
X107552046Y-44454399D01*
X107564835Y-44535148D01*
X107622359Y-44648045D01*
X107711955Y-44737641D01*
X107824852Y-44795165D01*
X107905599Y-44807953D01*
X107224526Y-45489025D01*
X107224526Y-45489026D01*
X107297512Y-45540131D01*
X107297516Y-45540133D01*
X107503673Y-45636265D01*
X107503682Y-45636269D01*
X107723389Y-45695139D01*
X107723400Y-45695141D01*
X107949998Y-45714966D01*
X107950002Y-45714966D01*
X108176599Y-45695141D01*
X108176610Y-45695139D01*
X108396317Y-45636269D01*
X108396331Y-45636264D01*
X108602478Y-45540136D01*
X108675472Y-45489025D01*
X107994401Y-44807953D01*
X108075148Y-44795165D01*
X108188045Y-44737641D01*
X108277641Y-44648045D01*
X108335165Y-44535148D01*
X108347953Y-44454400D01*
X109029025Y-45135472D01*
X109080136Y-45062478D01*
X109176264Y-44856331D01*
X109176269Y-44856317D01*
X109235139Y-44636610D01*
X109235141Y-44636599D01*
X109254966Y-44410002D01*
X109254966Y-44409997D01*
X109235141Y-44183400D01*
X109235139Y-44183389D01*
X109176269Y-43963682D01*
X109176265Y-43963673D01*
X109080133Y-43757516D01*
X109080131Y-43757512D01*
X109029026Y-43684526D01*
X109029025Y-43684526D01*
X108347953Y-44365598D01*
X108335165Y-44284852D01*
X108277641Y-44171955D01*
X108188045Y-44082359D01*
X108075148Y-44024835D01*
X107994400Y-44012046D01*
X108680646Y-43325799D01*
X108690492Y-43276807D01*
X108739107Y-43226624D01*
X108794633Y-43211981D01*
X108794576Y-43210900D01*
X108794571Y-43210854D01*
X108794573Y-43210853D01*
X108794564Y-43210676D01*
X108797857Y-43210499D01*
X108797872Y-43210499D01*
X108857483Y-43204091D01*
X108992331Y-43153796D01*
X109107546Y-43067546D01*
X109193796Y-42952331D01*
X109244091Y-42817483D01*
X109250500Y-42757873D01*
X109250499Y-41062128D01*
X109244091Y-41002517D01*
X109242571Y-40998443D01*
X109193797Y-40867671D01*
X109193793Y-40867664D01*
X109107547Y-40752455D01*
X109107544Y-40752452D01*
X108992335Y-40666206D01*
X108992328Y-40666202D01*
X108857482Y-40615908D01*
X108857483Y-40615908D01*
X108797883Y-40609501D01*
X108797881Y-40609500D01*
X108797873Y-40609500D01*
X108797864Y-40609500D01*
X107102129Y-40609500D01*
X107102123Y-40609501D01*
X107042516Y-40615908D01*
X106907671Y-40666202D01*
X106907664Y-40666206D01*
X106792455Y-40752452D01*
X106792452Y-40752455D01*
X106706471Y-40867311D01*
X106650537Y-40909182D01*
X106607205Y-40917000D01*
X103023348Y-40917000D01*
X102956309Y-40897315D01*
X102917809Y-40858097D01*
X102852649Y-40752455D01*
X102842712Y-40736344D01*
X102718656Y-40612288D01*
X102569334Y-40520186D01*
X102402797Y-40465001D01*
X102402795Y-40465000D01*
X102300010Y-40454500D01*
X100899998Y-40454500D01*
X100899981Y-40454501D01*
X100797203Y-40465000D01*
X100797200Y-40465001D01*
X100630668Y-40520185D01*
X100630663Y-40520187D01*
X100481342Y-40612289D01*
X100357289Y-40736342D01*
X100282191Y-40858097D01*
X100230243Y-40904821D01*
X100176652Y-40917000D01*
X99375548Y-40917000D01*
X99371803Y-40916887D01*
X99309896Y-40913142D01*
X99309889Y-40913142D01*
X99248886Y-40924321D01*
X99245185Y-40924884D01*
X99183628Y-40932359D01*
X99183621Y-40932361D01*
X99174147Y-40935954D01*
X99152549Y-40941975D01*
X99142569Y-40943804D01*
X99086019Y-40969255D01*
X99082560Y-40970688D01*
X99024571Y-40992681D01*
X99024566Y-40992684D01*
X99016222Y-40998443D01*
X98996687Y-41009461D01*
X98987447Y-41013620D01*
X98987445Y-41013621D01*
X98938636Y-41051859D01*
X98935622Y-41054076D01*
X98884570Y-41089317D01*
X98884568Y-41089318D01*
X98843442Y-41135740D01*
X98840875Y-41138466D01*
X97310966Y-42668375D01*
X97308240Y-42670942D01*
X97261818Y-42712068D01*
X97226586Y-42763109D01*
X97224368Y-42766124D01*
X97186124Y-42814939D01*
X97186119Y-42814948D01*
X97181960Y-42824188D01*
X97170942Y-42843723D01*
X97165187Y-42852061D01*
X97165183Y-42852067D01*
X97165182Y-42852070D01*
X97165180Y-42852074D01*
X97165179Y-42852077D01*
X97143189Y-42910055D01*
X97141757Y-42913513D01*
X97116305Y-42970068D01*
X97114477Y-42980042D01*
X97108453Y-43001653D01*
X97104860Y-43011127D01*
X97104859Y-43011128D01*
X97097384Y-43072685D01*
X97096821Y-43076386D01*
X97085642Y-43137390D01*
X97085642Y-43137395D01*
X97089387Y-43199302D01*
X97089500Y-43203047D01*
X97089500Y-43526894D01*
X97069815Y-43593933D01*
X97017011Y-43639688D01*
X96947853Y-43649632D01*
X96915065Y-43640174D01*
X96799802Y-43588855D01*
X96654001Y-43557865D01*
X96614646Y-43549500D01*
X96425354Y-43549500D01*
X96392897Y-43556398D01*
X96240197Y-43588855D01*
X96240192Y-43588857D01*
X96067270Y-43665848D01*
X96067265Y-43665851D01*
X95914129Y-43777111D01*
X95787466Y-43917785D01*
X95692821Y-44081715D01*
X95692818Y-44081722D01*
X95632318Y-44267924D01*
X95629572Y-44267031D01*
X95602308Y-44317433D01*
X95541117Y-44351159D01*
X95471406Y-44346450D01*
X95466830Y-44344659D01*
X95419265Y-44324957D01*
X95419260Y-44324955D01*
X95301870Y-44309501D01*
X95301867Y-44309500D01*
X95301861Y-44309500D01*
X95301854Y-44309500D01*
X93948136Y-44309500D01*
X93830746Y-44324953D01*
X93830737Y-44324956D01*
X93684660Y-44385463D01*
X93559218Y-44481718D01*
X93462963Y-44607160D01*
X93402456Y-44753237D01*
X93402455Y-44753239D01*
X93387000Y-44870638D01*
X93387000Y-45149363D01*
X93402453Y-45266753D01*
X93402457Y-45266765D01*
X93411066Y-45287550D01*
X93418533Y-45357019D01*
X93411066Y-45382450D01*
X93402457Y-45403234D01*
X93402455Y-45403239D01*
X93387000Y-45520638D01*
X93387000Y-45799363D01*
X93402453Y-45916753D01*
X93402457Y-45916765D01*
X93411066Y-45937550D01*
X93418533Y-46007019D01*
X93411066Y-46032450D01*
X93402457Y-46053234D01*
X93402455Y-46053239D01*
X93387000Y-46170638D01*
X93387000Y-46449363D01*
X93402453Y-46566753D01*
X93402457Y-46566765D01*
X93411066Y-46587550D01*
X93418533Y-46657019D01*
X93411066Y-46682450D01*
X93402457Y-46703234D01*
X93402455Y-46703239D01*
X93387000Y-46820638D01*
X93387000Y-47099363D01*
X93402453Y-47216753D01*
X93402456Y-47216762D01*
X93411337Y-47238203D01*
X93418804Y-47307673D01*
X93411338Y-47333103D01*
X93402943Y-47353370D01*
X93395487Y-47410000D01*
X93438000Y-47410000D01*
X93505039Y-47429685D01*
X93536375Y-47458513D01*
X93546788Y-47472083D01*
X93559218Y-47488282D01*
X93589640Y-47511625D01*
X93630841Y-47568052D01*
X93634996Y-47637798D01*
X93600783Y-47698719D01*
X93589646Y-47708369D01*
X93559218Y-47731718D01*
X93559217Y-47731719D01*
X93559216Y-47731720D01*
X93536375Y-47761487D01*
X93479947Y-47802690D01*
X93438000Y-47810000D01*
X93395490Y-47810000D01*
X93395488Y-47810001D01*
X93402941Y-47866622D01*
X93402945Y-47866634D01*
X93411337Y-47886895D01*
X93418804Y-47956364D01*
X93411338Y-47981794D01*
X93402456Y-48003238D01*
X93402455Y-48003239D01*
X93387000Y-48120638D01*
X93387000Y-48399363D01*
X93402453Y-48516753D01*
X93402457Y-48516765D01*
X93411066Y-48537550D01*
X93418533Y-48607019D01*
X93411066Y-48632450D01*
X93402457Y-48653234D01*
X93402455Y-48653239D01*
X93387000Y-48770638D01*
X93387000Y-49049363D01*
X90138000Y-49049363D01*
X90138000Y-49049361D01*
X90137999Y-48770640D01*
X90122544Y-48653238D01*
X90122542Y-48653234D01*
X90113935Y-48632455D01*
X90106465Y-48562986D01*
X90113935Y-48537545D01*
X90122544Y-48516762D01*
X90138000Y-48399361D01*
X90137999Y-48120640D01*
X90137999Y-48120638D01*
X90137999Y-48120636D01*
X90122546Y-48003246D01*
X90122544Y-48003239D01*
X90122544Y-48003238D01*
X90113662Y-47981797D01*
X90106194Y-47912328D01*
X90113664Y-47886890D01*
X90122055Y-47866632D01*
X90122055Y-47866630D01*
X90129512Y-47810000D01*
X90087000Y-47810000D01*
X90019961Y-47790315D01*
X89988625Y-47761487D01*
X89965783Y-47731719D01*
X89965782Y-47731718D01*
X89935360Y-47708374D01*
X89894158Y-47651949D01*
X89890003Y-47582203D01*
X89924214Y-47521282D01*
X89935351Y-47511631D01*
X89965782Y-47488282D01*
X89978212Y-47472083D01*
X89988625Y-47458513D01*
X90045053Y-47417310D01*
X90087000Y-47410000D01*
X90129510Y-47410000D01*
X90129511Y-47409998D01*
X90122058Y-47353377D01*
X90122054Y-47353365D01*
X90113663Y-47333106D01*
X90106194Y-47263637D01*
X90113664Y-47238199D01*
X90122544Y-47216762D01*
X90138000Y-47099361D01*
X90137999Y-46820640D01*
X90137606Y-46817657D01*
X90130452Y-46763313D01*
X90122544Y-46703238D01*
X90122542Y-46703234D01*
X90113935Y-46682455D01*
X90106465Y-46612986D01*
X90113935Y-46587545D01*
X90122544Y-46566762D01*
X90138000Y-46449361D01*
X90137999Y-46170640D01*
X90137999Y-46170638D01*
X90137999Y-46170636D01*
X90122546Y-46053246D01*
X90122544Y-46053239D01*
X90122544Y-46053238D01*
X90113662Y-46031797D01*
X90106194Y-45962328D01*
X90113664Y-45936890D01*
X90122055Y-45916632D01*
X90122055Y-45916630D01*
X90129512Y-45860000D01*
X90087000Y-45860000D01*
X90019961Y-45840315D01*
X89988625Y-45811487D01*
X89965783Y-45781719D01*
X89958313Y-45775987D01*
X89935360Y-45758374D01*
X89894158Y-45701949D01*
X89890003Y-45632203D01*
X89924214Y-45571282D01*
X89935351Y-45561631D01*
X89965782Y-45538282D01*
X89984259Y-45514202D01*
X89988625Y-45508513D01*
X90045053Y-45467310D01*
X90087000Y-45460000D01*
X90129510Y-45460000D01*
X90129511Y-45459998D01*
X90122058Y-45403377D01*
X90122054Y-45403365D01*
X90113663Y-45383106D01*
X90106194Y-45313637D01*
X90113664Y-45288199D01*
X90113933Y-45287550D01*
X90122544Y-45266762D01*
X90138000Y-45149361D01*
X90137999Y-44870640D01*
X90137999Y-44870638D01*
X90137999Y-44870636D01*
X90122546Y-44753246D01*
X90122544Y-44753239D01*
X90122544Y-44753238D01*
X90062036Y-44607159D01*
X89965782Y-44481718D01*
X89840341Y-44385464D01*
X89694262Y-44324956D01*
X89694260Y-44324955D01*
X89576870Y-44309501D01*
X89576867Y-44309500D01*
X89576861Y-44309500D01*
X89576854Y-44309500D01*
X89135452Y-44309500D01*
X89068413Y-44289815D01*
X89047771Y-44273181D01*
X87570803Y-42796212D01*
X87560980Y-42783950D01*
X87560759Y-42784134D01*
X87555786Y-42778123D01*
X87547134Y-42769998D01*
X87505364Y-42730773D01*
X87494919Y-42720328D01*
X87484475Y-42709883D01*
X87478986Y-42705625D01*
X87474561Y-42701847D01*
X87440582Y-42669938D01*
X87440580Y-42669936D01*
X87440577Y-42669935D01*
X87423029Y-42660288D01*
X87406763Y-42649604D01*
X87390933Y-42637325D01*
X87348168Y-42618818D01*
X87342922Y-42616248D01*
X87302093Y-42593803D01*
X87302092Y-42593802D01*
X87282693Y-42588822D01*
X87264281Y-42582518D01*
X87245898Y-42574562D01*
X87245892Y-42574560D01*
X87199874Y-42567272D01*
X87194152Y-42566087D01*
X87149021Y-42554500D01*
X87149019Y-42554500D01*
X87128984Y-42554500D01*
X87109586Y-42552973D01*
X87102162Y-42551797D01*
X87089805Y-42549840D01*
X87089804Y-42549840D01*
X87043416Y-42554225D01*
X87037578Y-42554500D01*
X85660035Y-42554500D01*
X85592996Y-42534815D01*
X85547241Y-42482011D01*
X85536677Y-42443102D01*
X85536163Y-42438071D01*
X85532499Y-42402203D01*
X85477314Y-42235666D01*
X85385212Y-42086344D01*
X85261156Y-41962288D01*
X85111834Y-41870186D01*
X84945297Y-41815001D01*
X84945295Y-41815000D01*
X84842510Y-41804500D01*
X83942498Y-41804500D01*
X83942480Y-41804501D01*
X83839703Y-41815000D01*
X83839700Y-41815001D01*
X83673168Y-41870185D01*
X83673163Y-41870187D01*
X83523842Y-41962289D01*
X83399789Y-42086342D01*
X83307687Y-42235663D01*
X83307685Y-42235668D01*
X83297841Y-42265377D01*
X83252501Y-42402203D01*
X83252501Y-42402204D01*
X83252500Y-42402204D01*
X83242000Y-42504983D01*
X83242000Y-43855001D01*
X83242001Y-43855018D01*
X83252500Y-43957796D01*
X83252501Y-43957799D01*
X83269799Y-44010000D01*
X83307686Y-44124334D01*
X83399788Y-44273656D01*
X83523844Y-44397712D01*
X83673166Y-44489814D01*
X83839703Y-44544999D01*
X83942491Y-44555500D01*
X84842508Y-44555499D01*
X84842516Y-44555498D01*
X84842519Y-44555498D01*
X84898802Y-44549748D01*
X84945297Y-44544999D01*
X85111834Y-44489814D01*
X85261156Y-44397712D01*
X85385212Y-44273656D01*
X85477314Y-44124334D01*
X85532499Y-43957797D01*
X85536677Y-43916896D01*
X85563073Y-43852207D01*
X85620253Y-43812055D01*
X85660035Y-43805500D01*
X86759548Y-43805500D01*
X86826587Y-43825185D01*
X86847229Y-43841819D01*
X87643991Y-44638582D01*
X87677476Y-44699905D01*
X87676405Y-44744901D01*
X87678517Y-44745180D01*
X87677456Y-44753237D01*
X87677456Y-44753238D01*
X87675779Y-44765974D01*
X87662000Y-44870638D01*
X87662000Y-45149363D01*
X87677453Y-45266753D01*
X87677456Y-45266762D01*
X87686337Y-45288203D01*
X87693804Y-45357673D01*
X87686338Y-45383103D01*
X87677944Y-45403369D01*
X87665000Y-45501686D01*
X87636733Y-45565582D01*
X87578409Y-45604053D01*
X87542061Y-45609500D01*
X87223601Y-45609500D01*
X87156562Y-45589815D01*
X87135920Y-45573181D01*
X86945189Y-45382450D01*
X86723680Y-45160941D01*
X86721146Y-45158250D01*
X86680011Y-45111817D01*
X86680010Y-45111816D01*
X86680006Y-45111812D01*
X86628978Y-45076591D01*
X86625969Y-45074377D01*
X86577142Y-45036124D01*
X86577137Y-45036120D01*
X86567895Y-45031961D01*
X86548348Y-45020936D01*
X86540013Y-45015183D01*
X86540014Y-45015183D01*
X86540012Y-45015182D01*
X86482023Y-44993189D01*
X86478572Y-44991759D01*
X86422012Y-44966304D01*
X86412028Y-44964474D01*
X86390425Y-44958451D01*
X86380956Y-44954860D01*
X86380952Y-44954859D01*
X86319395Y-44947384D01*
X86315694Y-44946821D01*
X86254690Y-44935642D01*
X86254685Y-44935642D01*
X86192779Y-44939387D01*
X86189034Y-44939500D01*
X82653037Y-44939500D01*
X82649293Y-44939387D01*
X82587397Y-44935643D01*
X82587390Y-44935643D01*
X82526402Y-44946819D01*
X82522701Y-44947382D01*
X82461125Y-44954860D01*
X82451642Y-44958456D01*
X82430038Y-44964478D01*
X82428535Y-44964754D01*
X82420065Y-44966306D01*
X82420063Y-44966307D01*
X82363527Y-44991752D01*
X82360069Y-44993184D01*
X82302069Y-45015182D01*
X82293724Y-45020942D01*
X82274183Y-45031964D01*
X82264944Y-45036122D01*
X82264939Y-45036125D01*
X82216121Y-45074370D01*
X82213106Y-45076589D01*
X82162072Y-45111816D01*
X82162065Y-45111822D01*
X82120942Y-45158240D01*
X82118375Y-45160966D01*
X81726160Y-45553181D01*
X81664837Y-45586666D01*
X81638479Y-45589500D01*
X80817498Y-45589500D01*
X80817480Y-45589501D01*
X80714703Y-45600000D01*
X80714700Y-45600001D01*
X80548168Y-45655185D01*
X80548163Y-45655187D01*
X80398842Y-45747289D01*
X80274789Y-45871342D01*
X80182687Y-46020663D01*
X80182685Y-46020668D01*
X80154849Y-46104670D01*
X80127501Y-46187203D01*
X80127501Y-46187204D01*
X80127500Y-46187204D01*
X80117000Y-46289983D01*
X80117000Y-47110980D01*
X80097315Y-47178019D01*
X80080681Y-47198661D01*
X75720966Y-51558375D01*
X75718240Y-51560942D01*
X75671818Y-51602068D01*
X75636586Y-51653109D01*
X75634368Y-51656124D01*
X75596124Y-51704939D01*
X75596119Y-51704948D01*
X75591960Y-51714188D01*
X75580942Y-51733723D01*
X75575187Y-51742061D01*
X75575183Y-51742067D01*
X75575182Y-51742070D01*
X75575180Y-51742074D01*
X75575179Y-51742077D01*
X75553189Y-51800055D01*
X75551757Y-51803513D01*
X75526305Y-51860068D01*
X75524477Y-51870042D01*
X75518453Y-51891653D01*
X75514860Y-51901127D01*
X75514859Y-51901128D01*
X75507384Y-51962685D01*
X75506821Y-51966386D01*
X75495642Y-52027390D01*
X75495642Y-52027395D01*
X75499387Y-52089302D01*
X75499500Y-52093047D01*
X75499500Y-54268480D01*
X75479815Y-54335519D01*
X75463181Y-54356161D01*
X74922180Y-54897162D01*
X74860857Y-54930647D01*
X74791165Y-54925663D01*
X74735232Y-54883791D01*
X74710815Y-54818327D01*
X74710499Y-54809481D01*
X74710499Y-52654998D01*
X74710498Y-52654981D01*
X74699999Y-52552203D01*
X74699998Y-52552200D01*
X74691387Y-52526215D01*
X74644814Y-52385666D01*
X74552712Y-52236344D01*
X74428656Y-52112288D01*
X74279334Y-52020186D01*
X74112797Y-51965001D01*
X74112795Y-51965000D01*
X74010010Y-51954500D01*
X73309998Y-51954500D01*
X73309980Y-51954501D01*
X73207203Y-51965000D01*
X73207200Y-51965001D01*
X73040668Y-52020185D01*
X73040663Y-52020187D01*
X72891342Y-52112289D01*
X72767289Y-52236342D01*
X72675187Y-52385663D01*
X72675185Y-52385668D01*
X72649405Y-52463469D01*
X72620001Y-52552203D01*
X72620001Y-52552204D01*
X72620000Y-52552204D01*
X72609500Y-52654983D01*
X72609500Y-56855001D01*
X72609501Y-56855018D01*
X72620000Y-56957796D01*
X72620001Y-56957799D01*
X72675185Y-57124331D01*
X72675187Y-57124336D01*
X72678803Y-57130198D01*
X72767288Y-57273656D01*
X72891344Y-57397712D01*
X72900591Y-57403416D01*
X72947318Y-57455360D01*
X72959500Y-57508957D01*
X72959500Y-59666951D01*
X72959387Y-59670696D01*
X72955642Y-59732603D01*
X72955642Y-59732605D01*
X72966821Y-59793612D01*
X72967384Y-59797313D01*
X72974859Y-59858870D01*
X72974860Y-59858874D01*
X72978451Y-59868343D01*
X72984474Y-59889946D01*
X72986304Y-59899930D01*
X73011759Y-59956490D01*
X73013189Y-59959941D01*
X73035182Y-60017930D01*
X73035183Y-60017931D01*
X73040936Y-60026266D01*
X73051961Y-60045813D01*
X73056120Y-60055055D01*
X73056124Y-60055060D01*
X73094371Y-60103878D01*
X73096591Y-60106896D01*
X73131812Y-60157924D01*
X73131816Y-60157928D01*
X73131817Y-60157929D01*
X73178250Y-60199064D01*
X73180941Y-60201598D01*
X73434392Y-60455049D01*
X73672829Y-60693486D01*
X73706314Y-60754809D01*
X73701330Y-60824501D01*
X73659458Y-60880434D01*
X73650248Y-60886703D01*
X73616192Y-60907710D01*
X73576342Y-60932289D01*
X73452289Y-61056342D01*
X73440978Y-61074681D01*
X73378885Y-61175351D01*
X73377191Y-61178097D01*
X73325243Y-61224821D01*
X73271652Y-61237000D01*
X70165548Y-61237000D01*
X70161803Y-61236887D01*
X70099896Y-61233142D01*
X70099890Y-61233142D01*
X70038886Y-61244321D01*
X70035185Y-61244884D01*
X69973628Y-61252359D01*
X69973627Y-61252360D01*
X69964153Y-61255953D01*
X69942542Y-61261977D01*
X69932568Y-61263805D01*
X69876013Y-61289257D01*
X69872555Y-61290689D01*
X69814577Y-61312679D01*
X69814574Y-61312680D01*
X69814570Y-61312682D01*
X69814567Y-61312683D01*
X69814561Y-61312687D01*
X69806223Y-61318442D01*
X69786688Y-61329460D01*
X69770608Y-61336698D01*
X69769352Y-61333909D01*
X69714419Y-61347553D01*
X69648269Y-61325060D01*
X69604780Y-61270374D01*
X69603464Y-61266995D01*
X69588798Y-61227673D01*
X69588793Y-61227664D01*
X69502547Y-61112455D01*
X69502544Y-61112452D01*
X69387335Y-61026206D01*
X69387328Y-61026202D01*
X69252482Y-60975908D01*
X69252483Y-60975908D01*
X69192883Y-60969501D01*
X69192881Y-60969500D01*
X69192873Y-60969500D01*
X69192864Y-60969500D01*
X67497129Y-60969500D01*
X67497123Y-60969501D01*
X67437516Y-60975908D01*
X67302671Y-61026202D01*
X67302664Y-61026206D01*
X67187455Y-61112452D01*
X67187452Y-61112455D01*
X67101206Y-61227664D01*
X67101202Y-61227671D01*
X67050908Y-61362517D01*
X67044501Y-61422116D01*
X67044500Y-61422135D01*
X67044500Y-63117870D01*
X67044501Y-63117876D01*
X67050908Y-63177483D01*
X67101202Y-63312328D01*
X67101206Y-63312335D01*
X67187452Y-63427544D01*
X67187455Y-63427547D01*
X67302664Y-63513793D01*
X67302671Y-63513797D01*
X67347618Y-63530561D01*
X67437517Y-63564091D01*
X67497127Y-63570500D01*
X67497153Y-63570499D01*
X67500453Y-63570678D01*
X67500372Y-63572183D01*
X67561672Y-63590112D01*
X67607483Y-63642867D01*
X67615016Y-63686463D01*
X68300600Y-64372046D01*
X68219852Y-64384835D01*
X68106955Y-64442359D01*
X68017359Y-64531955D01*
X67959835Y-64644852D01*
X67947046Y-64725599D01*
X67265973Y-64044526D01*
X67265972Y-64044527D01*
X67214868Y-64117513D01*
X67118734Y-64323673D01*
X67118730Y-64323682D01*
X67059860Y-64543389D01*
X67059858Y-64543400D01*
X67040034Y-64769997D01*
X67040034Y-64770002D01*
X62125499Y-64770002D01*
X62125499Y-64369992D01*
X62120768Y-64323682D01*
X62114999Y-64267203D01*
X62114998Y-64267200D01*
X62104957Y-64236898D01*
X62059814Y-64100666D01*
X61967712Y-63951344D01*
X61843656Y-63827288D01*
X61718979Y-63750387D01*
X61694336Y-63735187D01*
X61694331Y-63735185D01*
X61658114Y-63723184D01*
X61527797Y-63680001D01*
X61527795Y-63680000D01*
X61425010Y-63669500D01*
X60024998Y-63669500D01*
X60024981Y-63669501D01*
X59922203Y-63680000D01*
X59922200Y-63680001D01*
X59755668Y-63735185D01*
X59755663Y-63735187D01*
X59606342Y-63827289D01*
X59482289Y-63951342D01*
X59390187Y-64100663D01*
X59390185Y-64100668D01*
X59379374Y-64133294D01*
X59335001Y-64267203D01*
X59335001Y-64267204D01*
X59335000Y-64267204D01*
X59324500Y-64369983D01*
X59324500Y-65295001D01*
X55675500Y-65295001D01*
X55675499Y-63652128D01*
X55669091Y-63592517D01*
X55666533Y-63585659D01*
X55618797Y-63457671D01*
X55618793Y-63457664D01*
X55532547Y-63342455D01*
X55532544Y-63342452D01*
X55417335Y-63256206D01*
X55417328Y-63256202D01*
X55282482Y-63205908D01*
X55282483Y-63205908D01*
X55222883Y-63199501D01*
X55222881Y-63199500D01*
X55222873Y-63199500D01*
X55222864Y-63199500D01*
X55219548Y-63199322D01*
X55219627Y-63197847D01*
X55158215Y-63179815D01*
X55112460Y-63127011D01*
X55104969Y-63083522D01*
X54419401Y-62397953D01*
X54500148Y-62385165D01*
X54613045Y-62327641D01*
X54702641Y-62238045D01*
X54760165Y-62125148D01*
X54772953Y-62044400D01*
X55454025Y-62725472D01*
X55505136Y-62652478D01*
X55601264Y-62446331D01*
X55601269Y-62446317D01*
X55660139Y-62226610D01*
X55660141Y-62226599D01*
X55679966Y-62000002D01*
X55679966Y-61999997D01*
X55676248Y-61957500D01*
X59325001Y-61957500D01*
X59325001Y-62169986D01*
X59335494Y-62272697D01*
X59390641Y-62439119D01*
X59390643Y-62439124D01*
X59482684Y-62588345D01*
X59606654Y-62712315D01*
X59755875Y-62804356D01*
X59755880Y-62804358D01*
X59922302Y-62859505D01*
X59922309Y-62859506D01*
X60025019Y-62869999D01*
X60474999Y-62869999D01*
X60475000Y-62869998D01*
X60475000Y-61957500D01*
X60975000Y-61957500D01*
X60975000Y-62869999D01*
X61424972Y-62869999D01*
X61424986Y-62869998D01*
X61527697Y-62859505D01*
X61694119Y-62804358D01*
X61694124Y-62804356D01*
X61843345Y-62712315D01*
X61967315Y-62588345D01*
X62059356Y-62439124D01*
X62059358Y-62439119D01*
X62114505Y-62272697D01*
X62114506Y-62272690D01*
X62124999Y-62169986D01*
X62125000Y-62169973D01*
X62125000Y-61957500D01*
X60975000Y-61957500D01*
X60475000Y-61957500D01*
X59325001Y-61957500D01*
X55676248Y-61957500D01*
X55660141Y-61773400D01*
X55660139Y-61773389D01*
X55601269Y-61553682D01*
X55601265Y-61553673D01*
X55556419Y-61457500D01*
X59325000Y-61457500D01*
X60475000Y-61457500D01*
X60475000Y-60545000D01*
X60975000Y-60545000D01*
X60975000Y-61457500D01*
X62124999Y-61457500D01*
X62124999Y-61245028D01*
X62124998Y-61245013D01*
X62114505Y-61142302D01*
X62059358Y-60975880D01*
X62059356Y-60975875D01*
X61967315Y-60826654D01*
X61843345Y-60702684D01*
X61694124Y-60610643D01*
X61694119Y-60610641D01*
X61527697Y-60555494D01*
X61527690Y-60555493D01*
X61424986Y-60545000D01*
X60975000Y-60545000D01*
X60475000Y-60545000D01*
X60025028Y-60545000D01*
X60025012Y-60545001D01*
X59922302Y-60555494D01*
X59755880Y-60610641D01*
X59755875Y-60610643D01*
X59606654Y-60702684D01*
X59482684Y-60826654D01*
X59390643Y-60975875D01*
X59390641Y-60975880D01*
X59335494Y-61142302D01*
X59335493Y-61142309D01*
X59325000Y-61245013D01*
X59325000Y-61457500D01*
X55556419Y-61457500D01*
X55505133Y-61347516D01*
X55505131Y-61347512D01*
X55454026Y-61274526D01*
X55454025Y-61274526D01*
X54772953Y-61955598D01*
X54760165Y-61874852D01*
X54702641Y-61761955D01*
X54613045Y-61672359D01*
X54500148Y-61614835D01*
X54419400Y-61602046D01*
X55100472Y-60920974D01*
X55100471Y-60920973D01*
X55027483Y-60869866D01*
X55027481Y-60869865D01*
X54821326Y-60773734D01*
X54821317Y-60773730D01*
X54601610Y-60714860D01*
X54601599Y-60714858D01*
X54375002Y-60695034D01*
X54374998Y-60695034D01*
X54148400Y-60714858D01*
X54148389Y-60714860D01*
X53928682Y-60773730D01*
X53928673Y-60773734D01*
X53722513Y-60869868D01*
X53649527Y-60920972D01*
X53649526Y-60920973D01*
X54330600Y-61602046D01*
X54249852Y-61614835D01*
X54136955Y-61672359D01*
X54047359Y-61761955D01*
X53989835Y-61874852D01*
X53977046Y-61955599D01*
X53295973Y-61274526D01*
X53295972Y-61274527D01*
X53244868Y-61347513D01*
X53148734Y-61553673D01*
X53148730Y-61553682D01*
X53089860Y-61773389D01*
X53089858Y-61773400D01*
X53070034Y-61999997D01*
X53070034Y-62000002D01*
X50030500Y-62000002D01*
X50030500Y-58250642D01*
X50050185Y-58183603D01*
X50102989Y-58137848D01*
X50172147Y-58127904D01*
X50235703Y-58156929D01*
X50270682Y-58207309D01*
X50291202Y-58262328D01*
X50291206Y-58262335D01*
X50377452Y-58377544D01*
X50377455Y-58377547D01*
X50492664Y-58463793D01*
X50492671Y-58463797D01*
X50627517Y-58514091D01*
X50627516Y-58514091D01*
X50634444Y-58514835D01*
X50687127Y-58520500D01*
X52982872Y-58520499D01*
X53042483Y-58514091D01*
X53177331Y-58463796D01*
X53292546Y-58377546D01*
X53378796Y-58262331D01*
X53429091Y-58127483D01*
X53435500Y-58067873D01*
X53435499Y-56920000D01*
X60389551Y-56920000D01*
X60409317Y-57171151D01*
X60468126Y-57416110D01*
X60564533Y-57648859D01*
X60696160Y-57863653D01*
X60696161Y-57863656D01*
X60707973Y-57877486D01*
X60859776Y-58055224D01*
X60978857Y-58156929D01*
X61051343Y-58218838D01*
X61051346Y-58218839D01*
X61266140Y-58350466D01*
X61424589Y-58416097D01*
X61498889Y-58446873D01*
X61743852Y-58505683D01*
X61995000Y-58525449D01*
X62246148Y-58505683D01*
X62491111Y-58446873D01*
X62723859Y-58350466D01*
X62938659Y-58218836D01*
X63130224Y-58055224D01*
X63293836Y-57863659D01*
X63425466Y-57648859D01*
X63521873Y-57416111D01*
X63580683Y-57171148D01*
X63600449Y-56920000D01*
X63595333Y-56855001D01*
X67529500Y-56855001D01*
X67529501Y-56855018D01*
X67540000Y-56957796D01*
X67540001Y-56957799D01*
X67595185Y-57124331D01*
X67595187Y-57124336D01*
X67598803Y-57130198D01*
X67687288Y-57273656D01*
X67811344Y-57397712D01*
X67960666Y-57489814D01*
X68127203Y-57544999D01*
X68229991Y-57555500D01*
X68930008Y-57555499D01*
X68930016Y-57555498D01*
X68930019Y-57555498D01*
X68986302Y-57549748D01*
X69032797Y-57544999D01*
X69199334Y-57489814D01*
X69348656Y-57397712D01*
X69472712Y-57273656D01*
X69564814Y-57124334D01*
X69619999Y-56957797D01*
X69630500Y-56855009D01*
X69630499Y-52654992D01*
X69623830Y-52589711D01*
X69619999Y-52552203D01*
X69619998Y-52552200D01*
X69611387Y-52526215D01*
X69564814Y-52385666D01*
X69472712Y-52236344D01*
X69348656Y-52112288D01*
X69199334Y-52020186D01*
X69032797Y-51965001D01*
X69032795Y-51965000D01*
X68930010Y-51954500D01*
X68229998Y-51954500D01*
X68229980Y-51954501D01*
X68127203Y-51965000D01*
X68127200Y-51965001D01*
X67960668Y-52020185D01*
X67960663Y-52020187D01*
X67811342Y-52112289D01*
X67687289Y-52236342D01*
X67595187Y-52385663D01*
X67595185Y-52385668D01*
X67569405Y-52463469D01*
X67540001Y-52552203D01*
X67540001Y-52552204D01*
X67540000Y-52552204D01*
X67529500Y-52654983D01*
X67529500Y-56855001D01*
X63595333Y-56855001D01*
X63580683Y-56668852D01*
X63521873Y-56423889D01*
X63502326Y-56376697D01*
X63425466Y-56191140D01*
X63293839Y-55976346D01*
X63293838Y-55976343D01*
X63252253Y-55927654D01*
X63130224Y-55784776D01*
X62970663Y-55648498D01*
X62938656Y-55621161D01*
X62938653Y-55621160D01*
X62723859Y-55489533D01*
X62491110Y-55393126D01*
X62246151Y-55334317D01*
X61995000Y-55314551D01*
X61743848Y-55334317D01*
X61498889Y-55393126D01*
X61266140Y-55489533D01*
X61051346Y-55621160D01*
X61051343Y-55621161D01*
X60859776Y-55784776D01*
X60696161Y-55976343D01*
X60696160Y-55976346D01*
X60564533Y-56191140D01*
X60468126Y-56423889D01*
X60409317Y-56668848D01*
X60389551Y-56920000D01*
X53435499Y-56920000D01*
X53435499Y-55772128D01*
X53429091Y-55712517D01*
X53425792Y-55703673D01*
X53378797Y-55577671D01*
X53378793Y-55577664D01*
X53292547Y-55462455D01*
X53292544Y-55462452D01*
X53177335Y-55376206D01*
X53177328Y-55376202D01*
X53042482Y-55325908D01*
X53042483Y-55325908D01*
X52982883Y-55319501D01*
X52982881Y-55319500D01*
X52982873Y-55319500D01*
X52982864Y-55319500D01*
X50687129Y-55319500D01*
X50687123Y-55319501D01*
X50627516Y-55325908D01*
X50492671Y-55376202D01*
X50492664Y-55376206D01*
X50377455Y-55462452D01*
X50377452Y-55462455D01*
X50291206Y-55577664D01*
X50291202Y-55577671D01*
X50270682Y-55632690D01*
X50228811Y-55688624D01*
X50163346Y-55713041D01*
X50095073Y-55698189D01*
X50045668Y-55648784D01*
X50030500Y-55589357D01*
X50030500Y-50118626D01*
X53854500Y-50118626D01*
X53857295Y-50171243D01*
X53857295Y-50171244D01*
X53889961Y-50340146D01*
X53901755Y-50401126D01*
X53949097Y-50526575D01*
X53984425Y-50620189D01*
X54102929Y-50822131D01*
X54102934Y-50822138D01*
X54253856Y-51001141D01*
X54253858Y-51001143D01*
X54432861Y-51152065D01*
X54432868Y-51152070D01*
X54634810Y-51270574D01*
X54853874Y-51353245D01*
X55083759Y-51397705D01*
X55125194Y-51399905D01*
X55136374Y-51400500D01*
X55136378Y-51400500D01*
X57073626Y-51400500D01*
X57083731Y-51399962D01*
X57126241Y-51397705D01*
X57356126Y-51353245D01*
X57575190Y-51270574D01*
X57777132Y-51152070D01*
X57783967Y-51146307D01*
X57956141Y-51001143D01*
X57956143Y-51001141D01*
X58107065Y-50822138D01*
X58107065Y-50822137D01*
X58107070Y-50822132D01*
X58225574Y-50620190D01*
X58308245Y-50401126D01*
X58352705Y-50171241D01*
X58355162Y-50124981D01*
X58355500Y-50118626D01*
X58355500Y-48181374D01*
X58353703Y-48147547D01*
X58352705Y-48128759D01*
X58308245Y-47898874D01*
X58225574Y-47679810D01*
X58107070Y-47477868D01*
X58107065Y-47477861D01*
X57956143Y-47298858D01*
X57956141Y-47298856D01*
X57777138Y-47147934D01*
X57777131Y-47147929D01*
X57575189Y-47029425D01*
X57470718Y-46990000D01*
X57356126Y-46946755D01*
X57356121Y-46946754D01*
X57356116Y-46946752D01*
X57353470Y-46946240D01*
X57352451Y-46945713D01*
X57351050Y-46945317D01*
X57351130Y-46945031D01*
X57291392Y-46914177D01*
X57256503Y-46853641D01*
X57259881Y-46783853D01*
X57300452Y-46726970D01*
X57365337Y-46701052D01*
X57377009Y-46700499D01*
X60902872Y-46700499D01*
X60962483Y-46694091D01*
X61097331Y-46643796D01*
X61212546Y-46557546D01*
X61298796Y-46442331D01*
X61349091Y-46307483D01*
X61355500Y-46247873D01*
X61355499Y-43430000D01*
X80142501Y-43430000D01*
X80142501Y-43854986D01*
X80152994Y-43957697D01*
X80208141Y-44124119D01*
X80208143Y-44124124D01*
X80300184Y-44273345D01*
X80424154Y-44397315D01*
X80573375Y-44489356D01*
X80573380Y-44489358D01*
X80739802Y-44544505D01*
X80739809Y-44544506D01*
X80842519Y-44554999D01*
X81042499Y-44554999D01*
X81042500Y-44554998D01*
X81042500Y-43430000D01*
X81542500Y-43430000D01*
X81542500Y-44554999D01*
X81742472Y-44554999D01*
X81742486Y-44554998D01*
X81845197Y-44544505D01*
X82011619Y-44489358D01*
X82011624Y-44489356D01*
X82160845Y-44397315D01*
X82284815Y-44273345D01*
X82376856Y-44124124D01*
X82376858Y-44124119D01*
X82432005Y-43957697D01*
X82432006Y-43957690D01*
X82442499Y-43854986D01*
X82442500Y-43854973D01*
X82442500Y-43430000D01*
X81542500Y-43430000D01*
X81042500Y-43430000D01*
X80142501Y-43430000D01*
X61355499Y-43430000D01*
X61355499Y-42930000D01*
X80142500Y-42930000D01*
X81042500Y-42930000D01*
X81042500Y-41805000D01*
X81542500Y-41805000D01*
X81542500Y-42930000D01*
X82442499Y-42930000D01*
X82442499Y-42505028D01*
X82442498Y-42505013D01*
X82432005Y-42402302D01*
X82376858Y-42235880D01*
X82376856Y-42235875D01*
X82284815Y-42086654D01*
X82160845Y-41962684D01*
X82011624Y-41870643D01*
X82011619Y-41870641D01*
X81845197Y-41815494D01*
X81845190Y-41815493D01*
X81742486Y-41805000D01*
X81542500Y-41805000D01*
X81042500Y-41805000D01*
X80842529Y-41805000D01*
X80842512Y-41805001D01*
X80739802Y-41815494D01*
X80573380Y-41870641D01*
X80573375Y-41870643D01*
X80424154Y-41962684D01*
X80300184Y-42086654D01*
X80208143Y-42235875D01*
X80208141Y-42235880D01*
X80152994Y-42402302D01*
X80152993Y-42402309D01*
X80142500Y-42505013D01*
X80142500Y-42930000D01*
X61355499Y-42930000D01*
X61355499Y-42652128D01*
X61349091Y-42592517D01*
X61342394Y-42574562D01*
X61298797Y-42457671D01*
X61298792Y-42457662D01*
X61212547Y-42342455D01*
X61212544Y-42342452D01*
X61097335Y-42256206D01*
X61097328Y-42256202D01*
X60962482Y-42205908D01*
X60962483Y-42205908D01*
X60902883Y-42199501D01*
X60902881Y-42199500D01*
X60902873Y-42199500D01*
X60902864Y-42199500D01*
X57307129Y-42199500D01*
X57307123Y-42199501D01*
X57247516Y-42205908D01*
X57112671Y-42256202D01*
X57112664Y-42256206D01*
X56997455Y-42342452D01*
X56997452Y-42342455D01*
X56911208Y-42457662D01*
X56911202Y-42457671D01*
X56860908Y-42592517D01*
X56854771Y-42649604D01*
X56854501Y-42652123D01*
X56854500Y-42652135D01*
X56854500Y-46247870D01*
X56854501Y-46247876D01*
X56860908Y-46307483D01*
X56911202Y-46442328D01*
X56911206Y-46442335D01*
X56997452Y-46557544D01*
X56997455Y-46557547D01*
X57112664Y-46643793D01*
X57112673Y-46643798D01*
X57159937Y-46661426D01*
X57215871Y-46703296D01*
X57240289Y-46768760D01*
X57225438Y-46837033D01*
X57176033Y-46886439D01*
X57110028Y-46901433D01*
X57073627Y-46899500D01*
X57073622Y-46899500D01*
X55136378Y-46899500D01*
X55136374Y-46899500D01*
X55083756Y-46902295D01*
X55083755Y-46902295D01*
X54853878Y-46946754D01*
X54853876Y-46946754D01*
X54853874Y-46946755D01*
X54779933Y-46974659D01*
X54634810Y-47029425D01*
X54432868Y-47147929D01*
X54432861Y-47147934D01*
X54253858Y-47298856D01*
X54253856Y-47298858D01*
X54102934Y-47477861D01*
X54102929Y-47477868D01*
X53984425Y-47679810D01*
X53935294Y-47810001D01*
X53901755Y-47898874D01*
X53901754Y-47898876D01*
X53901754Y-47898878D01*
X53857295Y-48128755D01*
X53857295Y-48128756D01*
X53854500Y-48181374D01*
X53854500Y-50118626D01*
X50030500Y-50118626D01*
X50030500Y-44200000D01*
X51105000Y-44200000D01*
X52605000Y-44200000D01*
X52605000Y-44700000D01*
X51105001Y-44700000D01*
X51105001Y-45514192D01*
X51115400Y-45646332D01*
X51170377Y-45864519D01*
X51263428Y-46069374D01*
X51263431Y-46069380D01*
X51391559Y-46254323D01*
X51391569Y-46254335D01*
X51550664Y-46413430D01*
X51550676Y-46413440D01*
X51735619Y-46541568D01*
X51735625Y-46541571D01*
X51940480Y-46634622D01*
X52158667Y-46689599D01*
X52290807Y-46700000D01*
X52854999Y-46699999D01*
X52855000Y-46699998D01*
X52855000Y-45883686D01*
X52895156Y-45909493D01*
X53033111Y-45950000D01*
X53176889Y-45950000D01*
X53314844Y-45909493D01*
X53355000Y-45883686D01*
X53355000Y-46699999D01*
X53919192Y-46699999D01*
X54051332Y-46689599D01*
X54269519Y-46634622D01*
X54474374Y-46541571D01*
X54474380Y-46541568D01*
X54659323Y-46413440D01*
X54659335Y-46413430D01*
X54818430Y-46254335D01*
X54818440Y-46254323D01*
X54946568Y-46069380D01*
X54946571Y-46069374D01*
X55039622Y-45864519D01*
X55094599Y-45646332D01*
X55105000Y-45514194D01*
X55105000Y-44700000D01*
X53605000Y-44700000D01*
X53605000Y-44200000D01*
X55104999Y-44200000D01*
X55104999Y-43385808D01*
X55094599Y-43253667D01*
X55039622Y-43035480D01*
X54946571Y-42830625D01*
X54946568Y-42830619D01*
X54818440Y-42645676D01*
X54818430Y-42645664D01*
X54659335Y-42486569D01*
X54659323Y-42486559D01*
X54474380Y-42358431D01*
X54474374Y-42358428D01*
X54269519Y-42265377D01*
X54051332Y-42210400D01*
X53919194Y-42200000D01*
X53355000Y-42200000D01*
X53355000Y-43016313D01*
X53314844Y-42990507D01*
X53176889Y-42950000D01*
X53033111Y-42950000D01*
X52895156Y-42990507D01*
X52855000Y-43016313D01*
X52855000Y-42200000D01*
X52854999Y-42200000D01*
X52290808Y-42200001D01*
X52158667Y-42210400D01*
X51940480Y-42265377D01*
X51735625Y-42358428D01*
X51735619Y-42358431D01*
X51550676Y-42486559D01*
X51550664Y-42486569D01*
X51391569Y-42645664D01*
X51391559Y-42645676D01*
X51263431Y-42830619D01*
X51263428Y-42830625D01*
X51170377Y-43035480D01*
X51115400Y-43253667D01*
X51105000Y-43385806D01*
X51105000Y-44200000D01*
X50030500Y-44200000D01*
X50030500Y-39147501D01*
X87499500Y-39147501D01*
X87499501Y-39147519D01*
X87510000Y-39250296D01*
X87510001Y-39250299D01*
X87565115Y-39416619D01*
X87565186Y-39416834D01*
X87657288Y-39566156D01*
X87781344Y-39690212D01*
X87930666Y-39782314D01*
X88097203Y-39837499D01*
X88199991Y-39848000D01*
X89600008Y-39847999D01*
X89702797Y-39837499D01*
X89869334Y-39782314D01*
X90018656Y-39690212D01*
X90142712Y-39566156D01*
X90234814Y-39416834D01*
X90289999Y-39250297D01*
X90300500Y-39147509D01*
X90300500Y-38935000D01*
X92580001Y-38935000D01*
X92580001Y-39147486D01*
X92590494Y-39250197D01*
X92645641Y-39416619D01*
X92645643Y-39416624D01*
X92737684Y-39565845D01*
X92861654Y-39689815D01*
X93010875Y-39781856D01*
X93010880Y-39781858D01*
X93177302Y-39837005D01*
X93177309Y-39837006D01*
X93280019Y-39847499D01*
X93729999Y-39847499D01*
X93730000Y-39847498D01*
X93730000Y-38935000D01*
X94230000Y-38935000D01*
X94230000Y-39847499D01*
X94679972Y-39847499D01*
X94679986Y-39847498D01*
X94782697Y-39837005D01*
X94949119Y-39781858D01*
X94949124Y-39781856D01*
X95098345Y-39689815D01*
X95222315Y-39565845D01*
X95314356Y-39416624D01*
X95314358Y-39416619D01*
X95369505Y-39250197D01*
X95369506Y-39250190D01*
X95379999Y-39147486D01*
X95380000Y-39147473D01*
X95380000Y-38935000D01*
X94230000Y-38935000D01*
X93730000Y-38935000D01*
X92580001Y-38935000D01*
X90300500Y-38935000D01*
X90300500Y-38805005D01*
X117505057Y-38805005D01*
X117524807Y-39118942D01*
X117524808Y-39118949D01*
X117583755Y-39427958D01*
X117680963Y-39727132D01*
X117680965Y-39727137D01*
X117814900Y-40011761D01*
X117814903Y-40011767D01*
X117983457Y-40277367D01*
X117983460Y-40277371D01*
X118074286Y-40387160D01*
X118712266Y-39749180D01*
X118875130Y-39939870D01*
X119065818Y-40102732D01*
X118424971Y-40743579D01*
X118424972Y-40743581D01*
X118667772Y-40919985D01*
X118667790Y-40919996D01*
X118943447Y-41071540D01*
X118943455Y-41071544D01*
X119235926Y-41187340D01*
X119540620Y-41265573D01*
X119540629Y-41265575D01*
X119852701Y-41304999D01*
X119852715Y-41305000D01*
X120167285Y-41305000D01*
X120167298Y-41304999D01*
X120479370Y-41265575D01*
X120479379Y-41265573D01*
X120784073Y-41187340D01*
X121076544Y-41071544D01*
X121076552Y-41071540D01*
X121352209Y-40919996D01*
X121352219Y-40919990D01*
X121595026Y-40743579D01*
X121595027Y-40743579D01*
X120954180Y-40102733D01*
X121144870Y-39939870D01*
X121307733Y-39749181D01*
X121945712Y-40387160D01*
X122036544Y-40277364D01*
X122205096Y-40011767D01*
X122205099Y-40011761D01*
X122339034Y-39727137D01*
X122339036Y-39727132D01*
X122436244Y-39427958D01*
X122495191Y-39118949D01*
X122495192Y-39118942D01*
X122514943Y-38805005D01*
X122514943Y-38804994D01*
X122495192Y-38491057D01*
X122495191Y-38491050D01*
X122436244Y-38182041D01*
X122339036Y-37882867D01*
X122339034Y-37882862D01*
X122205099Y-37598238D01*
X122205096Y-37598232D01*
X122036542Y-37332632D01*
X122036539Y-37332628D01*
X121945712Y-37222838D01*
X121307732Y-37860818D01*
X121144870Y-37670130D01*
X120954180Y-37507266D01*
X121595027Y-36866419D01*
X121595026Y-36866417D01*
X121352227Y-36690014D01*
X121352209Y-36690003D01*
X121076552Y-36538459D01*
X121076544Y-36538455D01*
X120784073Y-36422659D01*
X120479379Y-36344426D01*
X120479370Y-36344424D01*
X120167298Y-36305000D01*
X119852701Y-36305000D01*
X119540629Y-36344424D01*
X119540620Y-36344426D01*
X119235926Y-36422659D01*
X118943455Y-36538455D01*
X118943447Y-36538459D01*
X118667787Y-36690004D01*
X118667782Y-36690007D01*
X118424972Y-36866418D01*
X118424971Y-36866419D01*
X119065819Y-37507266D01*
X118875130Y-37670130D01*
X118712266Y-37860818D01*
X118074286Y-37222838D01*
X118074285Y-37222838D01*
X117983459Y-37332629D01*
X117983457Y-37332632D01*
X117814903Y-37598232D01*
X117814900Y-37598238D01*
X117680965Y-37882862D01*
X117680963Y-37882867D01*
X117583755Y-38182041D01*
X117524808Y-38491050D01*
X117524807Y-38491057D01*
X117505057Y-38804994D01*
X117505057Y-38805005D01*
X90300500Y-38805005D01*
X90300499Y-38435000D01*
X92580000Y-38435000D01*
X93730000Y-38435000D01*
X93730000Y-37522500D01*
X94230000Y-37522500D01*
X94230000Y-38435000D01*
X95379999Y-38435000D01*
X95379999Y-38222528D01*
X95379998Y-38222513D01*
X95369505Y-38119802D01*
X95314358Y-37953380D01*
X95314356Y-37953375D01*
X95222315Y-37804154D01*
X95098345Y-37680184D01*
X94949124Y-37588143D01*
X94949119Y-37588141D01*
X94782697Y-37532994D01*
X94782690Y-37532993D01*
X94679986Y-37522500D01*
X94230000Y-37522500D01*
X93730000Y-37522500D01*
X93280028Y-37522500D01*
X93280012Y-37522501D01*
X93177302Y-37532994D01*
X93010880Y-37588141D01*
X93010875Y-37588143D01*
X92861654Y-37680184D01*
X92737684Y-37804154D01*
X92645643Y-37953375D01*
X92645641Y-37953380D01*
X92590494Y-38119802D01*
X92590493Y-38119809D01*
X92580000Y-38222513D01*
X92580000Y-38435000D01*
X90300499Y-38435000D01*
X90300499Y-38222492D01*
X90289999Y-38119703D01*
X90234814Y-37953166D01*
X90142712Y-37803844D01*
X90018656Y-37679788D01*
X89869334Y-37587686D01*
X89702797Y-37532501D01*
X89702795Y-37532500D01*
X89600010Y-37522000D01*
X88199998Y-37522000D01*
X88199981Y-37522001D01*
X88097203Y-37532500D01*
X88097200Y-37532501D01*
X87930668Y-37587685D01*
X87930663Y-37587687D01*
X87781342Y-37679789D01*
X87657289Y-37803842D01*
X87565187Y-37953163D01*
X87565185Y-37953168D01*
X87565115Y-37953380D01*
X87510001Y-38119703D01*
X87510001Y-38119704D01*
X87510000Y-38119704D01*
X87499500Y-38222483D01*
X87499500Y-39147501D01*
X50030500Y-39147501D01*
X50030500Y-36022501D01*
X87499500Y-36022501D01*
X87499501Y-36022519D01*
X87510000Y-36125296D01*
X87510001Y-36125299D01*
X87565185Y-36291831D01*
X87565187Y-36291836D01*
X87593474Y-36337697D01*
X87657288Y-36441156D01*
X87781344Y-36565212D01*
X87930666Y-36657314D01*
X88097203Y-36712499D01*
X88199991Y-36723000D01*
X89600008Y-36722999D01*
X89702797Y-36712499D01*
X89869334Y-36657314D01*
X90018656Y-36565212D01*
X90142712Y-36441156D01*
X90234814Y-36291834D01*
X90234815Y-36291831D01*
X90241886Y-36270494D01*
X90281659Y-36213050D01*
X90346175Y-36186228D01*
X90359591Y-36185500D01*
X92520409Y-36185500D01*
X92587448Y-36205185D01*
X92633203Y-36257989D01*
X92638114Y-36270494D01*
X92645184Y-36291831D01*
X92645186Y-36291834D01*
X92737288Y-36441156D01*
X92861344Y-36565212D01*
X93010666Y-36657314D01*
X93177203Y-36712499D01*
X93279991Y-36723000D01*
X94680008Y-36722999D01*
X94782797Y-36712499D01*
X94949334Y-36657314D01*
X95098656Y-36565212D01*
X95222712Y-36441156D01*
X95314814Y-36291834D01*
X95314815Y-36291831D01*
X95321886Y-36270494D01*
X95361659Y-36213050D01*
X95426175Y-36186228D01*
X95439591Y-36185500D01*
X98782465Y-36185500D01*
X98849504Y-36205185D01*
X98895259Y-36257989D01*
X98905823Y-36296898D01*
X98910001Y-36337797D01*
X98910001Y-36337799D01*
X98944251Y-36441156D01*
X98965186Y-36504334D01*
X99057288Y-36653656D01*
X99181344Y-36777712D01*
X99330666Y-36869814D01*
X99497203Y-36924999D01*
X99599991Y-36935500D01*
X100500008Y-36935499D01*
X100500016Y-36935498D01*
X100500019Y-36935498D01*
X100556302Y-36929748D01*
X100602797Y-36924999D01*
X100769334Y-36869814D01*
X100918656Y-36777712D01*
X101042712Y-36653656D01*
X101134814Y-36504334D01*
X101189999Y-36337797D01*
X101200500Y-36235009D01*
X101200500Y-36235001D01*
X101999500Y-36235001D01*
X101999501Y-36235018D01*
X102010000Y-36337796D01*
X102010001Y-36337799D01*
X102044251Y-36441156D01*
X102065186Y-36504334D01*
X102157288Y-36653656D01*
X102281344Y-36777712D01*
X102430666Y-36869814D01*
X102597203Y-36924999D01*
X102699991Y-36935500D01*
X103600008Y-36935499D01*
X103600016Y-36935498D01*
X103600019Y-36935498D01*
X103656302Y-36929748D01*
X103702797Y-36924999D01*
X103869334Y-36869814D01*
X104018656Y-36777712D01*
X104142712Y-36653656D01*
X104234814Y-36504334D01*
X104289999Y-36337797D01*
X104294177Y-36296896D01*
X104320573Y-36232207D01*
X104377753Y-36192055D01*
X104417535Y-36185500D01*
X106402465Y-36185500D01*
X106469504Y-36205185D01*
X106515259Y-36257989D01*
X106525823Y-36296898D01*
X106530001Y-36337797D01*
X106530001Y-36337799D01*
X106564251Y-36441156D01*
X106585186Y-36504334D01*
X106677288Y-36653656D01*
X106801344Y-36777712D01*
X106950666Y-36869814D01*
X107117203Y-36924999D01*
X107219991Y-36935500D01*
X108120008Y-36935499D01*
X108120016Y-36935498D01*
X108120019Y-36935498D01*
X108176302Y-36929748D01*
X108222797Y-36924999D01*
X108389334Y-36869814D01*
X108538656Y-36777712D01*
X108662712Y-36653656D01*
X108754814Y-36504334D01*
X108809999Y-36337797D01*
X108820500Y-36235009D01*
X108820500Y-35810000D01*
X109620001Y-35810000D01*
X109620001Y-36234986D01*
X109630494Y-36337697D01*
X109685641Y-36504119D01*
X109685643Y-36504124D01*
X109777684Y-36653345D01*
X109901654Y-36777315D01*
X110050875Y-36869356D01*
X110050880Y-36869358D01*
X110217302Y-36924505D01*
X110217309Y-36924506D01*
X110320019Y-36934999D01*
X110519999Y-36934999D01*
X110520000Y-36934998D01*
X110520000Y-35810000D01*
X111020000Y-35810000D01*
X111020000Y-36934999D01*
X111219972Y-36934999D01*
X111219986Y-36934998D01*
X111322697Y-36924505D01*
X111489119Y-36869358D01*
X111489124Y-36869356D01*
X111638345Y-36777315D01*
X111762315Y-36653345D01*
X111854356Y-36504124D01*
X111854358Y-36504119D01*
X111909506Y-36337694D01*
X111909506Y-36337690D01*
X111919999Y-36234986D01*
X111920000Y-36234973D01*
X111920000Y-35810000D01*
X111020000Y-35810000D01*
X110520000Y-35810000D01*
X109620001Y-35810000D01*
X108820500Y-35810000D01*
X108820499Y-35345450D01*
X108840183Y-35278412D01*
X108856813Y-35257775D01*
X109417964Y-34696624D01*
X109479285Y-34663141D01*
X109548977Y-34668125D01*
X109604910Y-34709997D01*
X109629327Y-34775461D01*
X109629001Y-34796909D01*
X109620000Y-34885011D01*
X109620000Y-35310000D01*
X110520000Y-35310000D01*
X110520000Y-34185000D01*
X111020000Y-34185000D01*
X111020000Y-35310000D01*
X111919999Y-35310000D01*
X111919999Y-34885028D01*
X111919998Y-34885013D01*
X111909505Y-34782302D01*
X111854358Y-34615880D01*
X111854356Y-34615875D01*
X111762315Y-34466654D01*
X111638345Y-34342684D01*
X111489124Y-34250643D01*
X111489119Y-34250641D01*
X111322697Y-34195494D01*
X111322690Y-34195493D01*
X111219986Y-34185000D01*
X111020000Y-34185000D01*
X110520000Y-34185000D01*
X110320029Y-34185000D01*
X110320007Y-34185002D01*
X110231907Y-34194001D01*
X110163215Y-34181231D01*
X110112331Y-34133349D01*
X110095411Y-34065559D01*
X110117828Y-33999383D01*
X110131618Y-33982970D01*
X112083950Y-32030639D01*
X112145271Y-31997156D01*
X112214963Y-32002140D01*
X112270896Y-32044012D01*
X112285185Y-32068512D01*
X112341267Y-32196367D01*
X112477232Y-32404478D01*
X112645592Y-32587364D01*
X112645602Y-32587373D01*
X112841762Y-32740051D01*
X112841771Y-32740057D01*
X113060385Y-32858364D01*
X113060396Y-32858369D01*
X113295507Y-32939083D01*
X113414999Y-32959023D01*
X113415000Y-32959022D01*
X113415000Y-31084310D01*
X113423817Y-31089158D01*
X113582886Y-31130000D01*
X113705894Y-31130000D01*
X113827933Y-31114583D01*
X113915000Y-31080110D01*
X113915000Y-32959023D01*
X114034492Y-32939083D01*
X114269603Y-32858369D01*
X114269614Y-32858364D01*
X114488228Y-32740057D01*
X114488237Y-32740051D01*
X114684397Y-32587373D01*
X114684407Y-32587364D01*
X114852767Y-32404478D01*
X114988732Y-32196367D01*
X115088587Y-31968717D01*
X115149612Y-31727738D01*
X115149614Y-31727730D01*
X115165000Y-31542041D01*
X115165000Y-30730000D01*
X114265728Y-30730000D01*
X114288100Y-30682457D01*
X114318873Y-30521138D01*
X114308561Y-30357234D01*
X114267220Y-30230000D01*
X115165000Y-30230000D01*
X115165000Y-29417959D01*
X115149614Y-29232269D01*
X115149612Y-29232261D01*
X115088587Y-28991282D01*
X114988732Y-28763632D01*
X114852767Y-28555521D01*
X114684407Y-28372635D01*
X114684397Y-28372626D01*
X114488237Y-28219948D01*
X114488228Y-28219942D01*
X114269614Y-28101635D01*
X114269603Y-28101630D01*
X114034492Y-28020916D01*
X113915000Y-28000976D01*
X113915000Y-29875689D01*
X113906183Y-29870842D01*
X113747114Y-29830000D01*
X113624106Y-29830000D01*
X113502067Y-29845417D01*
X113415000Y-29879889D01*
X113415000Y-28000976D01*
X113414999Y-28000976D01*
X113295507Y-28020916D01*
X113060396Y-28101630D01*
X113060385Y-28101635D01*
X112841771Y-28219942D01*
X112841762Y-28219948D01*
X112645602Y-28372626D01*
X112645598Y-28372630D01*
X112600729Y-28421370D01*
X112540841Y-28457360D01*
X112471003Y-28455259D01*
X112413388Y-28415734D01*
X112386287Y-28351334D01*
X112385500Y-28337386D01*
X112385500Y-27841519D01*
X112405185Y-27774480D01*
X112450483Y-27732464D01*
X112493942Y-27708945D01*
X112583509Y-27660474D01*
X112779744Y-27507738D01*
X112948164Y-27324785D01*
X113084173Y-27116607D01*
X113184063Y-26888881D01*
X113245108Y-26647821D01*
X113246833Y-26627011D01*
X113260500Y-26462065D01*
X113260500Y-25581184D01*
X119264500Y-25581184D01*
X119266493Y-25594402D01*
X119267012Y-25599011D01*
X119279196Y-25761621D01*
X119279197Y-25761625D01*
X119337576Y-26017402D01*
X119337577Y-26017404D01*
X119337580Y-26017416D01*
X119433432Y-26261643D01*
X119564614Y-26488857D01*
X119674788Y-26627011D01*
X119728198Y-26693985D01*
X119909753Y-26862441D01*
X119920521Y-26872433D01*
X120137296Y-27020228D01*
X120137301Y-27020230D01*
X120137302Y-27020231D01*
X120137303Y-27020232D01*
X120262843Y-27080688D01*
X120373673Y-27134061D01*
X120373674Y-27134061D01*
X120373677Y-27134063D01*
X120624385Y-27211396D01*
X120883818Y-27250500D01*
X121146182Y-27250500D01*
X121405615Y-27211396D01*
X121656323Y-27134063D01*
X121892704Y-27020228D01*
X122109479Y-26872433D01*
X122295857Y-26699500D01*
X122301801Y-26693985D01*
X122301801Y-26693983D01*
X122301805Y-26693981D01*
X122465386Y-26488857D01*
X122596568Y-26261643D01*
X122692420Y-26017416D01*
X122750802Y-25761630D01*
X122762988Y-25598991D01*
X122763506Y-25594402D01*
X122765500Y-25581182D01*
X122765500Y-25318818D01*
X122765500Y-22434506D01*
X122765500Y-22368818D01*
X122756050Y-22306128D01*
X122755538Y-22301576D01*
X122750802Y-22238370D01*
X122736698Y-22176580D01*
X122735840Y-22172048D01*
X122726396Y-22109385D01*
X122714871Y-22072025D01*
X122707717Y-22048831D01*
X122706517Y-22044350D01*
X122698537Y-22009386D01*
X122692420Y-21982584D01*
X122669266Y-21923590D01*
X122667734Y-21919211D01*
X122649063Y-21858677D01*
X122621567Y-21801581D01*
X122619719Y-21797343D01*
X122596568Y-21738356D01*
X122574133Y-21699499D01*
X122564876Y-21683464D01*
X122562717Y-21679378D01*
X122535228Y-21622296D01*
X122513209Y-21590000D01*
X122499531Y-21569937D01*
X122497063Y-21566010D01*
X122494265Y-21561164D01*
X122465386Y-21511143D01*
X122425881Y-21461604D01*
X122423127Y-21457874D01*
X122391270Y-21411149D01*
X122387433Y-21405521D01*
X122344332Y-21359069D01*
X122341306Y-21355552D01*
X122301809Y-21306023D01*
X122301268Y-21305521D01*
X122255347Y-21262912D01*
X122252077Y-21259641D01*
X122208983Y-21213197D01*
X122208980Y-21213194D01*
X122159432Y-21173681D01*
X122155926Y-21170664D01*
X122109479Y-21127567D01*
X122109475Y-21127564D01*
X122109471Y-21127561D01*
X122060973Y-21094496D01*
X122057125Y-21091872D01*
X122053407Y-21089128D01*
X122003857Y-21049614D01*
X122003852Y-21049610D01*
X121948976Y-21017927D01*
X121945050Y-21015460D01*
X121892704Y-20979772D01*
X121892700Y-20979770D01*
X121882733Y-20974970D01*
X121835600Y-20952272D01*
X121831540Y-20950126D01*
X121776643Y-20918432D01*
X121717650Y-20895278D01*
X121713405Y-20893426D01*
X121656328Y-20865939D01*
X121656307Y-20865931D01*
X121612038Y-20852277D01*
X121595765Y-20847257D01*
X121591403Y-20845731D01*
X121532416Y-20822580D01*
X121532413Y-20822579D01*
X121532410Y-20822578D01*
X121532404Y-20822577D01*
X121470637Y-20808479D01*
X121466161Y-20807280D01*
X121421264Y-20793431D01*
X121405619Y-20788605D01*
X121405617Y-20788604D01*
X121405615Y-20788604D01*
X121381243Y-20784930D01*
X121342964Y-20779160D01*
X121338408Y-20778298D01*
X121276636Y-20764199D01*
X121276632Y-20764198D01*
X121276630Y-20764198D01*
X121257063Y-20762731D01*
X121213445Y-20759462D01*
X121208838Y-20758943D01*
X121146191Y-20749500D01*
X121146182Y-20749500D01*
X120883818Y-20749500D01*
X120883808Y-20749500D01*
X120821163Y-20758943D01*
X120816556Y-20759462D01*
X120777913Y-20762358D01*
X120753370Y-20764198D01*
X120736968Y-20767941D01*
X120691592Y-20778297D01*
X120687038Y-20779159D01*
X120646527Y-20785266D01*
X120624385Y-20788604D01*
X120624380Y-20788605D01*
X120624376Y-20788606D01*
X120563843Y-20807278D01*
X120559364Y-20808478D01*
X120497593Y-20822577D01*
X120497579Y-20822581D01*
X120438593Y-20845731D01*
X120434217Y-20847262D01*
X120373683Y-20865934D01*
X120373660Y-20865943D01*
X120316581Y-20893431D01*
X120312332Y-20895285D01*
X120253358Y-20918431D01*
X120198484Y-20950111D01*
X120194386Y-20952277D01*
X120137295Y-20979772D01*
X120137290Y-20979774D01*
X120084945Y-21015463D01*
X120081019Y-21017930D01*
X120026149Y-21049609D01*
X119976600Y-21089122D01*
X119972870Y-21091874D01*
X119920522Y-21127566D01*
X119920514Y-21127572D01*
X119874071Y-21170664D01*
X119870558Y-21173688D01*
X119821020Y-21213193D01*
X119777920Y-21259642D01*
X119774642Y-21262920D01*
X119728193Y-21306020D01*
X119688688Y-21355558D01*
X119685664Y-21359071D01*
X119642572Y-21405514D01*
X119642566Y-21405522D01*
X119606874Y-21457870D01*
X119604122Y-21461600D01*
X119564609Y-21511149D01*
X119532930Y-21566019D01*
X119530463Y-21569945D01*
X119494774Y-21622290D01*
X119494772Y-21622295D01*
X119467277Y-21679386D01*
X119465111Y-21683484D01*
X119433431Y-21738358D01*
X119410285Y-21797332D01*
X119408431Y-21801581D01*
X119380943Y-21858660D01*
X119380934Y-21858683D01*
X119362262Y-21919217D01*
X119360731Y-21923593D01*
X119337581Y-21982579D01*
X119337577Y-21982593D01*
X119323478Y-22044364D01*
X119322278Y-22048843D01*
X119303606Y-22109376D01*
X119303605Y-22109380D01*
X119303604Y-22109385D01*
X119300325Y-22131140D01*
X119294159Y-22172038D01*
X119293297Y-22176592D01*
X119286549Y-22206163D01*
X119279198Y-22238370D01*
X119277388Y-22262518D01*
X119274462Y-22301556D01*
X119273943Y-22306163D01*
X119264500Y-22368808D01*
X119264500Y-25581184D01*
X113260500Y-25581184D01*
X113260500Y-24337935D01*
X113245109Y-24152186D01*
X113245107Y-24152175D01*
X113184063Y-23911118D01*
X113084173Y-23683393D01*
X112948166Y-23475217D01*
X112926557Y-23451744D01*
X112779744Y-23292262D01*
X112583509Y-23139526D01*
X112583507Y-23139525D01*
X112583506Y-23139524D01*
X112364811Y-23021172D01*
X112364802Y-23021169D01*
X112129616Y-22940429D01*
X111884335Y-22899500D01*
X111635665Y-22899500D01*
X111390383Y-22940429D01*
X111155197Y-23021169D01*
X111155188Y-23021172D01*
X110936493Y-23139524D01*
X110740257Y-23292261D01*
X110571833Y-23475217D01*
X110435826Y-23683393D01*
X110335936Y-23911118D01*
X110274892Y-24152175D01*
X110274890Y-24152186D01*
X110259500Y-24337935D01*
X110259500Y-26462065D01*
X110274890Y-26647813D01*
X110274892Y-26647824D01*
X110335936Y-26888881D01*
X110435826Y-27116606D01*
X110571833Y-27324782D01*
X110571836Y-27324785D01*
X110740256Y-27507738D01*
X110768807Y-27529960D01*
X110936488Y-27660472D01*
X110936493Y-27660475D01*
X111069517Y-27732464D01*
X111119108Y-27781683D01*
X111134500Y-27841519D01*
X111134500Y-28336647D01*
X111114815Y-28403686D01*
X111062011Y-28449441D01*
X110992853Y-28459385D01*
X110929297Y-28430360D01*
X110919271Y-28420631D01*
X110874743Y-28372261D01*
X110794750Y-28310000D01*
X110678509Y-28219526D01*
X110678507Y-28219525D01*
X110678506Y-28219524D01*
X110459811Y-28101172D01*
X110459802Y-28101169D01*
X110224616Y-28020429D01*
X109979335Y-27979500D01*
X109730665Y-27979500D01*
X109485383Y-28020429D01*
X109250197Y-28101169D01*
X109250188Y-28101172D01*
X109031493Y-28219524D01*
X108835257Y-28372261D01*
X108666833Y-28555217D01*
X108530826Y-28763393D01*
X108430936Y-28991118D01*
X108369892Y-29232175D01*
X108369890Y-29232186D01*
X108354500Y-29417935D01*
X108354500Y-31542065D01*
X108369890Y-31727813D01*
X108369892Y-31727824D01*
X108430936Y-31968881D01*
X108530826Y-32196606D01*
X108666833Y-32404782D01*
X108666836Y-32404785D01*
X108835256Y-32587738D01*
X109031491Y-32740474D01*
X109250188Y-32858827D01*
X109254701Y-32861269D01*
X109253915Y-32862721D01*
X109301781Y-32902947D01*
X109322476Y-32969681D01*
X109303806Y-33037011D01*
X109286171Y-33059236D01*
X108197226Y-34148181D01*
X108135903Y-34181666D01*
X108109545Y-34184500D01*
X107219998Y-34184500D01*
X107219980Y-34184501D01*
X107117203Y-34195000D01*
X107117200Y-34195001D01*
X106950668Y-34250185D01*
X106950663Y-34250187D01*
X106801342Y-34342289D01*
X106677289Y-34466342D01*
X106585187Y-34615663D01*
X106585185Y-34615668D01*
X106564251Y-34678844D01*
X106530002Y-34782202D01*
X106530001Y-34782204D01*
X106530000Y-34782205D01*
X106525823Y-34823102D01*
X106499427Y-34887793D01*
X106442247Y-34927945D01*
X106402465Y-34934500D01*
X104417535Y-34934500D01*
X104350496Y-34914815D01*
X104304741Y-34862011D01*
X104294177Y-34823102D01*
X104291501Y-34796909D01*
X104289999Y-34782203D01*
X104234814Y-34615666D01*
X104142712Y-34466344D01*
X104018656Y-34342288D01*
X103869334Y-34250186D01*
X103702797Y-34195001D01*
X103702795Y-34195000D01*
X103600010Y-34184500D01*
X102699998Y-34184500D01*
X102699980Y-34184501D01*
X102597203Y-34195000D01*
X102597200Y-34195001D01*
X102430668Y-34250185D01*
X102430663Y-34250187D01*
X102281342Y-34342289D01*
X102157289Y-34466342D01*
X102065187Y-34615663D01*
X102065185Y-34615668D01*
X102044251Y-34678844D01*
X102010001Y-34782203D01*
X102010001Y-34782204D01*
X102010000Y-34782204D01*
X101999500Y-34884983D01*
X101999500Y-36235001D01*
X101200500Y-36235001D01*
X101200499Y-34884992D01*
X101198151Y-34862011D01*
X101189999Y-34782203D01*
X101189998Y-34782200D01*
X101166072Y-34709997D01*
X101134814Y-34615666D01*
X101042712Y-34466344D01*
X100918656Y-34342288D01*
X100769334Y-34250186D01*
X100602797Y-34195001D01*
X100602795Y-34195000D01*
X100500010Y-34184500D01*
X99599998Y-34184500D01*
X99599980Y-34184501D01*
X99497203Y-34195000D01*
X99497200Y-34195001D01*
X99330668Y-34250185D01*
X99330663Y-34250187D01*
X99181342Y-34342289D01*
X99057289Y-34466342D01*
X98965187Y-34615663D01*
X98965185Y-34615668D01*
X98944251Y-34678844D01*
X98910002Y-34782202D01*
X98910001Y-34782204D01*
X98910000Y-34782205D01*
X98905823Y-34823102D01*
X98879427Y-34887793D01*
X98822247Y-34927945D01*
X98782465Y-34934500D01*
X95439591Y-34934500D01*
X95372552Y-34914815D01*
X95326797Y-34862011D01*
X95321886Y-34849506D01*
X95314815Y-34828168D01*
X95314812Y-34828163D01*
X95222712Y-34678844D01*
X95098656Y-34554788D01*
X95005888Y-34497569D01*
X94949336Y-34462687D01*
X94949331Y-34462685D01*
X94947862Y-34462198D01*
X94782797Y-34407501D01*
X94782795Y-34407500D01*
X94680010Y-34397000D01*
X93279998Y-34397000D01*
X93279981Y-34397001D01*
X93177203Y-34407500D01*
X93177200Y-34407501D01*
X93010668Y-34462685D01*
X93010663Y-34462687D01*
X92861342Y-34554789D01*
X92737289Y-34678842D01*
X92645184Y-34828168D01*
X92638114Y-34849506D01*
X92598341Y-34906950D01*
X92533825Y-34933772D01*
X92520409Y-34934500D01*
X90359591Y-34934500D01*
X90292552Y-34914815D01*
X90246797Y-34862011D01*
X90241886Y-34849506D01*
X90234815Y-34828168D01*
X90234812Y-34828163D01*
X90142712Y-34678844D01*
X90018656Y-34554788D01*
X89925888Y-34497569D01*
X89869336Y-34462687D01*
X89869331Y-34462685D01*
X89867862Y-34462198D01*
X89702797Y-34407501D01*
X89702795Y-34407500D01*
X89600010Y-34397000D01*
X88199998Y-34397000D01*
X88199981Y-34397001D01*
X88097203Y-34407500D01*
X88097200Y-34407501D01*
X87930668Y-34462685D01*
X87930663Y-34462687D01*
X87781342Y-34554789D01*
X87657289Y-34678842D01*
X87565187Y-34828163D01*
X87565185Y-34828168D01*
X87537349Y-34912170D01*
X87510001Y-34994703D01*
X87510001Y-34994704D01*
X87510000Y-34994704D01*
X87499500Y-35097483D01*
X87499500Y-36022501D01*
X50030500Y-36022501D01*
X50030500Y-33807870D01*
X53199500Y-33807870D01*
X53199501Y-33807876D01*
X53205908Y-33867483D01*
X53256202Y-34002328D01*
X53256206Y-34002335D01*
X53342452Y-34117544D01*
X53342455Y-34117547D01*
X53457664Y-34203793D01*
X53457671Y-34203797D01*
X53592517Y-34254091D01*
X53592516Y-34254091D01*
X53599444Y-34254835D01*
X53652127Y-34260500D01*
X57747872Y-34260499D01*
X57807483Y-34254091D01*
X57942331Y-34203796D01*
X58057546Y-34117546D01*
X58143796Y-34002331D01*
X58194091Y-33867483D01*
X58200500Y-33807873D01*
X58200499Y-31512128D01*
X58194091Y-31452517D01*
X58143796Y-31317669D01*
X58143795Y-31317668D01*
X58143793Y-31317664D01*
X58057547Y-31202455D01*
X58057544Y-31202452D01*
X57942335Y-31116206D01*
X57942328Y-31116202D01*
X57807482Y-31065908D01*
X57807483Y-31065908D01*
X57747883Y-31059501D01*
X57747881Y-31059500D01*
X57747873Y-31059500D01*
X57747864Y-31059500D01*
X53652129Y-31059500D01*
X53652123Y-31059501D01*
X53592516Y-31065908D01*
X53457671Y-31116202D01*
X53457664Y-31116206D01*
X53342455Y-31202452D01*
X53342452Y-31202455D01*
X53256206Y-31317664D01*
X53256202Y-31317671D01*
X53205908Y-31452517D01*
X53201900Y-31489804D01*
X53199501Y-31512123D01*
X53199500Y-31512135D01*
X53199500Y-33807870D01*
X50030500Y-33807870D01*
X50030500Y-30167978D01*
X50050185Y-30100939D01*
X50102989Y-30055184D01*
X50172147Y-30045240D01*
X50235703Y-30074265D01*
X50248791Y-30087447D01*
X50255131Y-30094870D01*
X50446632Y-30258428D01*
X50446637Y-30258431D01*
X50661368Y-30390019D01*
X50894043Y-30486396D01*
X51138932Y-30545188D01*
X51139999Y-30545271D01*
X51140000Y-30545271D01*
X51140000Y-28664310D01*
X51148817Y-28669158D01*
X51307886Y-28710000D01*
X51430894Y-28710000D01*
X51552933Y-28694583D01*
X51640000Y-28660110D01*
X51640000Y-30545271D01*
X51641067Y-30545188D01*
X51885956Y-30486396D01*
X52118631Y-30390019D01*
X52333362Y-30258431D01*
X52333367Y-30258428D01*
X52524869Y-30094869D01*
X52688428Y-29903367D01*
X52688431Y-29903362D01*
X52820019Y-29688631D01*
X52916396Y-29455956D01*
X52975186Y-29211072D01*
X52990000Y-29022872D01*
X52990000Y-28310000D01*
X51990728Y-28310000D01*
X52013100Y-28262457D01*
X52043873Y-28101138D01*
X52033561Y-27937234D01*
X51992220Y-27810000D01*
X52990000Y-27810000D01*
X52990000Y-27097128D01*
X52975186Y-26908927D01*
X52916396Y-26664043D01*
X52820019Y-26431368D01*
X52688431Y-26216637D01*
X52688428Y-26216632D01*
X52524869Y-26025130D01*
X52333367Y-25861571D01*
X52333362Y-25861568D01*
X52118631Y-25729980D01*
X51885956Y-25633603D01*
X51641064Y-25574811D01*
X51640000Y-25574726D01*
X51640000Y-27455689D01*
X51631183Y-27450842D01*
X51472114Y-27410000D01*
X51349106Y-27410000D01*
X51227067Y-27425417D01*
X51140000Y-27459889D01*
X51140000Y-25574726D01*
X51138935Y-25574811D01*
X50894043Y-25633603D01*
X50661368Y-25729980D01*
X50446637Y-25861568D01*
X50446632Y-25861571D01*
X50255131Y-26025129D01*
X50248788Y-26032556D01*
X50190279Y-26070747D01*
X50120412Y-26071243D01*
X50061366Y-26033888D01*
X50031891Y-25970540D01*
X50030500Y-25952021D01*
X50030500Y-22860000D01*
X53194551Y-22860000D01*
X53214317Y-23111151D01*
X53273126Y-23356110D01*
X53369533Y-23588859D01*
X53501160Y-23803653D01*
X53501161Y-23803656D01*
X53501164Y-23803659D01*
X53664776Y-23995224D01*
X53813066Y-24121875D01*
X53856343Y-24158838D01*
X53856346Y-24158839D01*
X54071140Y-24290466D01*
X54303889Y-24386873D01*
X54548852Y-24445683D01*
X54704950Y-24457968D01*
X54737116Y-24460500D01*
X54737118Y-24460500D01*
X56662884Y-24460500D01*
X56692518Y-24458167D01*
X56851148Y-24445683D01*
X57096111Y-24386873D01*
X57328859Y-24290466D01*
X57543659Y-24158836D01*
X57735224Y-23995224D01*
X57898836Y-23803659D01*
X58030466Y-23588859D01*
X58041572Y-23562048D01*
X58085412Y-23507644D01*
X58151706Y-23485579D01*
X58156133Y-23485500D01*
X61919548Y-23485500D01*
X61986587Y-23505185D01*
X62007229Y-23521819D01*
X66194194Y-27708784D01*
X66204019Y-27721048D01*
X66204240Y-27720866D01*
X66209210Y-27726873D01*
X66209213Y-27726876D01*
X66209214Y-27726877D01*
X66259651Y-27774241D01*
X66280530Y-27795120D01*
X66286004Y-27799366D01*
X66290442Y-27803156D01*
X66324418Y-27835062D01*
X66324422Y-27835064D01*
X66341973Y-27844713D01*
X66358231Y-27855392D01*
X66374064Y-27867674D01*
X66396015Y-27877172D01*
X66416837Y-27886183D01*
X66422081Y-27888752D01*
X66462908Y-27911197D01*
X66482312Y-27916179D01*
X66500710Y-27922478D01*
X66519105Y-27930438D01*
X66565129Y-27937726D01*
X66570832Y-27938907D01*
X66615981Y-27950500D01*
X66636016Y-27950500D01*
X66655413Y-27952026D01*
X66675196Y-27955160D01*
X66721584Y-27950775D01*
X66727422Y-27950500D01*
X74748942Y-27950500D01*
X74815981Y-27970185D01*
X74861736Y-28022989D01*
X74871680Y-28092147D01*
X74842655Y-28155703D01*
X74807960Y-28183555D01*
X74741493Y-28219524D01*
X74545257Y-28372261D01*
X74376833Y-28555217D01*
X74240826Y-28763393D01*
X74140936Y-28991118D01*
X74079892Y-29232175D01*
X74079890Y-29232186D01*
X74064500Y-29417935D01*
X74064500Y-31542065D01*
X74079890Y-31727813D01*
X74079892Y-31727824D01*
X74140936Y-31968881D01*
X74240826Y-32196606D01*
X74376833Y-32404782D01*
X74376836Y-32404785D01*
X74545256Y-32587738D01*
X74741491Y-32740474D01*
X74741493Y-32740475D01*
X74959332Y-32858364D01*
X74960190Y-32858828D01*
X75136167Y-32919241D01*
X75193964Y-32939083D01*
X75195386Y-32939571D01*
X75440665Y-32980500D01*
X75689335Y-32980500D01*
X75934614Y-32939571D01*
X76169810Y-32858828D01*
X76388509Y-32740474D01*
X76584744Y-32587738D01*
X76753164Y-32404785D01*
X76889173Y-32196607D01*
X76989063Y-31968881D01*
X77050108Y-31727821D01*
X77056897Y-31645896D01*
X77065500Y-31542065D01*
X77874500Y-31542065D01*
X77889890Y-31727813D01*
X77889892Y-31727824D01*
X77950936Y-31968881D01*
X78050826Y-32196606D01*
X78186833Y-32404782D01*
X78186836Y-32404785D01*
X78355256Y-32587738D01*
X78551491Y-32740474D01*
X78551493Y-32740475D01*
X78769332Y-32858364D01*
X78770190Y-32858828D01*
X78946167Y-32919241D01*
X79003964Y-32939083D01*
X79005386Y-32939571D01*
X79250665Y-32980500D01*
X79499335Y-32980500D01*
X79744614Y-32939571D01*
X79979810Y-32858828D01*
X80198509Y-32740474D01*
X80394744Y-32587738D01*
X80563164Y-32404785D01*
X80699173Y-32196607D01*
X80799063Y-31968881D01*
X80860108Y-31727821D01*
X80866897Y-31645896D01*
X80875500Y-31542065D01*
X80875500Y-31542041D01*
X81685000Y-31542041D01*
X81700385Y-31727730D01*
X81700387Y-31727738D01*
X81761412Y-31968717D01*
X81861267Y-32196367D01*
X81997232Y-32404478D01*
X82165592Y-32587364D01*
X82165602Y-32587373D01*
X82361762Y-32740051D01*
X82361771Y-32740057D01*
X82580385Y-32858364D01*
X82580396Y-32858369D01*
X82815507Y-32939083D01*
X82934999Y-32959023D01*
X82935000Y-32959022D01*
X82935000Y-31084310D01*
X82943817Y-31089158D01*
X83102886Y-31130000D01*
X83225894Y-31130000D01*
X83347933Y-31114583D01*
X83435000Y-31080110D01*
X83435000Y-32959023D01*
X83554492Y-32939083D01*
X83789603Y-32858369D01*
X83789614Y-32858364D01*
X84008228Y-32740057D01*
X84008237Y-32740051D01*
X84204397Y-32587373D01*
X84204407Y-32587364D01*
X84372767Y-32404478D01*
X84508732Y-32196367D01*
X84608587Y-31968717D01*
X84669612Y-31727738D01*
X84669614Y-31727730D01*
X84684998Y-31542065D01*
X85494500Y-31542065D01*
X85509890Y-31727813D01*
X85509892Y-31727824D01*
X85570936Y-31968881D01*
X85670826Y-32196606D01*
X85806833Y-32404782D01*
X85806836Y-32404785D01*
X85975256Y-32587738D01*
X86171491Y-32740474D01*
X86171493Y-32740475D01*
X86389332Y-32858364D01*
X86390190Y-32858828D01*
X86566167Y-32919241D01*
X86623964Y-32939083D01*
X86625386Y-32939571D01*
X86870665Y-32980500D01*
X87119335Y-32980500D01*
X87364614Y-32939571D01*
X87599810Y-32858828D01*
X87818509Y-32740474D01*
X88014744Y-32587738D01*
X88183164Y-32404785D01*
X88319173Y-32196607D01*
X88419063Y-31968881D01*
X88480108Y-31727821D01*
X88486897Y-31645896D01*
X88495500Y-31542065D01*
X88495500Y-31542041D01*
X89305000Y-31542041D01*
X89320385Y-31727730D01*
X89320387Y-31727738D01*
X89381412Y-31968717D01*
X89481267Y-32196367D01*
X89617232Y-32404478D01*
X89785592Y-32587364D01*
X89785602Y-32587373D01*
X89981762Y-32740051D01*
X89981771Y-32740057D01*
X90200385Y-32858364D01*
X90200396Y-32858369D01*
X90435507Y-32939083D01*
X90554999Y-32959023D01*
X90555000Y-32959022D01*
X90555000Y-31084310D01*
X90563817Y-31089158D01*
X90722886Y-31130000D01*
X90845894Y-31130000D01*
X90967933Y-31114583D01*
X91055000Y-31080110D01*
X91055000Y-32959023D01*
X91174492Y-32939083D01*
X91409603Y-32858369D01*
X91409614Y-32858364D01*
X91628228Y-32740057D01*
X91628237Y-32740051D01*
X91824397Y-32587373D01*
X91824407Y-32587364D01*
X91992767Y-32404478D01*
X92128732Y-32196367D01*
X92228587Y-31968717D01*
X92289612Y-31727738D01*
X92289614Y-31727730D01*
X92304998Y-31542065D01*
X93114500Y-31542065D01*
X93129890Y-31727813D01*
X93129892Y-31727824D01*
X93190936Y-31968881D01*
X93290826Y-32196606D01*
X93426833Y-32404782D01*
X93426836Y-32404785D01*
X93595256Y-32587738D01*
X93791491Y-32740474D01*
X93791493Y-32740475D01*
X94009332Y-32858364D01*
X94010190Y-32858828D01*
X94186167Y-32919241D01*
X94243964Y-32939083D01*
X94245386Y-32939571D01*
X94490665Y-32980500D01*
X94739335Y-32980500D01*
X94984614Y-32939571D01*
X95219810Y-32858828D01*
X95438509Y-32740474D01*
X95634744Y-32587738D01*
X95803164Y-32404785D01*
X95939173Y-32196607D01*
X96039063Y-31968881D01*
X96100108Y-31727821D01*
X96106897Y-31645896D01*
X96115500Y-31542065D01*
X96115500Y-31542041D01*
X96925000Y-31542041D01*
X96940385Y-31727730D01*
X96940387Y-31727738D01*
X97001412Y-31968717D01*
X97101267Y-32196367D01*
X97237232Y-32404478D01*
X97405592Y-32587364D01*
X97405602Y-32587373D01*
X97601762Y-32740051D01*
X97601771Y-32740057D01*
X97820385Y-32858364D01*
X97820396Y-32858369D01*
X98055507Y-32939083D01*
X98174999Y-32959023D01*
X98175000Y-32959022D01*
X98175000Y-31084310D01*
X98183817Y-31089158D01*
X98342886Y-31130000D01*
X98465894Y-31130000D01*
X98587933Y-31114583D01*
X98675000Y-31080110D01*
X98675000Y-32959023D01*
X98794492Y-32939083D01*
X99029603Y-32858369D01*
X99029614Y-32858364D01*
X99248228Y-32740057D01*
X99248237Y-32740051D01*
X99444397Y-32587373D01*
X99444407Y-32587364D01*
X99612767Y-32404478D01*
X99748732Y-32196367D01*
X99848587Y-31968717D01*
X99909612Y-31727738D01*
X99909614Y-31727730D01*
X99924998Y-31542065D01*
X100734500Y-31542065D01*
X100749890Y-31727813D01*
X100749892Y-31727824D01*
X100810936Y-31968881D01*
X100910826Y-32196606D01*
X101046833Y-32404782D01*
X101046836Y-32404785D01*
X101215256Y-32587738D01*
X101411491Y-32740474D01*
X101411493Y-32740475D01*
X101629332Y-32858364D01*
X101630190Y-32858828D01*
X101806167Y-32919241D01*
X101863964Y-32939083D01*
X101865386Y-32939571D01*
X102110665Y-32980500D01*
X102359335Y-32980500D01*
X102604614Y-32939571D01*
X102839810Y-32858828D01*
X103058509Y-32740474D01*
X103254744Y-32587738D01*
X103423164Y-32404785D01*
X103559173Y-32196607D01*
X103659063Y-31968881D01*
X103720108Y-31727821D01*
X103726897Y-31645896D01*
X103735500Y-31542065D01*
X103735500Y-31542041D01*
X104545000Y-31542041D01*
X104560385Y-31727730D01*
X104560387Y-31727738D01*
X104621412Y-31968717D01*
X104721267Y-32196367D01*
X104857232Y-32404478D01*
X105025592Y-32587364D01*
X105025602Y-32587373D01*
X105221762Y-32740051D01*
X105221771Y-32740057D01*
X105440385Y-32858364D01*
X105440396Y-32858369D01*
X105675507Y-32939083D01*
X105794999Y-32959023D01*
X105795000Y-32959022D01*
X105795000Y-31084310D01*
X105803817Y-31089158D01*
X105962886Y-31130000D01*
X106085894Y-31130000D01*
X106207933Y-31114583D01*
X106295000Y-31080110D01*
X106295000Y-32959023D01*
X106414492Y-32939083D01*
X106649603Y-32858369D01*
X106649614Y-32858364D01*
X106868228Y-32740057D01*
X106868237Y-32740051D01*
X107064397Y-32587373D01*
X107064407Y-32587364D01*
X107232767Y-32404478D01*
X107368732Y-32196367D01*
X107468587Y-31968717D01*
X107529612Y-31727738D01*
X107529614Y-31727730D01*
X107545000Y-31542041D01*
X107545000Y-30730000D01*
X106645728Y-30730000D01*
X106668100Y-30682457D01*
X106698873Y-30521138D01*
X106688561Y-30357234D01*
X106647220Y-30230000D01*
X107545000Y-30230000D01*
X107545000Y-29417959D01*
X107529614Y-29232269D01*
X107529612Y-29232261D01*
X107468587Y-28991282D01*
X107368732Y-28763632D01*
X107232767Y-28555521D01*
X107064407Y-28372635D01*
X107064397Y-28372626D01*
X106868237Y-28219948D01*
X106868228Y-28219942D01*
X106649614Y-28101635D01*
X106649603Y-28101630D01*
X106414492Y-28020916D01*
X106295000Y-28000976D01*
X106295000Y-29875689D01*
X106286183Y-29870842D01*
X106127114Y-29830000D01*
X106004106Y-29830000D01*
X105882067Y-29845417D01*
X105795000Y-29879889D01*
X105795000Y-28000976D01*
X105794999Y-28000976D01*
X105675507Y-28020916D01*
X105440396Y-28101630D01*
X105440385Y-28101635D01*
X105221771Y-28219942D01*
X105221762Y-28219948D01*
X105025602Y-28372626D01*
X105025592Y-28372635D01*
X104857232Y-28555521D01*
X104721267Y-28763632D01*
X104621412Y-28991282D01*
X104560387Y-29232261D01*
X104560385Y-29232269D01*
X104545000Y-29417959D01*
X104545000Y-30230000D01*
X105444272Y-30230000D01*
X105421900Y-30277543D01*
X105391127Y-30438862D01*
X105401439Y-30602766D01*
X105442780Y-30730000D01*
X104545000Y-30730000D01*
X104545000Y-31542041D01*
X103735500Y-31542041D01*
X103735500Y-29417935D01*
X103720109Y-29232186D01*
X103720107Y-29232175D01*
X103659063Y-28991118D01*
X103559173Y-28763393D01*
X103423166Y-28555217D01*
X103325792Y-28449441D01*
X103254744Y-28372262D01*
X103058509Y-28219526D01*
X103058507Y-28219525D01*
X103058506Y-28219524D01*
X102839811Y-28101172D01*
X102839802Y-28101169D01*
X102604616Y-28020429D01*
X102359335Y-27979500D01*
X102110665Y-27979500D01*
X101865383Y-28020429D01*
X101630197Y-28101169D01*
X101630188Y-28101172D01*
X101411493Y-28219524D01*
X101215257Y-28372261D01*
X101046833Y-28555217D01*
X100910826Y-28763393D01*
X100810936Y-28991118D01*
X100749892Y-29232175D01*
X100749890Y-29232186D01*
X100734500Y-29417935D01*
X100734500Y-31542065D01*
X99924998Y-31542065D01*
X99925000Y-31542041D01*
X99925000Y-30730000D01*
X99025728Y-30730000D01*
X99048100Y-30682457D01*
X99078873Y-30521138D01*
X99068561Y-30357234D01*
X99027220Y-30230000D01*
X99925000Y-30230000D01*
X99925000Y-29417959D01*
X99909614Y-29232269D01*
X99909612Y-29232261D01*
X99848587Y-28991282D01*
X99748732Y-28763632D01*
X99612767Y-28555521D01*
X99444407Y-28372635D01*
X99444397Y-28372626D01*
X99248237Y-28219948D01*
X99248228Y-28219942D01*
X99029614Y-28101635D01*
X99029603Y-28101630D01*
X98794492Y-28020916D01*
X98675000Y-28000976D01*
X98675000Y-29875689D01*
X98666183Y-29870842D01*
X98507114Y-29830000D01*
X98384106Y-29830000D01*
X98262067Y-29845417D01*
X98175000Y-29879889D01*
X98175000Y-28000976D01*
X98174999Y-28000976D01*
X98055507Y-28020916D01*
X97820396Y-28101630D01*
X97820385Y-28101635D01*
X97601771Y-28219942D01*
X97601762Y-28219948D01*
X97405602Y-28372626D01*
X97405592Y-28372635D01*
X97237232Y-28555521D01*
X97101267Y-28763632D01*
X97001412Y-28991282D01*
X96940387Y-29232261D01*
X96940385Y-29232269D01*
X96925000Y-29417959D01*
X96925000Y-30230000D01*
X97824272Y-30230000D01*
X97801900Y-30277543D01*
X97771127Y-30438862D01*
X97781439Y-30602766D01*
X97822780Y-30730000D01*
X96925000Y-30730000D01*
X96925000Y-31542041D01*
X96115500Y-31542041D01*
X96115500Y-29417935D01*
X96100109Y-29232186D01*
X96100107Y-29232175D01*
X96039063Y-28991118D01*
X95939173Y-28763393D01*
X95803166Y-28555217D01*
X95705792Y-28449441D01*
X95634744Y-28372262D01*
X95438509Y-28219526D01*
X95438507Y-28219525D01*
X95438506Y-28219524D01*
X95219811Y-28101172D01*
X95219802Y-28101169D01*
X94984616Y-28020429D01*
X94739335Y-27979500D01*
X94490665Y-27979500D01*
X94245383Y-28020429D01*
X94010197Y-28101169D01*
X94010188Y-28101172D01*
X93791493Y-28219524D01*
X93595257Y-28372261D01*
X93426833Y-28555217D01*
X93290826Y-28763393D01*
X93190936Y-28991118D01*
X93129892Y-29232175D01*
X93129890Y-29232186D01*
X93114500Y-29417935D01*
X93114500Y-31542065D01*
X92304998Y-31542065D01*
X92305000Y-31542041D01*
X92305000Y-30730000D01*
X91405728Y-30730000D01*
X91428100Y-30682457D01*
X91458873Y-30521138D01*
X91448561Y-30357234D01*
X91407220Y-30230000D01*
X92305000Y-30230000D01*
X92305000Y-29417959D01*
X92289614Y-29232269D01*
X92289612Y-29232261D01*
X92228587Y-28991282D01*
X92128732Y-28763632D01*
X91992767Y-28555521D01*
X91824407Y-28372635D01*
X91824397Y-28372626D01*
X91628237Y-28219948D01*
X91628228Y-28219942D01*
X91409614Y-28101635D01*
X91409603Y-28101630D01*
X91174492Y-28020916D01*
X91055000Y-28000976D01*
X91055000Y-29875689D01*
X91046183Y-29870842D01*
X90887114Y-29830000D01*
X90764106Y-29830000D01*
X90642067Y-29845417D01*
X90555000Y-29879889D01*
X90555000Y-28000976D01*
X90554999Y-28000976D01*
X90435507Y-28020916D01*
X90200396Y-28101630D01*
X90200385Y-28101635D01*
X89981771Y-28219942D01*
X89981762Y-28219948D01*
X89785602Y-28372626D01*
X89785592Y-28372635D01*
X89617232Y-28555521D01*
X89481267Y-28763632D01*
X89381412Y-28991282D01*
X89320387Y-29232261D01*
X89320385Y-29232269D01*
X89305000Y-29417959D01*
X89305000Y-30230000D01*
X90204272Y-30230000D01*
X90181900Y-30277543D01*
X90151127Y-30438862D01*
X90161439Y-30602766D01*
X90202780Y-30730000D01*
X89305000Y-30730000D01*
X89305000Y-31542041D01*
X88495500Y-31542041D01*
X88495500Y-29417935D01*
X88480109Y-29232186D01*
X88480107Y-29232175D01*
X88419063Y-28991118D01*
X88319173Y-28763393D01*
X88183166Y-28555217D01*
X88085792Y-28449441D01*
X88014744Y-28372262D01*
X87818509Y-28219526D01*
X87818507Y-28219525D01*
X87818506Y-28219524D01*
X87599811Y-28101172D01*
X87599802Y-28101169D01*
X87364616Y-28020429D01*
X87119335Y-27979500D01*
X86870665Y-27979500D01*
X86625383Y-28020429D01*
X86390197Y-28101169D01*
X86390188Y-28101172D01*
X86171493Y-28219524D01*
X85975257Y-28372261D01*
X85806833Y-28555217D01*
X85670826Y-28763393D01*
X85570936Y-28991118D01*
X85509892Y-29232175D01*
X85509890Y-29232186D01*
X85494500Y-29417935D01*
X85494500Y-31542065D01*
X84684998Y-31542065D01*
X84685000Y-31542041D01*
X84685000Y-30730000D01*
X83785728Y-30730000D01*
X83808100Y-30682457D01*
X83838873Y-30521138D01*
X83828561Y-30357234D01*
X83787220Y-30230000D01*
X84685000Y-30230000D01*
X84685000Y-29417959D01*
X84669614Y-29232269D01*
X84669612Y-29232261D01*
X84608587Y-28991282D01*
X84508732Y-28763632D01*
X84372767Y-28555521D01*
X84204407Y-28372635D01*
X84204397Y-28372626D01*
X84008237Y-28219948D01*
X84008228Y-28219942D01*
X83789614Y-28101635D01*
X83789603Y-28101630D01*
X83554492Y-28020916D01*
X83435000Y-28000976D01*
X83435000Y-29875689D01*
X83426183Y-29870842D01*
X83267114Y-29830000D01*
X83144106Y-29830000D01*
X83022067Y-29845417D01*
X82935000Y-29879889D01*
X82935000Y-28000976D01*
X82934999Y-28000976D01*
X82815507Y-28020916D01*
X82580396Y-28101630D01*
X82580385Y-28101635D01*
X82361771Y-28219942D01*
X82361762Y-28219948D01*
X82165602Y-28372626D01*
X82165592Y-28372635D01*
X81997232Y-28555521D01*
X81861267Y-28763632D01*
X81761412Y-28991282D01*
X81700387Y-29232261D01*
X81700385Y-29232269D01*
X81685000Y-29417959D01*
X81685000Y-30230000D01*
X82584272Y-30230000D01*
X82561900Y-30277543D01*
X82531127Y-30438862D01*
X82541439Y-30602766D01*
X82582780Y-30730000D01*
X81685000Y-30730000D01*
X81685000Y-31542041D01*
X80875500Y-31542041D01*
X80875500Y-29417935D01*
X80860109Y-29232186D01*
X80860107Y-29232175D01*
X80799063Y-28991118D01*
X80699173Y-28763393D01*
X80563166Y-28555217D01*
X80465792Y-28449441D01*
X80394744Y-28372262D01*
X80198509Y-28219526D01*
X80198507Y-28219525D01*
X80198506Y-28219524D01*
X79979811Y-28101172D01*
X79979802Y-28101169D01*
X79744616Y-28020429D01*
X79499335Y-27979500D01*
X79250665Y-27979500D01*
X79005383Y-28020429D01*
X78770197Y-28101169D01*
X78770188Y-28101172D01*
X78551493Y-28219524D01*
X78355257Y-28372261D01*
X78186833Y-28555217D01*
X78050826Y-28763393D01*
X77950936Y-28991118D01*
X77889892Y-29232175D01*
X77889890Y-29232186D01*
X77874500Y-29417935D01*
X77874500Y-31542065D01*
X77065500Y-31542065D01*
X77065500Y-29417935D01*
X77050109Y-29232186D01*
X77050107Y-29232175D01*
X76989063Y-28991118D01*
X76889173Y-28763393D01*
X76753166Y-28555217D01*
X76655792Y-28449441D01*
X76584744Y-28372262D01*
X76388509Y-28219526D01*
X76388507Y-28219525D01*
X76388506Y-28219524D01*
X76169811Y-28101172D01*
X76169802Y-28101169D01*
X75973261Y-28033695D01*
X75916245Y-27993309D01*
X75890115Y-27928509D01*
X75903167Y-27859870D01*
X75927754Y-27830548D01*
X75925898Y-27828692D01*
X75931417Y-27823171D01*
X75931420Y-27823170D01*
X75945589Y-27808999D01*
X75960379Y-27796368D01*
X75976587Y-27784594D01*
X76006299Y-27748676D01*
X76010212Y-27744376D01*
X76261379Y-27493209D01*
X76322700Y-27459726D01*
X76392392Y-27464710D01*
X76440285Y-27496907D01*
X76450256Y-27507738D01*
X76646491Y-27660474D01*
X76646493Y-27660475D01*
X76864332Y-27778364D01*
X76865190Y-27778828D01*
X77057106Y-27844713D01*
X77098964Y-27859083D01*
X77100386Y-27859571D01*
X77345665Y-27900500D01*
X77594335Y-27900500D01*
X77839614Y-27859571D01*
X78074810Y-27778828D01*
X78293509Y-27660474D01*
X78489744Y-27507738D01*
X78658164Y-27324785D01*
X78794173Y-27116607D01*
X78894063Y-26888881D01*
X78955108Y-26647821D01*
X78956833Y-26627011D01*
X78970500Y-26462065D01*
X78970500Y-26462041D01*
X79780000Y-26462041D01*
X79795385Y-26647730D01*
X79795387Y-26647738D01*
X79856412Y-26888717D01*
X79956267Y-27116367D01*
X80092232Y-27324478D01*
X80260592Y-27507364D01*
X80260602Y-27507373D01*
X80456762Y-27660051D01*
X80456771Y-27660057D01*
X80675385Y-27778364D01*
X80675396Y-27778369D01*
X80910507Y-27859083D01*
X81029999Y-27879023D01*
X81030000Y-27879022D01*
X81030000Y-26004310D01*
X81038817Y-26009158D01*
X81197886Y-26050000D01*
X81320894Y-26050000D01*
X81442933Y-26034583D01*
X81530000Y-26000110D01*
X81530000Y-27879023D01*
X81649492Y-27859083D01*
X81884603Y-27778369D01*
X81884614Y-27778364D01*
X82103228Y-27660057D01*
X82103237Y-27660051D01*
X82299397Y-27507373D01*
X82299407Y-27507364D01*
X82467767Y-27324478D01*
X82603732Y-27116367D01*
X82703587Y-26888717D01*
X82764612Y-26647738D01*
X82764614Y-26647730D01*
X82779998Y-26462065D01*
X83589500Y-26462065D01*
X83604890Y-26647813D01*
X83604892Y-26647824D01*
X83665936Y-26888881D01*
X83765826Y-27116606D01*
X83901833Y-27324782D01*
X83901836Y-27324785D01*
X84070256Y-27507738D01*
X84266491Y-27660474D01*
X84266493Y-27660475D01*
X84484332Y-27778364D01*
X84485190Y-27778828D01*
X84677106Y-27844713D01*
X84718964Y-27859083D01*
X84720386Y-27859571D01*
X84965665Y-27900500D01*
X85214335Y-27900500D01*
X85459614Y-27859571D01*
X85694810Y-27778828D01*
X85913509Y-27660474D01*
X86109744Y-27507738D01*
X86278164Y-27324785D01*
X86414173Y-27116607D01*
X86514063Y-26888881D01*
X86575108Y-26647821D01*
X86576833Y-26627011D01*
X86590500Y-26462065D01*
X87399500Y-26462065D01*
X87414890Y-26647813D01*
X87414892Y-26647824D01*
X87475936Y-26888881D01*
X87575826Y-27116606D01*
X87711833Y-27324782D01*
X87711836Y-27324785D01*
X87880256Y-27507738D01*
X88076491Y-27660474D01*
X88076493Y-27660475D01*
X88294332Y-27778364D01*
X88295190Y-27778828D01*
X88487106Y-27844713D01*
X88528964Y-27859083D01*
X88530386Y-27859571D01*
X88775665Y-27900500D01*
X89024335Y-27900500D01*
X89269614Y-27859571D01*
X89504810Y-27778828D01*
X89723509Y-27660474D01*
X89919744Y-27507738D01*
X90088164Y-27324785D01*
X90224173Y-27116607D01*
X90324063Y-26888881D01*
X90385108Y-26647821D01*
X90386833Y-26627011D01*
X90400500Y-26462065D01*
X91209500Y-26462065D01*
X91224890Y-26647813D01*
X91224892Y-26647824D01*
X91285936Y-26888881D01*
X91385826Y-27116606D01*
X91521833Y-27324782D01*
X91521836Y-27324785D01*
X91690256Y-27507738D01*
X91886491Y-27660474D01*
X91886493Y-27660475D01*
X92104332Y-27778364D01*
X92105190Y-27778828D01*
X92297106Y-27844713D01*
X92338964Y-27859083D01*
X92340386Y-27859571D01*
X92585665Y-27900500D01*
X92834335Y-27900500D01*
X93079614Y-27859571D01*
X93314810Y-27778828D01*
X93533509Y-27660474D01*
X93729744Y-27507738D01*
X93898164Y-27324785D01*
X94034173Y-27116607D01*
X94134063Y-26888881D01*
X94195108Y-26647821D01*
X94196833Y-26627011D01*
X94210500Y-26462065D01*
X95019500Y-26462065D01*
X95034890Y-26647813D01*
X95034892Y-26647824D01*
X95095936Y-26888881D01*
X95195826Y-27116606D01*
X95331833Y-27324782D01*
X95331836Y-27324785D01*
X95500256Y-27507738D01*
X95696491Y-27660474D01*
X95696493Y-27660475D01*
X95914332Y-27778364D01*
X95915190Y-27778828D01*
X96107106Y-27844713D01*
X96148964Y-27859083D01*
X96150386Y-27859571D01*
X96395665Y-27900500D01*
X96644335Y-27900500D01*
X96889614Y-27859571D01*
X97124810Y-27778828D01*
X97343509Y-27660474D01*
X97539744Y-27507738D01*
X97708164Y-27324785D01*
X97844173Y-27116607D01*
X97944063Y-26888881D01*
X98005108Y-26647821D01*
X98006833Y-26627011D01*
X98020500Y-26462065D01*
X98020500Y-26462041D01*
X98830000Y-26462041D01*
X98845385Y-26647730D01*
X98845387Y-26647738D01*
X98906412Y-26888717D01*
X99006267Y-27116367D01*
X99142232Y-27324478D01*
X99310592Y-27507364D01*
X99310602Y-27507373D01*
X99506762Y-27660051D01*
X99506771Y-27660057D01*
X99725385Y-27778364D01*
X99725396Y-27778369D01*
X99960507Y-27859083D01*
X100079999Y-27879023D01*
X100080000Y-27879022D01*
X100080000Y-26004310D01*
X100088817Y-26009158D01*
X100247886Y-26050000D01*
X100370894Y-26050000D01*
X100492933Y-26034583D01*
X100580000Y-26000110D01*
X100580000Y-27879023D01*
X100699492Y-27859083D01*
X100934603Y-27778369D01*
X100934614Y-27778364D01*
X101153228Y-27660057D01*
X101153237Y-27660051D01*
X101349397Y-27507373D01*
X101349407Y-27507364D01*
X101517767Y-27324478D01*
X101653732Y-27116367D01*
X101753587Y-26888717D01*
X101814612Y-26647738D01*
X101814614Y-26647730D01*
X101829998Y-26462065D01*
X102639500Y-26462065D01*
X102654890Y-26647813D01*
X102654892Y-26647824D01*
X102715936Y-26888881D01*
X102815826Y-27116606D01*
X102951833Y-27324782D01*
X102951836Y-27324785D01*
X103120256Y-27507738D01*
X103316491Y-27660474D01*
X103316493Y-27660475D01*
X103534332Y-27778364D01*
X103535190Y-27778828D01*
X103727106Y-27844713D01*
X103768964Y-27859083D01*
X103770386Y-27859571D01*
X104015665Y-27900500D01*
X104264335Y-27900500D01*
X104509614Y-27859571D01*
X104744810Y-27778828D01*
X104963509Y-27660474D01*
X105159744Y-27507738D01*
X105328164Y-27324785D01*
X105464173Y-27116607D01*
X105564063Y-26888881D01*
X105625108Y-26647821D01*
X105626833Y-26627011D01*
X105640500Y-26462065D01*
X105640500Y-26462041D01*
X106450000Y-26462041D01*
X106465385Y-26647730D01*
X106465387Y-26647738D01*
X106526412Y-26888717D01*
X106626267Y-27116367D01*
X106762232Y-27324478D01*
X106930592Y-27507364D01*
X106930602Y-27507373D01*
X107126762Y-27660051D01*
X107126771Y-27660057D01*
X107345385Y-27778364D01*
X107345396Y-27778369D01*
X107580507Y-27859083D01*
X107699999Y-27879023D01*
X107700000Y-27879022D01*
X107700000Y-26004310D01*
X107708817Y-26009158D01*
X107867886Y-26050000D01*
X107990894Y-26050000D01*
X108112933Y-26034583D01*
X108200000Y-26000110D01*
X108200000Y-27879023D01*
X108319492Y-27859083D01*
X108554603Y-27778369D01*
X108554614Y-27778364D01*
X108773228Y-27660057D01*
X108773237Y-27660051D01*
X108969397Y-27507373D01*
X108969407Y-27507364D01*
X109137767Y-27324478D01*
X109273732Y-27116367D01*
X109373587Y-26888717D01*
X109434612Y-26647738D01*
X109434614Y-26647730D01*
X109450000Y-26462041D01*
X109450000Y-25650000D01*
X108550728Y-25650000D01*
X108573100Y-25602457D01*
X108603873Y-25441138D01*
X108593561Y-25277234D01*
X108552220Y-25150000D01*
X109450000Y-25150000D01*
X109450000Y-24337959D01*
X109434614Y-24152269D01*
X109434612Y-24152261D01*
X109373587Y-23911282D01*
X109273732Y-23683632D01*
X109137767Y-23475521D01*
X108969407Y-23292635D01*
X108969397Y-23292626D01*
X108773237Y-23139948D01*
X108773228Y-23139942D01*
X108554614Y-23021635D01*
X108554603Y-23021630D01*
X108319492Y-22940916D01*
X108200000Y-22920976D01*
X108200000Y-24795689D01*
X108191183Y-24790842D01*
X108032114Y-24750000D01*
X107909106Y-24750000D01*
X107787067Y-24765417D01*
X107700000Y-24799889D01*
X107700000Y-22920976D01*
X107699999Y-22920976D01*
X107580507Y-22940916D01*
X107345396Y-23021630D01*
X107345385Y-23021635D01*
X107126771Y-23139942D01*
X107126762Y-23139948D01*
X106930602Y-23292626D01*
X106930592Y-23292635D01*
X106762232Y-23475521D01*
X106626267Y-23683632D01*
X106526412Y-23911282D01*
X106465387Y-24152261D01*
X106465385Y-24152269D01*
X106450000Y-24337959D01*
X106450000Y-25150000D01*
X107349272Y-25150000D01*
X107326900Y-25197543D01*
X107296127Y-25358862D01*
X107306439Y-25522766D01*
X107347780Y-25650000D01*
X106450000Y-25650000D01*
X106450000Y-26462041D01*
X105640500Y-26462041D01*
X105640500Y-24337935D01*
X105625109Y-24152186D01*
X105625107Y-24152175D01*
X105564063Y-23911118D01*
X105464173Y-23683393D01*
X105328166Y-23475217D01*
X105306557Y-23451744D01*
X105159744Y-23292262D01*
X104963509Y-23139526D01*
X104963507Y-23139525D01*
X104963506Y-23139524D01*
X104744811Y-23021172D01*
X104744802Y-23021169D01*
X104509616Y-22940429D01*
X104264335Y-22899500D01*
X104015665Y-22899500D01*
X103770383Y-22940429D01*
X103535197Y-23021169D01*
X103535188Y-23021172D01*
X103316493Y-23139524D01*
X103120257Y-23292261D01*
X102951833Y-23475217D01*
X102815826Y-23683393D01*
X102715936Y-23911118D01*
X102654892Y-24152175D01*
X102654890Y-24152186D01*
X102639500Y-24337935D01*
X102639500Y-26462065D01*
X101829998Y-26462065D01*
X101830000Y-26462041D01*
X101830000Y-25650000D01*
X100930728Y-25650000D01*
X100953100Y-25602457D01*
X100983873Y-25441138D01*
X100973561Y-25277234D01*
X100932220Y-25150000D01*
X101830000Y-25150000D01*
X101830000Y-24337959D01*
X101814614Y-24152269D01*
X101814612Y-24152261D01*
X101753587Y-23911282D01*
X101653732Y-23683632D01*
X101517767Y-23475521D01*
X101349407Y-23292635D01*
X101349397Y-23292626D01*
X101153237Y-23139948D01*
X101153228Y-23139942D01*
X100934614Y-23021635D01*
X100934603Y-23021630D01*
X100699492Y-22940916D01*
X100580000Y-22920976D01*
X100580000Y-24795689D01*
X100571183Y-24790842D01*
X100412114Y-24750000D01*
X100289106Y-24750000D01*
X100167067Y-24765417D01*
X100080000Y-24799889D01*
X100080000Y-22920976D01*
X100079999Y-22920976D01*
X99960507Y-22940916D01*
X99725396Y-23021630D01*
X99725385Y-23021635D01*
X99506771Y-23139942D01*
X99506762Y-23139948D01*
X99310602Y-23292626D01*
X99310592Y-23292635D01*
X99142232Y-23475521D01*
X99006267Y-23683632D01*
X98906412Y-23911282D01*
X98845387Y-24152261D01*
X98845385Y-24152269D01*
X98830000Y-24337959D01*
X98830000Y-25150000D01*
X99729272Y-25150000D01*
X99706900Y-25197543D01*
X99676127Y-25358862D01*
X99686439Y-25522766D01*
X99727780Y-25650000D01*
X98830000Y-25650000D01*
X98830000Y-26462041D01*
X98020500Y-26462041D01*
X98020500Y-24337935D01*
X98005109Y-24152186D01*
X98005107Y-24152175D01*
X97944063Y-23911118D01*
X97844173Y-23683393D01*
X97708166Y-23475217D01*
X97686557Y-23451744D01*
X97539744Y-23292262D01*
X97343509Y-23139526D01*
X97343507Y-23139525D01*
X97343506Y-23139524D01*
X97124811Y-23021172D01*
X97124802Y-23021169D01*
X96889616Y-22940429D01*
X96644335Y-22899500D01*
X96395665Y-22899500D01*
X96150383Y-22940429D01*
X95915197Y-23021169D01*
X95915188Y-23021172D01*
X95696493Y-23139524D01*
X95500257Y-23292261D01*
X95331833Y-23475217D01*
X95195826Y-23683393D01*
X95095936Y-23911118D01*
X95034892Y-24152175D01*
X95034890Y-24152186D01*
X95019500Y-24337935D01*
X95019500Y-26462065D01*
X94210500Y-26462065D01*
X94210500Y-24337935D01*
X94195109Y-24152186D01*
X94195107Y-24152175D01*
X94134063Y-23911118D01*
X94034173Y-23683393D01*
X93898166Y-23475217D01*
X93876557Y-23451744D01*
X93729744Y-23292262D01*
X93533509Y-23139526D01*
X93533507Y-23139525D01*
X93533506Y-23139524D01*
X93314811Y-23021172D01*
X93314802Y-23021169D01*
X93079616Y-22940429D01*
X92834335Y-22899500D01*
X92585665Y-22899500D01*
X92340383Y-22940429D01*
X92105197Y-23021169D01*
X92105188Y-23021172D01*
X91886493Y-23139524D01*
X91690257Y-23292261D01*
X91521833Y-23475217D01*
X91385826Y-23683393D01*
X91285936Y-23911118D01*
X91224892Y-24152175D01*
X91224890Y-24152186D01*
X91209500Y-24337935D01*
X91209500Y-26462065D01*
X90400500Y-26462065D01*
X90400500Y-24337935D01*
X90385109Y-24152186D01*
X90385107Y-24152175D01*
X90324063Y-23911118D01*
X90224173Y-23683393D01*
X90088166Y-23475217D01*
X90066557Y-23451744D01*
X89919744Y-23292262D01*
X89723509Y-23139526D01*
X89723507Y-23139525D01*
X89723506Y-23139524D01*
X89504811Y-23021172D01*
X89504802Y-23021169D01*
X89269616Y-22940429D01*
X89024335Y-22899500D01*
X88775665Y-22899500D01*
X88530383Y-22940429D01*
X88295197Y-23021169D01*
X88295188Y-23021172D01*
X88076493Y-23139524D01*
X87880257Y-23292261D01*
X87711833Y-23475217D01*
X87575826Y-23683393D01*
X87475936Y-23911118D01*
X87414892Y-24152175D01*
X87414890Y-24152186D01*
X87399500Y-24337935D01*
X87399500Y-26462065D01*
X86590500Y-26462065D01*
X86590500Y-24337935D01*
X86575109Y-24152186D01*
X86575107Y-24152175D01*
X86514063Y-23911118D01*
X86414173Y-23683393D01*
X86278166Y-23475217D01*
X86256557Y-23451744D01*
X86109744Y-23292262D01*
X85913509Y-23139526D01*
X85913507Y-23139525D01*
X85913506Y-23139524D01*
X85694811Y-23021172D01*
X85694802Y-23021169D01*
X85459616Y-22940429D01*
X85214335Y-22899500D01*
X84965665Y-22899500D01*
X84720383Y-22940429D01*
X84485197Y-23021169D01*
X84485188Y-23021172D01*
X84266493Y-23139524D01*
X84070257Y-23292261D01*
X83901833Y-23475217D01*
X83765826Y-23683393D01*
X83665936Y-23911118D01*
X83604892Y-24152175D01*
X83604890Y-24152186D01*
X83589500Y-24337935D01*
X83589500Y-26462065D01*
X82779998Y-26462065D01*
X82780000Y-26462041D01*
X82780000Y-25650000D01*
X81880728Y-25650000D01*
X81903100Y-25602457D01*
X81933873Y-25441138D01*
X81923561Y-25277234D01*
X81882220Y-25150000D01*
X82780000Y-25150000D01*
X82780000Y-24337959D01*
X82764614Y-24152269D01*
X82764612Y-24152261D01*
X82703587Y-23911282D01*
X82603732Y-23683632D01*
X82467767Y-23475521D01*
X82299407Y-23292635D01*
X82299397Y-23292626D01*
X82103237Y-23139948D01*
X82103228Y-23139942D01*
X81884614Y-23021635D01*
X81884603Y-23021630D01*
X81649492Y-22940916D01*
X81530000Y-22920976D01*
X81530000Y-24795689D01*
X81521183Y-24790842D01*
X81362114Y-24750000D01*
X81239106Y-24750000D01*
X81117067Y-24765417D01*
X81030000Y-24799889D01*
X81030000Y-22920976D01*
X81029999Y-22920976D01*
X80910507Y-22940916D01*
X80675396Y-23021630D01*
X80675385Y-23021635D01*
X80456771Y-23139942D01*
X80456762Y-23139948D01*
X80260602Y-23292626D01*
X80260592Y-23292635D01*
X80092232Y-23475521D01*
X79956267Y-23683632D01*
X79856412Y-23911282D01*
X79795387Y-24152261D01*
X79795385Y-24152269D01*
X79780000Y-24337959D01*
X79780000Y-25150000D01*
X80679272Y-25150000D01*
X80656900Y-25197543D01*
X80626127Y-25358862D01*
X80636439Y-25522766D01*
X80677780Y-25650000D01*
X79780000Y-25650000D01*
X79780000Y-26462041D01*
X78970500Y-26462041D01*
X78970500Y-24337935D01*
X78955109Y-24152186D01*
X78955107Y-24152175D01*
X78894063Y-23911118D01*
X78794173Y-23683393D01*
X78658166Y-23475217D01*
X78636557Y-23451744D01*
X78489744Y-23292262D01*
X78293509Y-23139526D01*
X78293507Y-23139525D01*
X78293506Y-23139524D01*
X78074811Y-23021172D01*
X78074802Y-23021169D01*
X77839616Y-22940429D01*
X77594335Y-22899500D01*
X77345665Y-22899500D01*
X77100383Y-22940429D01*
X76865197Y-23021169D01*
X76865188Y-23021172D01*
X76646493Y-23139524D01*
X76450257Y-23292261D01*
X76281833Y-23475217D01*
X76145826Y-23683393D01*
X76045936Y-23911118D01*
X75984892Y-24152175D01*
X75984890Y-24152186D01*
X75969500Y-24337935D01*
X75969500Y-25964547D01*
X75949815Y-26031586D01*
X75933181Y-26052228D01*
X75322228Y-26663181D01*
X75260905Y-26696666D01*
X75234547Y-26699500D01*
X69716361Y-26699500D01*
X69649322Y-26679815D01*
X69603567Y-26627011D01*
X69593623Y-26557853D01*
X69613906Y-26505649D01*
X69735228Y-26327704D01*
X69849063Y-26091323D01*
X69926396Y-25840615D01*
X69965500Y-25581182D01*
X69965500Y-25318818D01*
X69965500Y-22334506D01*
X69965500Y-22268818D01*
X69956050Y-22206128D01*
X69955538Y-22201576D01*
X69950802Y-22138370D01*
X69936698Y-22076580D01*
X69935840Y-22072048D01*
X69926396Y-22009385D01*
X69915123Y-21972842D01*
X69907717Y-21948831D01*
X69906517Y-21944350D01*
X69906510Y-21944320D01*
X69892420Y-21882584D01*
X69869266Y-21823590D01*
X69867734Y-21819211D01*
X69849063Y-21758677D01*
X69821567Y-21701581D01*
X69819719Y-21697343D01*
X69796568Y-21638356D01*
X69769825Y-21592037D01*
X69764876Y-21583464D01*
X69762717Y-21579378D01*
X69758174Y-21569945D01*
X69735228Y-21522296D01*
X69699536Y-21469945D01*
X69699531Y-21469937D01*
X69697063Y-21466010D01*
X69694519Y-21461604D01*
X69665386Y-21411143D01*
X69625881Y-21361604D01*
X69623127Y-21357874D01*
X69602653Y-21327845D01*
X69587433Y-21305521D01*
X69546442Y-21261343D01*
X69544332Y-21259069D01*
X69541306Y-21255552D01*
X69501809Y-21206023D01*
X69501805Y-21206019D01*
X69455347Y-21162912D01*
X69452077Y-21159641D01*
X69408983Y-21113197D01*
X69408980Y-21113194D01*
X69359432Y-21073681D01*
X69355926Y-21070664D01*
X69309479Y-21027567D01*
X69309475Y-21027564D01*
X69309471Y-21027561D01*
X69260973Y-20994496D01*
X69257125Y-20991872D01*
X69253407Y-20989128D01*
X69203857Y-20949614D01*
X69203852Y-20949610D01*
X69148976Y-20917927D01*
X69145050Y-20915460D01*
X69092704Y-20879772D01*
X69092700Y-20879770D01*
X69063980Y-20865939D01*
X69035600Y-20852272D01*
X69031540Y-20850126D01*
X68976643Y-20818432D01*
X68917650Y-20795278D01*
X68913405Y-20793426D01*
X68856328Y-20765939D01*
X68856307Y-20765931D01*
X68815989Y-20753495D01*
X68795765Y-20747257D01*
X68791403Y-20745731D01*
X68732416Y-20722580D01*
X68732413Y-20722579D01*
X68732410Y-20722578D01*
X68732404Y-20722577D01*
X68670637Y-20708479D01*
X68666161Y-20707280D01*
X68641018Y-20699524D01*
X68605619Y-20688605D01*
X68605617Y-20688604D01*
X68605615Y-20688604D01*
X68581243Y-20684930D01*
X68542964Y-20679160D01*
X68538408Y-20678298D01*
X68476636Y-20664199D01*
X68476632Y-20664198D01*
X68476630Y-20664198D01*
X68457063Y-20662731D01*
X68413445Y-20659462D01*
X68408838Y-20658943D01*
X68346191Y-20649500D01*
X68346182Y-20649500D01*
X68083818Y-20649500D01*
X68083808Y-20649500D01*
X68021163Y-20658943D01*
X68016556Y-20659462D01*
X67977913Y-20662358D01*
X67953370Y-20664198D01*
X67936968Y-20667941D01*
X67891592Y-20678297D01*
X67887038Y-20679159D01*
X67846527Y-20685266D01*
X67824385Y-20688604D01*
X67824380Y-20688605D01*
X67824376Y-20688606D01*
X67763843Y-20707278D01*
X67759364Y-20708478D01*
X67697593Y-20722577D01*
X67697579Y-20722581D01*
X67638593Y-20745731D01*
X67634217Y-20747262D01*
X67573683Y-20765934D01*
X67573660Y-20765943D01*
X67516581Y-20793431D01*
X67512332Y-20795285D01*
X67453358Y-20818431D01*
X67398484Y-20850111D01*
X67394386Y-20852277D01*
X67337295Y-20879772D01*
X67337290Y-20879774D01*
X67284945Y-20915463D01*
X67281019Y-20917930D01*
X67226149Y-20949609D01*
X67176600Y-20989122D01*
X67172870Y-20991874D01*
X67120522Y-21027566D01*
X67120514Y-21027572D01*
X67074071Y-21070664D01*
X67070558Y-21073688D01*
X67021020Y-21113193D01*
X66977920Y-21159642D01*
X66974642Y-21162920D01*
X66928193Y-21206020D01*
X66888688Y-21255558D01*
X66885664Y-21259071D01*
X66842572Y-21305514D01*
X66842566Y-21305522D01*
X66806874Y-21357870D01*
X66804122Y-21361600D01*
X66764609Y-21411149D01*
X66732930Y-21466019D01*
X66730463Y-21469945D01*
X66694774Y-21522290D01*
X66694772Y-21522295D01*
X66667277Y-21579386D01*
X66665111Y-21583484D01*
X66633431Y-21638358D01*
X66610285Y-21697332D01*
X66608431Y-21701581D01*
X66580943Y-21758660D01*
X66580934Y-21758683D01*
X66562262Y-21819217D01*
X66560731Y-21823593D01*
X66537581Y-21882579D01*
X66537577Y-21882593D01*
X66523478Y-21944364D01*
X66522278Y-21948843D01*
X66503606Y-22009376D01*
X66503605Y-22009380D01*
X66503604Y-22009385D01*
X66500266Y-22031527D01*
X66494159Y-22072038D01*
X66493297Y-22076592D01*
X66485813Y-22109386D01*
X66480848Y-22131143D01*
X66479198Y-22138372D01*
X66479198Y-22138373D01*
X66474462Y-22201556D01*
X66473943Y-22206163D01*
X66464500Y-22268808D01*
X66464500Y-25581187D01*
X66479237Y-25678956D01*
X66503604Y-25840615D01*
X66503605Y-25840617D01*
X66503607Y-25840627D01*
X66538393Y-25953401D01*
X66539343Y-26023264D01*
X66502371Y-26082550D01*
X66439216Y-26112437D01*
X66369929Y-26103434D01*
X66332221Y-26077631D01*
X64715090Y-24460500D01*
X62730803Y-22476212D01*
X62720980Y-22463950D01*
X62720759Y-22464134D01*
X62715786Y-22458123D01*
X62665364Y-22410773D01*
X62654919Y-22400328D01*
X62644475Y-22389883D01*
X62638986Y-22385625D01*
X62634561Y-22381847D01*
X62600582Y-22349938D01*
X62600580Y-22349936D01*
X62600577Y-22349935D01*
X62583029Y-22340288D01*
X62566763Y-22329604D01*
X62550933Y-22317325D01*
X62508168Y-22298818D01*
X62502922Y-22296248D01*
X62462093Y-22273803D01*
X62462092Y-22273802D01*
X62442693Y-22268822D01*
X62424281Y-22262518D01*
X62405898Y-22254562D01*
X62405892Y-22254560D01*
X62359874Y-22247272D01*
X62354152Y-22246087D01*
X62309021Y-22234500D01*
X62309019Y-22234500D01*
X62288984Y-22234500D01*
X62269586Y-22232973D01*
X62262162Y-22231797D01*
X62249805Y-22229840D01*
X62249804Y-22229840D01*
X62203416Y-22234225D01*
X62197578Y-22234500D01*
X58156133Y-22234500D01*
X58089094Y-22214815D01*
X58043339Y-22162011D01*
X58041572Y-22157952D01*
X58030467Y-22131143D01*
X58030466Y-22131141D01*
X57918746Y-21948831D01*
X57898838Y-21916345D01*
X57898838Y-21916343D01*
X57849572Y-21858660D01*
X57735224Y-21724776D01*
X57575058Y-21587981D01*
X57543656Y-21561161D01*
X57543653Y-21561160D01*
X57328859Y-21429533D01*
X57096110Y-21333126D01*
X56851150Y-21274317D01*
X56662884Y-21259500D01*
X56662882Y-21259500D01*
X54737118Y-21259500D01*
X54737116Y-21259500D01*
X54548849Y-21274317D01*
X54303889Y-21333126D01*
X54071140Y-21429533D01*
X53856346Y-21561160D01*
X53856343Y-21561161D01*
X53664776Y-21724776D01*
X53501161Y-21916343D01*
X53501160Y-21916346D01*
X53369533Y-22131140D01*
X53273126Y-22363889D01*
X53214317Y-22608848D01*
X53194551Y-22860000D01*
X50030500Y-22860000D01*
X50030500Y-21592037D01*
X50030633Y-21587981D01*
X50042592Y-21405514D01*
X50047682Y-21327839D01*
X50048739Y-21319810D01*
X50099200Y-21066127D01*
X50101301Y-21058288D01*
X50184446Y-20813350D01*
X50187538Y-20805886D01*
X50301947Y-20573885D01*
X50305995Y-20566876D01*
X50449704Y-20351800D01*
X50454633Y-20345378D01*
X50625175Y-20150912D01*
X50630914Y-20145174D01*
X50825378Y-19974633D01*
X50831800Y-19969704D01*
X51046876Y-19825995D01*
X51053885Y-19821947D01*
X51285886Y-19707538D01*
X51293350Y-19704446D01*
X51538291Y-19621300D01*
X51546127Y-19619200D01*
X51799810Y-19568739D01*
X51807839Y-19567682D01*
X51892635Y-19562124D01*
X52067982Y-19550633D01*
X52072038Y-19550500D01*
X52135892Y-19550500D01*
X121854108Y-19550500D01*
X121917962Y-19550500D01*
X121922018Y-19550633D01*
G37*
%TD.AperFunction*%
%TD*%
M02*
