%TF.GenerationSoftware,KiCad,Pcbnew,7.0.8*%
%TF.CreationDate,2023-10-25T20:50:11+02:00*%
%TF.ProjectId,SCART_syncSplitter,53434152-545f-4737-996e-6353706c6974,rev?*%
%TF.SameCoordinates,Original*%
%TF.FileFunction,Drillmap*%
%TF.FilePolarity,Positive*%
%FSLAX45Y45*%
G04 Gerber Fmt 4.5, Leading zero omitted, Abs format (unit mm)*
G04 Created by KiCad (PCBNEW 7.0.8) date 2023-10-25 20:50:11*
%MOMM*%
%LPD*%
G01*
G04 APERTURE LIST*
%ADD10C,0.100000*%
%ADD11C,0.200000*%
%ADD12C,0.300000*%
G04 APERTURE END LIST*
D10*
X12446000Y-2159000D02*
G75*
G03*
X12192000Y-1905000I-254000J0D01*
G01*
X12192000Y-6731000D02*
G75*
G03*
X12446000Y-6477000I0J254000D01*
G01*
X5207000Y-6731000D02*
X12192000Y-6731000D01*
X4953000Y-6477000D02*
G75*
G03*
X5207000Y-6731000I254000J0D01*
G01*
X12192000Y-1905000D02*
X5207000Y-1905000D01*
X12446000Y-6477000D02*
X12446000Y-2159000D01*
X4953000Y-2159000D02*
X4953000Y-6477000D01*
X5207000Y-1905000D02*
G75*
G03*
X4953000Y-2159000I0J-254000D01*
G01*
D11*
D12*
X6671500Y-2090000D02*
X6971500Y-2390000D01*
X6971500Y-2090000D02*
X6671500Y-2390000D01*
X6671500Y-2240000D02*
X6971500Y-2540000D01*
X6971500Y-2240000D02*
X6671500Y-2540000D01*
D11*
X6671500Y-2240000D02*
X6671500Y-2540000D01*
X6671500Y-2540000D02*
G75*
G03*
X6971500Y-2540000I150000J0D01*
G01*
X6971500Y-2540000D02*
X6971500Y-2240000D01*
X6971500Y-2240000D02*
G75*
G03*
X6671500Y-2240000I-150000J0D01*
G01*
D12*
X6671500Y-2395000D02*
X6971500Y-2695000D01*
X6971500Y-2395000D02*
X6671500Y-2695000D01*
X11951500Y-2100000D02*
X12251500Y-2400000D01*
X12251500Y-2100000D02*
X11951500Y-2400000D01*
X11951500Y-2250000D02*
X12251500Y-2550000D01*
X12251500Y-2250000D02*
X11951500Y-2550000D01*
D11*
X11951500Y-2250000D02*
X11951500Y-2550000D01*
X11951500Y-2550000D02*
G75*
G03*
X12251500Y-2550000I150000J0D01*
G01*
X12251500Y-2550000D02*
X12251500Y-2250000D01*
X12251500Y-2250000D02*
G75*
G03*
X11951500Y-2250000I-150000J0D01*
G01*
D12*
X11951500Y-2395000D02*
X12251500Y-2695000D01*
X12251500Y-2395000D02*
X11951500Y-2695000D01*
D11*
X5208777Y-7047484D02*
X5208777Y-6847484D01*
X5208777Y-6847484D02*
X5256396Y-6847484D01*
X5256396Y-6847484D02*
X5284967Y-6857008D01*
X5284967Y-6857008D02*
X5304015Y-6876055D01*
X5304015Y-6876055D02*
X5313539Y-6895103D01*
X5313539Y-6895103D02*
X5323063Y-6933198D01*
X5323063Y-6933198D02*
X5323063Y-6961769D01*
X5323063Y-6961769D02*
X5313539Y-6999865D01*
X5313539Y-6999865D02*
X5304015Y-7018912D01*
X5304015Y-7018912D02*
X5284967Y-7037960D01*
X5284967Y-7037960D02*
X5256396Y-7047484D01*
X5256396Y-7047484D02*
X5208777Y-7047484D01*
X5408777Y-7047484D02*
X5408777Y-6914150D01*
X5408777Y-6952246D02*
X5418301Y-6933198D01*
X5418301Y-6933198D02*
X5427824Y-6923674D01*
X5427824Y-6923674D02*
X5446872Y-6914150D01*
X5446872Y-6914150D02*
X5465920Y-6914150D01*
X5532586Y-7047484D02*
X5532586Y-6914150D01*
X5532586Y-6847484D02*
X5523063Y-6857008D01*
X5523063Y-6857008D02*
X5532586Y-6866531D01*
X5532586Y-6866531D02*
X5542110Y-6857008D01*
X5542110Y-6857008D02*
X5532586Y-6847484D01*
X5532586Y-6847484D02*
X5532586Y-6866531D01*
X5656396Y-7047484D02*
X5637348Y-7037960D01*
X5637348Y-7037960D02*
X5627824Y-7018912D01*
X5627824Y-7018912D02*
X5627824Y-6847484D01*
X5761158Y-7047484D02*
X5742110Y-7037960D01*
X5742110Y-7037960D02*
X5732586Y-7018912D01*
X5732586Y-7018912D02*
X5732586Y-6847484D01*
X5989729Y-7047484D02*
X5989729Y-6847484D01*
X5989729Y-6847484D02*
X6056396Y-6990341D01*
X6056396Y-6990341D02*
X6123062Y-6847484D01*
X6123062Y-6847484D02*
X6123062Y-7047484D01*
X6304015Y-7047484D02*
X6304015Y-6942722D01*
X6304015Y-6942722D02*
X6294491Y-6923674D01*
X6294491Y-6923674D02*
X6275443Y-6914150D01*
X6275443Y-6914150D02*
X6237348Y-6914150D01*
X6237348Y-6914150D02*
X6218301Y-6923674D01*
X6304015Y-7037960D02*
X6284967Y-7047484D01*
X6284967Y-7047484D02*
X6237348Y-7047484D01*
X6237348Y-7047484D02*
X6218301Y-7037960D01*
X6218301Y-7037960D02*
X6208777Y-7018912D01*
X6208777Y-7018912D02*
X6208777Y-6999865D01*
X6208777Y-6999865D02*
X6218301Y-6980817D01*
X6218301Y-6980817D02*
X6237348Y-6971293D01*
X6237348Y-6971293D02*
X6284967Y-6971293D01*
X6284967Y-6971293D02*
X6304015Y-6961769D01*
X6399253Y-6914150D02*
X6399253Y-7114150D01*
X6399253Y-6923674D02*
X6418301Y-6914150D01*
X6418301Y-6914150D02*
X6456396Y-6914150D01*
X6456396Y-6914150D02*
X6475443Y-6923674D01*
X6475443Y-6923674D02*
X6484967Y-6933198D01*
X6484967Y-6933198D02*
X6494491Y-6952246D01*
X6494491Y-6952246D02*
X6494491Y-7009388D01*
X6494491Y-7009388D02*
X6484967Y-7028436D01*
X6484967Y-7028436D02*
X6475443Y-7037960D01*
X6475443Y-7037960D02*
X6456396Y-7047484D01*
X6456396Y-7047484D02*
X6418301Y-7047484D01*
X6418301Y-7047484D02*
X6399253Y-7037960D01*
X6580205Y-7028436D02*
X6589729Y-7037960D01*
X6589729Y-7037960D02*
X6580205Y-7047484D01*
X6580205Y-7047484D02*
X6570682Y-7037960D01*
X6570682Y-7037960D02*
X6580205Y-7028436D01*
X6580205Y-7028436D02*
X6580205Y-7047484D01*
X6580205Y-6923674D02*
X6589729Y-6933198D01*
X6589729Y-6933198D02*
X6580205Y-6942722D01*
X6580205Y-6942722D02*
X6570682Y-6933198D01*
X6570682Y-6933198D02*
X6580205Y-6923674D01*
X6580205Y-6923674D02*
X6580205Y-6942722D01*
X4748000Y-7276000D02*
X4948000Y-7476000D01*
X4948000Y-7276000D02*
X4748000Y-7476000D01*
X5189729Y-7267484D02*
X5313539Y-7267484D01*
X5313539Y-7267484D02*
X5246872Y-7343674D01*
X5246872Y-7343674D02*
X5275444Y-7343674D01*
X5275444Y-7343674D02*
X5294491Y-7353198D01*
X5294491Y-7353198D02*
X5304015Y-7362722D01*
X5304015Y-7362722D02*
X5313539Y-7381769D01*
X5313539Y-7381769D02*
X5313539Y-7429388D01*
X5313539Y-7429388D02*
X5304015Y-7448436D01*
X5304015Y-7448436D02*
X5294491Y-7457960D01*
X5294491Y-7457960D02*
X5275444Y-7467484D01*
X5275444Y-7467484D02*
X5218301Y-7467484D01*
X5218301Y-7467484D02*
X5199253Y-7457960D01*
X5199253Y-7457960D02*
X5189729Y-7448436D01*
X5399253Y-7448436D02*
X5408777Y-7457960D01*
X5408777Y-7457960D02*
X5399253Y-7467484D01*
X5399253Y-7467484D02*
X5389729Y-7457960D01*
X5389729Y-7457960D02*
X5399253Y-7448436D01*
X5399253Y-7448436D02*
X5399253Y-7467484D01*
X5532586Y-7267484D02*
X5551634Y-7267484D01*
X5551634Y-7267484D02*
X5570682Y-7277008D01*
X5570682Y-7277008D02*
X5580205Y-7286531D01*
X5580205Y-7286531D02*
X5589729Y-7305579D01*
X5589729Y-7305579D02*
X5599253Y-7343674D01*
X5599253Y-7343674D02*
X5599253Y-7391293D01*
X5599253Y-7391293D02*
X5589729Y-7429388D01*
X5589729Y-7429388D02*
X5580205Y-7448436D01*
X5580205Y-7448436D02*
X5570682Y-7457960D01*
X5570682Y-7457960D02*
X5551634Y-7467484D01*
X5551634Y-7467484D02*
X5532586Y-7467484D01*
X5532586Y-7467484D02*
X5513539Y-7457960D01*
X5513539Y-7457960D02*
X5504015Y-7448436D01*
X5504015Y-7448436D02*
X5494491Y-7429388D01*
X5494491Y-7429388D02*
X5484967Y-7391293D01*
X5484967Y-7391293D02*
X5484967Y-7343674D01*
X5484967Y-7343674D02*
X5494491Y-7305579D01*
X5494491Y-7305579D02*
X5504015Y-7286531D01*
X5504015Y-7286531D02*
X5513539Y-7277008D01*
X5513539Y-7277008D02*
X5532586Y-7267484D01*
X5723062Y-7267484D02*
X5742110Y-7267484D01*
X5742110Y-7267484D02*
X5761158Y-7277008D01*
X5761158Y-7277008D02*
X5770682Y-7286531D01*
X5770682Y-7286531D02*
X5780205Y-7305579D01*
X5780205Y-7305579D02*
X5789729Y-7343674D01*
X5789729Y-7343674D02*
X5789729Y-7391293D01*
X5789729Y-7391293D02*
X5780205Y-7429388D01*
X5780205Y-7429388D02*
X5770682Y-7448436D01*
X5770682Y-7448436D02*
X5761158Y-7457960D01*
X5761158Y-7457960D02*
X5742110Y-7467484D01*
X5742110Y-7467484D02*
X5723062Y-7467484D01*
X5723062Y-7467484D02*
X5704015Y-7457960D01*
X5704015Y-7457960D02*
X5694491Y-7448436D01*
X5694491Y-7448436D02*
X5684967Y-7429388D01*
X5684967Y-7429388D02*
X5675443Y-7391293D01*
X5675443Y-7391293D02*
X5675443Y-7343674D01*
X5675443Y-7343674D02*
X5684967Y-7305579D01*
X5684967Y-7305579D02*
X5694491Y-7286531D01*
X5694491Y-7286531D02*
X5704015Y-7277008D01*
X5704015Y-7277008D02*
X5723062Y-7267484D01*
X5913539Y-7267484D02*
X5932586Y-7267484D01*
X5932586Y-7267484D02*
X5951634Y-7277008D01*
X5951634Y-7277008D02*
X5961158Y-7286531D01*
X5961158Y-7286531D02*
X5970682Y-7305579D01*
X5970682Y-7305579D02*
X5980205Y-7343674D01*
X5980205Y-7343674D02*
X5980205Y-7391293D01*
X5980205Y-7391293D02*
X5970682Y-7429388D01*
X5970682Y-7429388D02*
X5961158Y-7448436D01*
X5961158Y-7448436D02*
X5951634Y-7457960D01*
X5951634Y-7457960D02*
X5932586Y-7467484D01*
X5932586Y-7467484D02*
X5913539Y-7467484D01*
X5913539Y-7467484D02*
X5894491Y-7457960D01*
X5894491Y-7457960D02*
X5884967Y-7448436D01*
X5884967Y-7448436D02*
X5875443Y-7429388D01*
X5875443Y-7429388D02*
X5865920Y-7391293D01*
X5865920Y-7391293D02*
X5865920Y-7343674D01*
X5865920Y-7343674D02*
X5875443Y-7305579D01*
X5875443Y-7305579D02*
X5884967Y-7286531D01*
X5884967Y-7286531D02*
X5894491Y-7277008D01*
X5894491Y-7277008D02*
X5913539Y-7267484D01*
X6065920Y-7467484D02*
X6065920Y-7334150D01*
X6065920Y-7353198D02*
X6075443Y-7343674D01*
X6075443Y-7343674D02*
X6094491Y-7334150D01*
X6094491Y-7334150D02*
X6123063Y-7334150D01*
X6123063Y-7334150D02*
X6142110Y-7343674D01*
X6142110Y-7343674D02*
X6151634Y-7362722D01*
X6151634Y-7362722D02*
X6151634Y-7467484D01*
X6151634Y-7362722D02*
X6161158Y-7343674D01*
X6161158Y-7343674D02*
X6180205Y-7334150D01*
X6180205Y-7334150D02*
X6208777Y-7334150D01*
X6208777Y-7334150D02*
X6227824Y-7343674D01*
X6227824Y-7343674D02*
X6237348Y-7362722D01*
X6237348Y-7362722D02*
X6237348Y-7467484D01*
X6332586Y-7467484D02*
X6332586Y-7334150D01*
X6332586Y-7353198D02*
X6342110Y-7343674D01*
X6342110Y-7343674D02*
X6361158Y-7334150D01*
X6361158Y-7334150D02*
X6389729Y-7334150D01*
X6389729Y-7334150D02*
X6408777Y-7343674D01*
X6408777Y-7343674D02*
X6418301Y-7362722D01*
X6418301Y-7362722D02*
X6418301Y-7467484D01*
X6418301Y-7362722D02*
X6427824Y-7343674D01*
X6427824Y-7343674D02*
X6446872Y-7334150D01*
X6446872Y-7334150D02*
X6475443Y-7334150D01*
X6475443Y-7334150D02*
X6494491Y-7343674D01*
X6494491Y-7343674D02*
X6504015Y-7362722D01*
X6504015Y-7362722D02*
X6504015Y-7467484D01*
X6894491Y-7257960D02*
X6723063Y-7515103D01*
X7151634Y-7267484D02*
X7170682Y-7267484D01*
X7170682Y-7267484D02*
X7189729Y-7277008D01*
X7189729Y-7277008D02*
X7199253Y-7286531D01*
X7199253Y-7286531D02*
X7208777Y-7305579D01*
X7208777Y-7305579D02*
X7218301Y-7343674D01*
X7218301Y-7343674D02*
X7218301Y-7391293D01*
X7218301Y-7391293D02*
X7208777Y-7429388D01*
X7208777Y-7429388D02*
X7199253Y-7448436D01*
X7199253Y-7448436D02*
X7189729Y-7457960D01*
X7189729Y-7457960D02*
X7170682Y-7467484D01*
X7170682Y-7467484D02*
X7151634Y-7467484D01*
X7151634Y-7467484D02*
X7132586Y-7457960D01*
X7132586Y-7457960D02*
X7123063Y-7448436D01*
X7123063Y-7448436D02*
X7113539Y-7429388D01*
X7113539Y-7429388D02*
X7104015Y-7391293D01*
X7104015Y-7391293D02*
X7104015Y-7343674D01*
X7104015Y-7343674D02*
X7113539Y-7305579D01*
X7113539Y-7305579D02*
X7123063Y-7286531D01*
X7123063Y-7286531D02*
X7132586Y-7277008D01*
X7132586Y-7277008D02*
X7151634Y-7267484D01*
X7304015Y-7448436D02*
X7313539Y-7457960D01*
X7313539Y-7457960D02*
X7304015Y-7467484D01*
X7304015Y-7467484D02*
X7294491Y-7457960D01*
X7294491Y-7457960D02*
X7304015Y-7448436D01*
X7304015Y-7448436D02*
X7304015Y-7467484D01*
X7504015Y-7467484D02*
X7389729Y-7467484D01*
X7446872Y-7467484D02*
X7446872Y-7267484D01*
X7446872Y-7267484D02*
X7427825Y-7296055D01*
X7427825Y-7296055D02*
X7408777Y-7315103D01*
X7408777Y-7315103D02*
X7389729Y-7324627D01*
X7694491Y-7467484D02*
X7580206Y-7467484D01*
X7637348Y-7467484D02*
X7637348Y-7267484D01*
X7637348Y-7267484D02*
X7618301Y-7296055D01*
X7618301Y-7296055D02*
X7599253Y-7315103D01*
X7599253Y-7315103D02*
X7580206Y-7324627D01*
X7808777Y-7353198D02*
X7789729Y-7343674D01*
X7789729Y-7343674D02*
X7780206Y-7334150D01*
X7780206Y-7334150D02*
X7770682Y-7315103D01*
X7770682Y-7315103D02*
X7770682Y-7305579D01*
X7770682Y-7305579D02*
X7780206Y-7286531D01*
X7780206Y-7286531D02*
X7789729Y-7277008D01*
X7789729Y-7277008D02*
X7808777Y-7267484D01*
X7808777Y-7267484D02*
X7846872Y-7267484D01*
X7846872Y-7267484D02*
X7865920Y-7277008D01*
X7865920Y-7277008D02*
X7875444Y-7286531D01*
X7875444Y-7286531D02*
X7884967Y-7305579D01*
X7884967Y-7305579D02*
X7884967Y-7315103D01*
X7884967Y-7315103D02*
X7875444Y-7334150D01*
X7875444Y-7334150D02*
X7865920Y-7343674D01*
X7865920Y-7343674D02*
X7846872Y-7353198D01*
X7846872Y-7353198D02*
X7808777Y-7353198D01*
X7808777Y-7353198D02*
X7789729Y-7362722D01*
X7789729Y-7362722D02*
X7780206Y-7372246D01*
X7780206Y-7372246D02*
X7770682Y-7391293D01*
X7770682Y-7391293D02*
X7770682Y-7429388D01*
X7770682Y-7429388D02*
X7780206Y-7448436D01*
X7780206Y-7448436D02*
X7789729Y-7457960D01*
X7789729Y-7457960D02*
X7808777Y-7467484D01*
X7808777Y-7467484D02*
X7846872Y-7467484D01*
X7846872Y-7467484D02*
X7865920Y-7457960D01*
X7865920Y-7457960D02*
X7875444Y-7448436D01*
X7875444Y-7448436D02*
X7884967Y-7429388D01*
X7884967Y-7429388D02*
X7884967Y-7391293D01*
X7884967Y-7391293D02*
X7875444Y-7372246D01*
X7875444Y-7372246D02*
X7865920Y-7362722D01*
X7865920Y-7362722D02*
X7846872Y-7353198D01*
X8075444Y-7467484D02*
X7961158Y-7467484D01*
X8018301Y-7467484D02*
X8018301Y-7267484D01*
X8018301Y-7267484D02*
X7999253Y-7296055D01*
X7999253Y-7296055D02*
X7980206Y-7315103D01*
X7980206Y-7315103D02*
X7961158Y-7324627D01*
X8151634Y-7267484D02*
X8151634Y-7305579D01*
X8227825Y-7267484D02*
X8227825Y-7305579D01*
X8523063Y-7543674D02*
X8513539Y-7534150D01*
X8513539Y-7534150D02*
X8494491Y-7505579D01*
X8494491Y-7505579D02*
X8484968Y-7486531D01*
X8484968Y-7486531D02*
X8475444Y-7457960D01*
X8475444Y-7457960D02*
X8465920Y-7410341D01*
X8465920Y-7410341D02*
X8465920Y-7372246D01*
X8465920Y-7372246D02*
X8475444Y-7324627D01*
X8475444Y-7324627D02*
X8484968Y-7296055D01*
X8484968Y-7296055D02*
X8494491Y-7277008D01*
X8494491Y-7277008D02*
X8513539Y-7248436D01*
X8513539Y-7248436D02*
X8523063Y-7238912D01*
X8684968Y-7334150D02*
X8684968Y-7467484D01*
X8637349Y-7257960D02*
X8589730Y-7400817D01*
X8589730Y-7400817D02*
X8713539Y-7400817D01*
X8942111Y-7467484D02*
X8942111Y-7267484D01*
X9027825Y-7467484D02*
X9027825Y-7362722D01*
X9027825Y-7362722D02*
X9018301Y-7343674D01*
X9018301Y-7343674D02*
X8999253Y-7334150D01*
X8999253Y-7334150D02*
X8970682Y-7334150D01*
X8970682Y-7334150D02*
X8951634Y-7343674D01*
X8951634Y-7343674D02*
X8942111Y-7353198D01*
X9151634Y-7467484D02*
X9132587Y-7457960D01*
X9132587Y-7457960D02*
X9123063Y-7448436D01*
X9123063Y-7448436D02*
X9113539Y-7429388D01*
X9113539Y-7429388D02*
X9113539Y-7372246D01*
X9113539Y-7372246D02*
X9123063Y-7353198D01*
X9123063Y-7353198D02*
X9132587Y-7343674D01*
X9132587Y-7343674D02*
X9151634Y-7334150D01*
X9151634Y-7334150D02*
X9180206Y-7334150D01*
X9180206Y-7334150D02*
X9199253Y-7343674D01*
X9199253Y-7343674D02*
X9208777Y-7353198D01*
X9208777Y-7353198D02*
X9218301Y-7372246D01*
X9218301Y-7372246D02*
X9218301Y-7429388D01*
X9218301Y-7429388D02*
X9208777Y-7448436D01*
X9208777Y-7448436D02*
X9199253Y-7457960D01*
X9199253Y-7457960D02*
X9180206Y-7467484D01*
X9180206Y-7467484D02*
X9151634Y-7467484D01*
X9332587Y-7467484D02*
X9313539Y-7457960D01*
X9313539Y-7457960D02*
X9304015Y-7438912D01*
X9304015Y-7438912D02*
X9304015Y-7267484D01*
X9484968Y-7457960D02*
X9465920Y-7467484D01*
X9465920Y-7467484D02*
X9427825Y-7467484D01*
X9427825Y-7467484D02*
X9408777Y-7457960D01*
X9408777Y-7457960D02*
X9399253Y-7438912D01*
X9399253Y-7438912D02*
X9399253Y-7362722D01*
X9399253Y-7362722D02*
X9408777Y-7343674D01*
X9408777Y-7343674D02*
X9427825Y-7334150D01*
X9427825Y-7334150D02*
X9465920Y-7334150D01*
X9465920Y-7334150D02*
X9484968Y-7343674D01*
X9484968Y-7343674D02*
X9494492Y-7362722D01*
X9494492Y-7362722D02*
X9494492Y-7381769D01*
X9494492Y-7381769D02*
X9399253Y-7400817D01*
X9570682Y-7457960D02*
X9589730Y-7467484D01*
X9589730Y-7467484D02*
X9627825Y-7467484D01*
X9627825Y-7467484D02*
X9646873Y-7457960D01*
X9646873Y-7457960D02*
X9656396Y-7438912D01*
X9656396Y-7438912D02*
X9656396Y-7429388D01*
X9656396Y-7429388D02*
X9646873Y-7410341D01*
X9646873Y-7410341D02*
X9627825Y-7400817D01*
X9627825Y-7400817D02*
X9599253Y-7400817D01*
X9599253Y-7400817D02*
X9580206Y-7391293D01*
X9580206Y-7391293D02*
X9570682Y-7372246D01*
X9570682Y-7372246D02*
X9570682Y-7362722D01*
X9570682Y-7362722D02*
X9580206Y-7343674D01*
X9580206Y-7343674D02*
X9599253Y-7334150D01*
X9599253Y-7334150D02*
X9627825Y-7334150D01*
X9627825Y-7334150D02*
X9646873Y-7343674D01*
X9894492Y-7391293D02*
X10046873Y-7391293D01*
X9970682Y-7467484D02*
X9970682Y-7315103D01*
X10284968Y-7286531D02*
X10294492Y-7277008D01*
X10294492Y-7277008D02*
X10313539Y-7267484D01*
X10313539Y-7267484D02*
X10361158Y-7267484D01*
X10361158Y-7267484D02*
X10380206Y-7277008D01*
X10380206Y-7277008D02*
X10389730Y-7286531D01*
X10389730Y-7286531D02*
X10399254Y-7305579D01*
X10399254Y-7305579D02*
X10399254Y-7324627D01*
X10399254Y-7324627D02*
X10389730Y-7353198D01*
X10389730Y-7353198D02*
X10275444Y-7467484D01*
X10275444Y-7467484D02*
X10399254Y-7467484D01*
X10627825Y-7457960D02*
X10646873Y-7467484D01*
X10646873Y-7467484D02*
X10684968Y-7467484D01*
X10684968Y-7467484D02*
X10704016Y-7457960D01*
X10704016Y-7457960D02*
X10713539Y-7438912D01*
X10713539Y-7438912D02*
X10713539Y-7429388D01*
X10713539Y-7429388D02*
X10704016Y-7410341D01*
X10704016Y-7410341D02*
X10684968Y-7400817D01*
X10684968Y-7400817D02*
X10656396Y-7400817D01*
X10656396Y-7400817D02*
X10637349Y-7391293D01*
X10637349Y-7391293D02*
X10627825Y-7372246D01*
X10627825Y-7372246D02*
X10627825Y-7362722D01*
X10627825Y-7362722D02*
X10637349Y-7343674D01*
X10637349Y-7343674D02*
X10656396Y-7334150D01*
X10656396Y-7334150D02*
X10684968Y-7334150D01*
X10684968Y-7334150D02*
X10704016Y-7343674D01*
X10827825Y-7467484D02*
X10808777Y-7457960D01*
X10808777Y-7457960D02*
X10799254Y-7438912D01*
X10799254Y-7438912D02*
X10799254Y-7267484D01*
X10932587Y-7467484D02*
X10913539Y-7457960D01*
X10913539Y-7457960D02*
X10904016Y-7448436D01*
X10904016Y-7448436D02*
X10894492Y-7429388D01*
X10894492Y-7429388D02*
X10894492Y-7372246D01*
X10894492Y-7372246D02*
X10904016Y-7353198D01*
X10904016Y-7353198D02*
X10913539Y-7343674D01*
X10913539Y-7343674D02*
X10932587Y-7334150D01*
X10932587Y-7334150D02*
X10961158Y-7334150D01*
X10961158Y-7334150D02*
X10980206Y-7343674D01*
X10980206Y-7343674D02*
X10989730Y-7353198D01*
X10989730Y-7353198D02*
X10999254Y-7372246D01*
X10999254Y-7372246D02*
X10999254Y-7429388D01*
X10999254Y-7429388D02*
X10989730Y-7448436D01*
X10989730Y-7448436D02*
X10980206Y-7457960D01*
X10980206Y-7457960D02*
X10961158Y-7467484D01*
X10961158Y-7467484D02*
X10932587Y-7467484D01*
X11056397Y-7334150D02*
X11132587Y-7334150D01*
X11084968Y-7267484D02*
X11084968Y-7438912D01*
X11084968Y-7438912D02*
X11094492Y-7457960D01*
X11094492Y-7457960D02*
X11113539Y-7467484D01*
X11113539Y-7467484D02*
X11132587Y-7467484D01*
X11189730Y-7457960D02*
X11208777Y-7467484D01*
X11208777Y-7467484D02*
X11246873Y-7467484D01*
X11246873Y-7467484D02*
X11265920Y-7457960D01*
X11265920Y-7457960D02*
X11275444Y-7438912D01*
X11275444Y-7438912D02*
X11275444Y-7429388D01*
X11275444Y-7429388D02*
X11265920Y-7410341D01*
X11265920Y-7410341D02*
X11246873Y-7400817D01*
X11246873Y-7400817D02*
X11218301Y-7400817D01*
X11218301Y-7400817D02*
X11199254Y-7391293D01*
X11199254Y-7391293D02*
X11189730Y-7372246D01*
X11189730Y-7372246D02*
X11189730Y-7362722D01*
X11189730Y-7362722D02*
X11199254Y-7343674D01*
X11199254Y-7343674D02*
X11218301Y-7334150D01*
X11218301Y-7334150D02*
X11246873Y-7334150D01*
X11246873Y-7334150D02*
X11265920Y-7343674D01*
X11342111Y-7543674D02*
X11351635Y-7534150D01*
X11351635Y-7534150D02*
X11370682Y-7505579D01*
X11370682Y-7505579D02*
X11380206Y-7486531D01*
X11380206Y-7486531D02*
X11389730Y-7457960D01*
X11389730Y-7457960D02*
X11399254Y-7410341D01*
X11399254Y-7410341D02*
X11399254Y-7372246D01*
X11399254Y-7372246D02*
X11389730Y-7324627D01*
X11389730Y-7324627D02*
X11380206Y-7296055D01*
X11380206Y-7296055D02*
X11370682Y-7277008D01*
X11370682Y-7277008D02*
X11351635Y-7248436D01*
X11351635Y-7248436D02*
X11342111Y-7238912D01*
X11704016Y-7543674D02*
X11694492Y-7534150D01*
X11694492Y-7534150D02*
X11675444Y-7505579D01*
X11675444Y-7505579D02*
X11665920Y-7486531D01*
X11665920Y-7486531D02*
X11656396Y-7457960D01*
X11656396Y-7457960D02*
X11646873Y-7410341D01*
X11646873Y-7410341D02*
X11646873Y-7372246D01*
X11646873Y-7372246D02*
X11656396Y-7324627D01*
X11656396Y-7324627D02*
X11665920Y-7296055D01*
X11665920Y-7296055D02*
X11675444Y-7277008D01*
X11675444Y-7277008D02*
X11694492Y-7248436D01*
X11694492Y-7248436D02*
X11704016Y-7238912D01*
X11780206Y-7334150D02*
X11780206Y-7467484D01*
X11780206Y-7353198D02*
X11789730Y-7343674D01*
X11789730Y-7343674D02*
X11808777Y-7334150D01*
X11808777Y-7334150D02*
X11837349Y-7334150D01*
X11837349Y-7334150D02*
X11856396Y-7343674D01*
X11856396Y-7343674D02*
X11865920Y-7362722D01*
X11865920Y-7362722D02*
X11865920Y-7467484D01*
X11989730Y-7467484D02*
X11970682Y-7457960D01*
X11970682Y-7457960D02*
X11961158Y-7448436D01*
X11961158Y-7448436D02*
X11951635Y-7429388D01*
X11951635Y-7429388D02*
X11951635Y-7372246D01*
X11951635Y-7372246D02*
X11961158Y-7353198D01*
X11961158Y-7353198D02*
X11970682Y-7343674D01*
X11970682Y-7343674D02*
X11989730Y-7334150D01*
X11989730Y-7334150D02*
X12018301Y-7334150D01*
X12018301Y-7334150D02*
X12037349Y-7343674D01*
X12037349Y-7343674D02*
X12046873Y-7353198D01*
X12046873Y-7353198D02*
X12056396Y-7372246D01*
X12056396Y-7372246D02*
X12056396Y-7429388D01*
X12056396Y-7429388D02*
X12046873Y-7448436D01*
X12046873Y-7448436D02*
X12037349Y-7457960D01*
X12037349Y-7457960D02*
X12018301Y-7467484D01*
X12018301Y-7467484D02*
X11989730Y-7467484D01*
X12113539Y-7334150D02*
X12189730Y-7334150D01*
X12142111Y-7267484D02*
X12142111Y-7438912D01*
X12142111Y-7438912D02*
X12151635Y-7457960D01*
X12151635Y-7457960D02*
X12170682Y-7467484D01*
X12170682Y-7467484D02*
X12189730Y-7467484D01*
X12408777Y-7334150D02*
X12408777Y-7534150D01*
X12408777Y-7343674D02*
X12427825Y-7334150D01*
X12427825Y-7334150D02*
X12465920Y-7334150D01*
X12465920Y-7334150D02*
X12484968Y-7343674D01*
X12484968Y-7343674D02*
X12494492Y-7353198D01*
X12494492Y-7353198D02*
X12504016Y-7372246D01*
X12504016Y-7372246D02*
X12504016Y-7429388D01*
X12504016Y-7429388D02*
X12494492Y-7448436D01*
X12494492Y-7448436D02*
X12484968Y-7457960D01*
X12484968Y-7457960D02*
X12465920Y-7467484D01*
X12465920Y-7467484D02*
X12427825Y-7467484D01*
X12427825Y-7467484D02*
X12408777Y-7457960D01*
X12618301Y-7467484D02*
X12599254Y-7457960D01*
X12599254Y-7457960D02*
X12589730Y-7438912D01*
X12589730Y-7438912D02*
X12589730Y-7267484D01*
X12780206Y-7467484D02*
X12780206Y-7362722D01*
X12780206Y-7362722D02*
X12770682Y-7343674D01*
X12770682Y-7343674D02*
X12751635Y-7334150D01*
X12751635Y-7334150D02*
X12713539Y-7334150D01*
X12713539Y-7334150D02*
X12694492Y-7343674D01*
X12780206Y-7457960D02*
X12761158Y-7467484D01*
X12761158Y-7467484D02*
X12713539Y-7467484D01*
X12713539Y-7467484D02*
X12694492Y-7457960D01*
X12694492Y-7457960D02*
X12684968Y-7438912D01*
X12684968Y-7438912D02*
X12684968Y-7419865D01*
X12684968Y-7419865D02*
X12694492Y-7400817D01*
X12694492Y-7400817D02*
X12713539Y-7391293D01*
X12713539Y-7391293D02*
X12761158Y-7391293D01*
X12761158Y-7391293D02*
X12780206Y-7381769D01*
X12846873Y-7334150D02*
X12923063Y-7334150D01*
X12875444Y-7267484D02*
X12875444Y-7438912D01*
X12875444Y-7438912D02*
X12884968Y-7457960D01*
X12884968Y-7457960D02*
X12904016Y-7467484D01*
X12904016Y-7467484D02*
X12923063Y-7467484D01*
X13065920Y-7457960D02*
X13046873Y-7467484D01*
X13046873Y-7467484D02*
X13008777Y-7467484D01*
X13008777Y-7467484D02*
X12989730Y-7457960D01*
X12989730Y-7457960D02*
X12980206Y-7438912D01*
X12980206Y-7438912D02*
X12980206Y-7362722D01*
X12980206Y-7362722D02*
X12989730Y-7343674D01*
X12989730Y-7343674D02*
X13008777Y-7334150D01*
X13008777Y-7334150D02*
X13046873Y-7334150D01*
X13046873Y-7334150D02*
X13065920Y-7343674D01*
X13065920Y-7343674D02*
X13075444Y-7362722D01*
X13075444Y-7362722D02*
X13075444Y-7381769D01*
X13075444Y-7381769D02*
X12980206Y-7400817D01*
X13246873Y-7467484D02*
X13246873Y-7267484D01*
X13246873Y-7457960D02*
X13227825Y-7467484D01*
X13227825Y-7467484D02*
X13189730Y-7467484D01*
X13189730Y-7467484D02*
X13170682Y-7457960D01*
X13170682Y-7457960D02*
X13161158Y-7448436D01*
X13161158Y-7448436D02*
X13151635Y-7429388D01*
X13151635Y-7429388D02*
X13151635Y-7372246D01*
X13151635Y-7372246D02*
X13161158Y-7353198D01*
X13161158Y-7353198D02*
X13170682Y-7343674D01*
X13170682Y-7343674D02*
X13189730Y-7334150D01*
X13189730Y-7334150D02*
X13227825Y-7334150D01*
X13227825Y-7334150D02*
X13246873Y-7343674D01*
X13323063Y-7543674D02*
X13332587Y-7534150D01*
X13332587Y-7534150D02*
X13351635Y-7505579D01*
X13351635Y-7505579D02*
X13361158Y-7486531D01*
X13361158Y-7486531D02*
X13370682Y-7457960D01*
X13370682Y-7457960D02*
X13380206Y-7410341D01*
X13380206Y-7410341D02*
X13380206Y-7372246D01*
X13380206Y-7372246D02*
X13370682Y-7324627D01*
X13370682Y-7324627D02*
X13361158Y-7296055D01*
X13361158Y-7296055D02*
X13351635Y-7277008D01*
X13351635Y-7277008D02*
X13332587Y-7248436D01*
X13332587Y-7248436D02*
X13323063Y-7238912D01*
M02*
