M48
; DRILL file {KiCad 7.0.8} date Wed Oct 25 20:50:11 2023
; FORMAT={-:-/ absolute / inch / decimal}
; #@! TF.CreationDate,2023-10-25T20:50:11+02:00
; #@! TF.GenerationSoftware,Kicad,Pcbnew,7.0.8
; #@! TF.FileFunction,Plated,1,2,PTH
FMAT,2
INCH
; #@! TA.AperFunction,Plated,PTH,ViaDrill
T1C0.0157
; #@! TA.AperFunction,Plated,PTH,ComponentDrill
T2C0.0315
; #@! TA.AperFunction,Plated,PTH,ComponentDrill
T3C0.0394
; #@! TA.AperFunction,Plated,PTH,ComponentDrill
T4C0.0433
; #@! TA.AperFunction,Plated,PTH,ComponentDrill
T5C0.0512
; #@! TA.AperFunction,Plated,PTH,ComponentDrill
T6C0.1260
%
G90
G05
T1
X2.4Y-2.55
X2.65Y-1.65
X2.65Y-1.9
X2.7Y-2.15
X2.9Y-2.2
X2.95Y-1.65
X2.95Y-1.9
X3.2Y-1.7
X3.323Y-1.85
X3.35Y-2.15
X3.4Y-1.85
X3.5Y-1.523
X3.6Y-1.85
X3.7Y-1.5
X3.8Y-1.75
X3.8Y-1.8
X3.8Y-1.9
X3.8Y-2.0
X3.9Y-1.75
X3.9Y-2.2
X3.9Y-2.5
X4.361Y-1.4
X4.7Y-2.3
T2
X2.1407Y-2.4409
X2.1407Y-2.5394
X2.6907Y-2.4516
X2.6907Y-2.55
X4.25Y-1.65
X4.25Y-1.7484
T3
X4.25Y-2.15
X4.25Y-2.35
X4.25Y-2.45
X4.35Y-2.15
X4.35Y-2.35
X4.35Y-2.45
X4.6441Y-1.85
X4.6441Y-1.9402
X4.6441Y-2.0303
X4.6441Y-2.1205
X4.6441Y-2.2106
X4.722Y-1.8049
X4.722Y-1.8951
X4.722Y-1.9852
X4.722Y-2.0754
X4.722Y-2.1656
X4.8Y-1.85
X4.8Y-1.9402
X4.8Y-2.0303
X4.8Y-2.1205
X4.8Y-2.2106
T4
X2.0407Y-2.2409
X2.4407Y-2.2409
T5
X2.0232Y-1.1047
X2.1929Y-0.9
X2.1929Y-1.2858
X2.975Y-1.2
X3.05Y-1.0
X3.125Y-1.2
X3.2Y-1.0
X3.275Y-1.2
X3.35Y-1.0
X3.425Y-1.2
X3.5Y-1.0
X3.575Y-1.2
X3.65Y-1.0
X3.725Y-1.2
X3.8Y-1.0
X3.875Y-1.2
X3.95Y-1.0
X4.025Y-1.2
X4.1Y-1.0
X4.175Y-1.2
X4.25Y-1.0
X4.325Y-1.2
X4.4Y-1.0
X4.475Y-1.2
T6
X4.7248Y-1.5278
X4.7248Y-2.512
T3
G00X2.0907Y-1.7106
M15
G01X2.0907Y-1.7894
M16
G05
G00X2.1695Y-1.935
M15
G01X2.2482Y-1.935
M16
G05
G00X2.327Y-1.7106
M15
G01X2.327Y-1.7894
M16
G05
T0
M30
