%TF.GenerationSoftware,KiCad,Pcbnew,7.0.8*%
%TF.CreationDate,2023-10-25T20:50:05+02:00*%
%TF.ProjectId,SCART_syncSplitter,53434152-545f-4737-996e-6353706c6974,rev?*%
%TF.SameCoordinates,Original*%
%TF.FileFunction,Legend,Top*%
%TF.FilePolarity,Positive*%
%FSLAX46Y46*%
G04 Gerber Fmt 4.6, Leading zero omitted, Abs format (unit mm)*
G04 Created by KiCad (PCBNEW 7.0.8) date 2023-10-25 20:50:05*
%MOMM*%
%LPD*%
G01*
G04 APERTURE LIST*
%ADD10C,0.150000*%
%ADD11C,0.120000*%
G04 APERTURE END LIST*
D10*
X56176905Y-54904819D02*
X56176905Y-53904819D01*
X56176905Y-53904819D02*
X56415000Y-53904819D01*
X56415000Y-53904819D02*
X56557857Y-53952438D01*
X56557857Y-53952438D02*
X56653095Y-54047676D01*
X56653095Y-54047676D02*
X56700714Y-54142914D01*
X56700714Y-54142914D02*
X56748333Y-54333390D01*
X56748333Y-54333390D02*
X56748333Y-54476247D01*
X56748333Y-54476247D02*
X56700714Y-54666723D01*
X56700714Y-54666723D02*
X56653095Y-54761961D01*
X56653095Y-54761961D02*
X56557857Y-54857200D01*
X56557857Y-54857200D02*
X56415000Y-54904819D01*
X56415000Y-54904819D02*
X56176905Y-54904819D01*
X57700714Y-54904819D02*
X57129286Y-54904819D01*
X57415000Y-54904819D02*
X57415000Y-53904819D01*
X57415000Y-53904819D02*
X57319762Y-54047676D01*
X57319762Y-54047676D02*
X57224524Y-54142914D01*
X57224524Y-54142914D02*
X57129286Y-54190533D01*
X51573095Y-55274819D02*
X51573095Y-54274819D01*
X52144523Y-55274819D02*
X51715952Y-54703390D01*
X52144523Y-54274819D02*
X51573095Y-54846247D01*
X100163333Y-58324819D02*
X99830000Y-57848628D01*
X99591905Y-58324819D02*
X99591905Y-57324819D01*
X99591905Y-57324819D02*
X99972857Y-57324819D01*
X99972857Y-57324819D02*
X100068095Y-57372438D01*
X100068095Y-57372438D02*
X100115714Y-57420057D01*
X100115714Y-57420057D02*
X100163333Y-57515295D01*
X100163333Y-57515295D02*
X100163333Y-57658152D01*
X100163333Y-57658152D02*
X100115714Y-57753390D01*
X100115714Y-57753390D02*
X100068095Y-57801009D01*
X100068095Y-57801009D02*
X99972857Y-57848628D01*
X99972857Y-57848628D02*
X99591905Y-57848628D01*
X101020476Y-57658152D02*
X101020476Y-58324819D01*
X100782381Y-57277200D02*
X100544286Y-57991485D01*
X100544286Y-57991485D02*
X101163333Y-57991485D01*
X101433333Y-37834819D02*
X101100000Y-37358628D01*
X100861905Y-37834819D02*
X100861905Y-36834819D01*
X100861905Y-36834819D02*
X101242857Y-36834819D01*
X101242857Y-36834819D02*
X101338095Y-36882438D01*
X101338095Y-36882438D02*
X101385714Y-36930057D01*
X101385714Y-36930057D02*
X101433333Y-37025295D01*
X101433333Y-37025295D02*
X101433333Y-37168152D01*
X101433333Y-37168152D02*
X101385714Y-37263390D01*
X101385714Y-37263390D02*
X101338095Y-37311009D01*
X101338095Y-37311009D02*
X101242857Y-37358628D01*
X101242857Y-37358628D02*
X100861905Y-37358628D01*
X101814286Y-36930057D02*
X101861905Y-36882438D01*
X101861905Y-36882438D02*
X101957143Y-36834819D01*
X101957143Y-36834819D02*
X102195238Y-36834819D01*
X102195238Y-36834819D02*
X102290476Y-36882438D01*
X102290476Y-36882438D02*
X102338095Y-36930057D01*
X102338095Y-36930057D02*
X102385714Y-37025295D01*
X102385714Y-37025295D02*
X102385714Y-37120533D01*
X102385714Y-37120533D02*
X102338095Y-37263390D01*
X102338095Y-37263390D02*
X101766667Y-37834819D01*
X101766667Y-37834819D02*
X102385714Y-37834819D01*
X82675833Y-53074819D02*
X82342500Y-52598628D01*
X82104405Y-53074819D02*
X82104405Y-52074819D01*
X82104405Y-52074819D02*
X82485357Y-52074819D01*
X82485357Y-52074819D02*
X82580595Y-52122438D01*
X82580595Y-52122438D02*
X82628214Y-52170057D01*
X82628214Y-52170057D02*
X82675833Y-52265295D01*
X82675833Y-52265295D02*
X82675833Y-52408152D01*
X82675833Y-52408152D02*
X82628214Y-52503390D01*
X82628214Y-52503390D02*
X82580595Y-52551009D01*
X82580595Y-52551009D02*
X82485357Y-52598628D01*
X82485357Y-52598628D02*
X82104405Y-52598628D01*
X83247262Y-52503390D02*
X83152024Y-52455771D01*
X83152024Y-52455771D02*
X83104405Y-52408152D01*
X83104405Y-52408152D02*
X83056786Y-52312914D01*
X83056786Y-52312914D02*
X83056786Y-52265295D01*
X83056786Y-52265295D02*
X83104405Y-52170057D01*
X83104405Y-52170057D02*
X83152024Y-52122438D01*
X83152024Y-52122438D02*
X83247262Y-52074819D01*
X83247262Y-52074819D02*
X83437738Y-52074819D01*
X83437738Y-52074819D02*
X83532976Y-52122438D01*
X83532976Y-52122438D02*
X83580595Y-52170057D01*
X83580595Y-52170057D02*
X83628214Y-52265295D01*
X83628214Y-52265295D02*
X83628214Y-52312914D01*
X83628214Y-52312914D02*
X83580595Y-52408152D01*
X83580595Y-52408152D02*
X83532976Y-52455771D01*
X83532976Y-52455771D02*
X83437738Y-52503390D01*
X83437738Y-52503390D02*
X83247262Y-52503390D01*
X83247262Y-52503390D02*
X83152024Y-52551009D01*
X83152024Y-52551009D02*
X83104405Y-52598628D01*
X83104405Y-52598628D02*
X83056786Y-52693866D01*
X83056786Y-52693866D02*
X83056786Y-52884342D01*
X83056786Y-52884342D02*
X83104405Y-52979580D01*
X83104405Y-52979580D02*
X83152024Y-53027200D01*
X83152024Y-53027200D02*
X83247262Y-53074819D01*
X83247262Y-53074819D02*
X83437738Y-53074819D01*
X83437738Y-53074819D02*
X83532976Y-53027200D01*
X83532976Y-53027200D02*
X83580595Y-52979580D01*
X83580595Y-52979580D02*
X83628214Y-52884342D01*
X83628214Y-52884342D02*
X83628214Y-52693866D01*
X83628214Y-52693866D02*
X83580595Y-52598628D01*
X83580595Y-52598628D02*
X83532976Y-52551009D01*
X83532976Y-52551009D02*
X83437738Y-52503390D01*
X51866666Y-34414819D02*
X51866666Y-35129104D01*
X51866666Y-35129104D02*
X51819047Y-35271961D01*
X51819047Y-35271961D02*
X51723809Y-35367200D01*
X51723809Y-35367200D02*
X51580952Y-35414819D01*
X51580952Y-35414819D02*
X51485714Y-35414819D01*
X52819047Y-34414819D02*
X52342857Y-34414819D01*
X52342857Y-34414819D02*
X52295238Y-34891009D01*
X52295238Y-34891009D02*
X52342857Y-34843390D01*
X52342857Y-34843390D02*
X52438095Y-34795771D01*
X52438095Y-34795771D02*
X52676190Y-34795771D01*
X52676190Y-34795771D02*
X52771428Y-34843390D01*
X52771428Y-34843390D02*
X52819047Y-34891009D01*
X52819047Y-34891009D02*
X52866666Y-34986247D01*
X52866666Y-34986247D02*
X52866666Y-35224342D01*
X52866666Y-35224342D02*
X52819047Y-35319580D01*
X52819047Y-35319580D02*
X52771428Y-35367200D01*
X52771428Y-35367200D02*
X52676190Y-35414819D01*
X52676190Y-35414819D02*
X52438095Y-35414819D01*
X52438095Y-35414819D02*
X52342857Y-35367200D01*
X52342857Y-35367200D02*
X52295238Y-35319580D01*
X50321666Y-49654819D02*
X50321666Y-50369104D01*
X50321666Y-50369104D02*
X50274047Y-50511961D01*
X50274047Y-50511961D02*
X50178809Y-50607200D01*
X50178809Y-50607200D02*
X50035952Y-50654819D01*
X50035952Y-50654819D02*
X49940714Y-50654819D01*
X50702619Y-49654819D02*
X51321666Y-49654819D01*
X51321666Y-49654819D02*
X50988333Y-50035771D01*
X50988333Y-50035771D02*
X51131190Y-50035771D01*
X51131190Y-50035771D02*
X51226428Y-50083390D01*
X51226428Y-50083390D02*
X51274047Y-50131009D01*
X51274047Y-50131009D02*
X51321666Y-50226247D01*
X51321666Y-50226247D02*
X51321666Y-50464342D01*
X51321666Y-50464342D02*
X51274047Y-50559580D01*
X51274047Y-50559580D02*
X51226428Y-50607200D01*
X51226428Y-50607200D02*
X51131190Y-50654819D01*
X51131190Y-50654819D02*
X50845476Y-50654819D01*
X50845476Y-50654819D02*
X50750238Y-50607200D01*
X50750238Y-50607200D02*
X50702619Y-50559580D01*
X50984580Y-63416666D02*
X51032200Y-63464285D01*
X51032200Y-63464285D02*
X51079819Y-63607142D01*
X51079819Y-63607142D02*
X51079819Y-63702380D01*
X51079819Y-63702380D02*
X51032200Y-63845237D01*
X51032200Y-63845237D02*
X50936961Y-63940475D01*
X50936961Y-63940475D02*
X50841723Y-63988094D01*
X50841723Y-63988094D02*
X50651247Y-64035713D01*
X50651247Y-64035713D02*
X50508390Y-64035713D01*
X50508390Y-64035713D02*
X50317914Y-63988094D01*
X50317914Y-63988094D02*
X50222676Y-63940475D01*
X50222676Y-63940475D02*
X50127438Y-63845237D01*
X50127438Y-63845237D02*
X50079819Y-63702380D01*
X50079819Y-63702380D02*
X50079819Y-63607142D01*
X50079819Y-63607142D02*
X50127438Y-63464285D01*
X50127438Y-63464285D02*
X50175057Y-63416666D01*
X51079819Y-62940475D02*
X51079819Y-62749999D01*
X51079819Y-62749999D02*
X51032200Y-62654761D01*
X51032200Y-62654761D02*
X50984580Y-62607142D01*
X50984580Y-62607142D02*
X50841723Y-62511904D01*
X50841723Y-62511904D02*
X50651247Y-62464285D01*
X50651247Y-62464285D02*
X50270295Y-62464285D01*
X50270295Y-62464285D02*
X50175057Y-62511904D01*
X50175057Y-62511904D02*
X50127438Y-62559523D01*
X50127438Y-62559523D02*
X50079819Y-62654761D01*
X50079819Y-62654761D02*
X50079819Y-62845237D01*
X50079819Y-62845237D02*
X50127438Y-62940475D01*
X50127438Y-62940475D02*
X50175057Y-62988094D01*
X50175057Y-62988094D02*
X50270295Y-63035713D01*
X50270295Y-63035713D02*
X50508390Y-63035713D01*
X50508390Y-63035713D02*
X50603628Y-62988094D01*
X50603628Y-62988094D02*
X50651247Y-62940475D01*
X50651247Y-62940475D02*
X50698866Y-62845237D01*
X50698866Y-62845237D02*
X50698866Y-62654761D01*
X50698866Y-62654761D02*
X50651247Y-62559523D01*
X50651247Y-62559523D02*
X50603628Y-62511904D01*
X50603628Y-62511904D02*
X50508390Y-62464285D01*
X91000595Y-42964819D02*
X91000595Y-43774342D01*
X91000595Y-43774342D02*
X91048214Y-43869580D01*
X91048214Y-43869580D02*
X91095833Y-43917200D01*
X91095833Y-43917200D02*
X91191071Y-43964819D01*
X91191071Y-43964819D02*
X91381547Y-43964819D01*
X91381547Y-43964819D02*
X91476785Y-43917200D01*
X91476785Y-43917200D02*
X91524404Y-43869580D01*
X91524404Y-43869580D02*
X91572023Y-43774342D01*
X91572023Y-43774342D02*
X91572023Y-42964819D01*
X92572023Y-43964819D02*
X92000595Y-43964819D01*
X92286309Y-43964819D02*
X92286309Y-42964819D01*
X92286309Y-42964819D02*
X92191071Y-43107676D01*
X92191071Y-43107676D02*
X92095833Y-43202914D01*
X92095833Y-43202914D02*
X92000595Y-43250533D01*
X82675833Y-56884819D02*
X82342500Y-56408628D01*
X82104405Y-56884819D02*
X82104405Y-55884819D01*
X82104405Y-55884819D02*
X82485357Y-55884819D01*
X82485357Y-55884819D02*
X82580595Y-55932438D01*
X82580595Y-55932438D02*
X82628214Y-55980057D01*
X82628214Y-55980057D02*
X82675833Y-56075295D01*
X82675833Y-56075295D02*
X82675833Y-56218152D01*
X82675833Y-56218152D02*
X82628214Y-56313390D01*
X82628214Y-56313390D02*
X82580595Y-56361009D01*
X82580595Y-56361009D02*
X82485357Y-56408628D01*
X82485357Y-56408628D02*
X82104405Y-56408628D01*
X83152024Y-56884819D02*
X83342500Y-56884819D01*
X83342500Y-56884819D02*
X83437738Y-56837200D01*
X83437738Y-56837200D02*
X83485357Y-56789580D01*
X83485357Y-56789580D02*
X83580595Y-56646723D01*
X83580595Y-56646723D02*
X83628214Y-56456247D01*
X83628214Y-56456247D02*
X83628214Y-56075295D01*
X83628214Y-56075295D02*
X83580595Y-55980057D01*
X83580595Y-55980057D02*
X83532976Y-55932438D01*
X83532976Y-55932438D02*
X83437738Y-55884819D01*
X83437738Y-55884819D02*
X83247262Y-55884819D01*
X83247262Y-55884819D02*
X83152024Y-55932438D01*
X83152024Y-55932438D02*
X83104405Y-55980057D01*
X83104405Y-55980057D02*
X83056786Y-56075295D01*
X83056786Y-56075295D02*
X83056786Y-56313390D01*
X83056786Y-56313390D02*
X83104405Y-56408628D01*
X83104405Y-56408628D02*
X83152024Y-56456247D01*
X83152024Y-56456247D02*
X83247262Y-56503866D01*
X83247262Y-56503866D02*
X83437738Y-56503866D01*
X83437738Y-56503866D02*
X83532976Y-56456247D01*
X83532976Y-56456247D02*
X83580595Y-56408628D01*
X83580595Y-56408628D02*
X83628214Y-56313390D01*
X59234580Y-63436666D02*
X59282200Y-63484285D01*
X59282200Y-63484285D02*
X59329819Y-63627142D01*
X59329819Y-63627142D02*
X59329819Y-63722380D01*
X59329819Y-63722380D02*
X59282200Y-63865237D01*
X59282200Y-63865237D02*
X59186961Y-63960475D01*
X59186961Y-63960475D02*
X59091723Y-64008094D01*
X59091723Y-64008094D02*
X58901247Y-64055713D01*
X58901247Y-64055713D02*
X58758390Y-64055713D01*
X58758390Y-64055713D02*
X58567914Y-64008094D01*
X58567914Y-64008094D02*
X58472676Y-63960475D01*
X58472676Y-63960475D02*
X58377438Y-63865237D01*
X58377438Y-63865237D02*
X58329819Y-63722380D01*
X58329819Y-63722380D02*
X58329819Y-63627142D01*
X58329819Y-63627142D02*
X58377438Y-63484285D01*
X58377438Y-63484285D02*
X58425057Y-63436666D01*
X58329819Y-63103332D02*
X58329819Y-62436666D01*
X58329819Y-62436666D02*
X59329819Y-62865237D01*
X78865833Y-47349580D02*
X78818214Y-47397200D01*
X78818214Y-47397200D02*
X78675357Y-47444819D01*
X78675357Y-47444819D02*
X78580119Y-47444819D01*
X78580119Y-47444819D02*
X78437262Y-47397200D01*
X78437262Y-47397200D02*
X78342024Y-47301961D01*
X78342024Y-47301961D02*
X78294405Y-47206723D01*
X78294405Y-47206723D02*
X78246786Y-47016247D01*
X78246786Y-47016247D02*
X78246786Y-46873390D01*
X78246786Y-46873390D02*
X78294405Y-46682914D01*
X78294405Y-46682914D02*
X78342024Y-46587676D01*
X78342024Y-46587676D02*
X78437262Y-46492438D01*
X78437262Y-46492438D02*
X78580119Y-46444819D01*
X78580119Y-46444819D02*
X78675357Y-46444819D01*
X78675357Y-46444819D02*
X78818214Y-46492438D01*
X78818214Y-46492438D02*
X78865833Y-46540057D01*
X79199167Y-46444819D02*
X79818214Y-46444819D01*
X79818214Y-46444819D02*
X79484881Y-46825771D01*
X79484881Y-46825771D02*
X79627738Y-46825771D01*
X79627738Y-46825771D02*
X79722976Y-46873390D01*
X79722976Y-46873390D02*
X79770595Y-46921009D01*
X79770595Y-46921009D02*
X79818214Y-47016247D01*
X79818214Y-47016247D02*
X79818214Y-47254342D01*
X79818214Y-47254342D02*
X79770595Y-47349580D01*
X79770595Y-47349580D02*
X79722976Y-47397200D01*
X79722976Y-47397200D02*
X79627738Y-47444819D01*
X79627738Y-47444819D02*
X79342024Y-47444819D01*
X79342024Y-47444819D02*
X79246786Y-47397200D01*
X79246786Y-47397200D02*
X79199167Y-47349580D01*
X76904580Y-63666666D02*
X76952200Y-63714285D01*
X76952200Y-63714285D02*
X76999819Y-63857142D01*
X76999819Y-63857142D02*
X76999819Y-63952380D01*
X76999819Y-63952380D02*
X76952200Y-64095237D01*
X76952200Y-64095237D02*
X76856961Y-64190475D01*
X76856961Y-64190475D02*
X76761723Y-64238094D01*
X76761723Y-64238094D02*
X76571247Y-64285713D01*
X76571247Y-64285713D02*
X76428390Y-64285713D01*
X76428390Y-64285713D02*
X76237914Y-64238094D01*
X76237914Y-64238094D02*
X76142676Y-64190475D01*
X76142676Y-64190475D02*
X76047438Y-64095237D01*
X76047438Y-64095237D02*
X75999819Y-63952380D01*
X75999819Y-63952380D02*
X75999819Y-63857142D01*
X75999819Y-63857142D02*
X76047438Y-63714285D01*
X76047438Y-63714285D02*
X76095057Y-63666666D01*
X75999819Y-62809523D02*
X75999819Y-62999999D01*
X75999819Y-62999999D02*
X76047438Y-63095237D01*
X76047438Y-63095237D02*
X76095057Y-63142856D01*
X76095057Y-63142856D02*
X76237914Y-63238094D01*
X76237914Y-63238094D02*
X76428390Y-63285713D01*
X76428390Y-63285713D02*
X76809342Y-63285713D01*
X76809342Y-63285713D02*
X76904580Y-63238094D01*
X76904580Y-63238094D02*
X76952200Y-63190475D01*
X76952200Y-63190475D02*
X76999819Y-63095237D01*
X76999819Y-63095237D02*
X76999819Y-62904761D01*
X76999819Y-62904761D02*
X76952200Y-62809523D01*
X76952200Y-62809523D02*
X76904580Y-62761904D01*
X76904580Y-62761904D02*
X76809342Y-62714285D01*
X76809342Y-62714285D02*
X76571247Y-62714285D01*
X76571247Y-62714285D02*
X76476009Y-62761904D01*
X76476009Y-62761904D02*
X76428390Y-62809523D01*
X76428390Y-62809523D02*
X76380771Y-62904761D01*
X76380771Y-62904761D02*
X76380771Y-63095237D01*
X76380771Y-63095237D02*
X76428390Y-63190475D01*
X76428390Y-63190475D02*
X76476009Y-63238094D01*
X76476009Y-63238094D02*
X76571247Y-63285713D01*
X100163333Y-54514819D02*
X99830000Y-54038628D01*
X99591905Y-54514819D02*
X99591905Y-53514819D01*
X99591905Y-53514819D02*
X99972857Y-53514819D01*
X99972857Y-53514819D02*
X100068095Y-53562438D01*
X100068095Y-53562438D02*
X100115714Y-53610057D01*
X100115714Y-53610057D02*
X100163333Y-53705295D01*
X100163333Y-53705295D02*
X100163333Y-53848152D01*
X100163333Y-53848152D02*
X100115714Y-53943390D01*
X100115714Y-53943390D02*
X100068095Y-53991009D01*
X100068095Y-53991009D02*
X99972857Y-54038628D01*
X99972857Y-54038628D02*
X99591905Y-54038628D01*
X100496667Y-53514819D02*
X101163333Y-53514819D01*
X101163333Y-53514819D02*
X100734762Y-54514819D01*
X72454580Y-63686666D02*
X72502200Y-63734285D01*
X72502200Y-63734285D02*
X72549819Y-63877142D01*
X72549819Y-63877142D02*
X72549819Y-63972380D01*
X72549819Y-63972380D02*
X72502200Y-64115237D01*
X72502200Y-64115237D02*
X72406961Y-64210475D01*
X72406961Y-64210475D02*
X72311723Y-64258094D01*
X72311723Y-64258094D02*
X72121247Y-64305713D01*
X72121247Y-64305713D02*
X71978390Y-64305713D01*
X71978390Y-64305713D02*
X71787914Y-64258094D01*
X71787914Y-64258094D02*
X71692676Y-64210475D01*
X71692676Y-64210475D02*
X71597438Y-64115237D01*
X71597438Y-64115237D02*
X71549819Y-63972380D01*
X71549819Y-63972380D02*
X71549819Y-63877142D01*
X71549819Y-63877142D02*
X71597438Y-63734285D01*
X71597438Y-63734285D02*
X71645057Y-63686666D01*
X71978390Y-63115237D02*
X71930771Y-63210475D01*
X71930771Y-63210475D02*
X71883152Y-63258094D01*
X71883152Y-63258094D02*
X71787914Y-63305713D01*
X71787914Y-63305713D02*
X71740295Y-63305713D01*
X71740295Y-63305713D02*
X71645057Y-63258094D01*
X71645057Y-63258094D02*
X71597438Y-63210475D01*
X71597438Y-63210475D02*
X71549819Y-63115237D01*
X71549819Y-63115237D02*
X71549819Y-62924761D01*
X71549819Y-62924761D02*
X71597438Y-62829523D01*
X71597438Y-62829523D02*
X71645057Y-62781904D01*
X71645057Y-62781904D02*
X71740295Y-62734285D01*
X71740295Y-62734285D02*
X71787914Y-62734285D01*
X71787914Y-62734285D02*
X71883152Y-62781904D01*
X71883152Y-62781904D02*
X71930771Y-62829523D01*
X71930771Y-62829523D02*
X71978390Y-62924761D01*
X71978390Y-62924761D02*
X71978390Y-63115237D01*
X71978390Y-63115237D02*
X72026009Y-63210475D01*
X72026009Y-63210475D02*
X72073628Y-63258094D01*
X72073628Y-63258094D02*
X72168866Y-63305713D01*
X72168866Y-63305713D02*
X72359342Y-63305713D01*
X72359342Y-63305713D02*
X72454580Y-63258094D01*
X72454580Y-63258094D02*
X72502200Y-63210475D01*
X72502200Y-63210475D02*
X72549819Y-63115237D01*
X72549819Y-63115237D02*
X72549819Y-62924761D01*
X72549819Y-62924761D02*
X72502200Y-62829523D01*
X72502200Y-62829523D02*
X72454580Y-62781904D01*
X72454580Y-62781904D02*
X72359342Y-62734285D01*
X72359342Y-62734285D02*
X72168866Y-62734285D01*
X72168866Y-62734285D02*
X72073628Y-62781904D01*
X72073628Y-62781904D02*
X72026009Y-62829523D01*
X72026009Y-62829523D02*
X71978390Y-62924761D01*
X90981905Y-62134819D02*
X90981905Y-61134819D01*
X90981905Y-61134819D02*
X91220000Y-61134819D01*
X91220000Y-61134819D02*
X91362857Y-61182438D01*
X91362857Y-61182438D02*
X91458095Y-61277676D01*
X91458095Y-61277676D02*
X91505714Y-61372914D01*
X91505714Y-61372914D02*
X91553333Y-61563390D01*
X91553333Y-61563390D02*
X91553333Y-61706247D01*
X91553333Y-61706247D02*
X91505714Y-61896723D01*
X91505714Y-61896723D02*
X91458095Y-61991961D01*
X91458095Y-61991961D02*
X91362857Y-62087200D01*
X91362857Y-62087200D02*
X91220000Y-62134819D01*
X91220000Y-62134819D02*
X90981905Y-62134819D01*
X91934286Y-61230057D02*
X91981905Y-61182438D01*
X91981905Y-61182438D02*
X92077143Y-61134819D01*
X92077143Y-61134819D02*
X92315238Y-61134819D01*
X92315238Y-61134819D02*
X92410476Y-61182438D01*
X92410476Y-61182438D02*
X92458095Y-61230057D01*
X92458095Y-61230057D02*
X92505714Y-61325295D01*
X92505714Y-61325295D02*
X92505714Y-61420533D01*
X92505714Y-61420533D02*
X92458095Y-61563390D01*
X92458095Y-61563390D02*
X91886667Y-62134819D01*
X91886667Y-62134819D02*
X92505714Y-62134819D01*
X94281666Y-33173319D02*
X94281666Y-33887604D01*
X94281666Y-33887604D02*
X94234047Y-34030461D01*
X94234047Y-34030461D02*
X94138809Y-34125700D01*
X94138809Y-34125700D02*
X93995952Y-34173319D01*
X93995952Y-34173319D02*
X93900714Y-34173319D01*
X95281666Y-34173319D02*
X94710238Y-34173319D01*
X94995952Y-34173319D02*
X94995952Y-33173319D01*
X94995952Y-33173319D02*
X94900714Y-33316176D01*
X94900714Y-33316176D02*
X94805476Y-33411414D01*
X94805476Y-33411414D02*
X94710238Y-33459033D01*
X91472143Y-21298700D02*
X91615000Y-21346319D01*
X91615000Y-21346319D02*
X91853095Y-21346319D01*
X91853095Y-21346319D02*
X91948333Y-21298700D01*
X91948333Y-21298700D02*
X91995952Y-21251080D01*
X91995952Y-21251080D02*
X92043571Y-21155842D01*
X92043571Y-21155842D02*
X92043571Y-21060604D01*
X92043571Y-21060604D02*
X91995952Y-20965366D01*
X91995952Y-20965366D02*
X91948333Y-20917747D01*
X91948333Y-20917747D02*
X91853095Y-20870128D01*
X91853095Y-20870128D02*
X91662619Y-20822509D01*
X91662619Y-20822509D02*
X91567381Y-20774890D01*
X91567381Y-20774890D02*
X91519762Y-20727271D01*
X91519762Y-20727271D02*
X91472143Y-20632033D01*
X91472143Y-20632033D02*
X91472143Y-20536795D01*
X91472143Y-20536795D02*
X91519762Y-20441557D01*
X91519762Y-20441557D02*
X91567381Y-20393938D01*
X91567381Y-20393938D02*
X91662619Y-20346319D01*
X91662619Y-20346319D02*
X91900714Y-20346319D01*
X91900714Y-20346319D02*
X92043571Y-20393938D01*
X93043571Y-21251080D02*
X92995952Y-21298700D01*
X92995952Y-21298700D02*
X92853095Y-21346319D01*
X92853095Y-21346319D02*
X92757857Y-21346319D01*
X92757857Y-21346319D02*
X92615000Y-21298700D01*
X92615000Y-21298700D02*
X92519762Y-21203461D01*
X92519762Y-21203461D02*
X92472143Y-21108223D01*
X92472143Y-21108223D02*
X92424524Y-20917747D01*
X92424524Y-20917747D02*
X92424524Y-20774890D01*
X92424524Y-20774890D02*
X92472143Y-20584414D01*
X92472143Y-20584414D02*
X92519762Y-20489176D01*
X92519762Y-20489176D02*
X92615000Y-20393938D01*
X92615000Y-20393938D02*
X92757857Y-20346319D01*
X92757857Y-20346319D02*
X92853095Y-20346319D01*
X92853095Y-20346319D02*
X92995952Y-20393938D01*
X92995952Y-20393938D02*
X93043571Y-20441557D01*
X93424524Y-21060604D02*
X93900714Y-21060604D01*
X93329286Y-21346319D02*
X93662619Y-20346319D01*
X93662619Y-20346319D02*
X93995952Y-21346319D01*
X94900714Y-21346319D02*
X94567381Y-20870128D01*
X94329286Y-21346319D02*
X94329286Y-20346319D01*
X94329286Y-20346319D02*
X94710238Y-20346319D01*
X94710238Y-20346319D02*
X94805476Y-20393938D01*
X94805476Y-20393938D02*
X94853095Y-20441557D01*
X94853095Y-20441557D02*
X94900714Y-20536795D01*
X94900714Y-20536795D02*
X94900714Y-20679652D01*
X94900714Y-20679652D02*
X94853095Y-20774890D01*
X94853095Y-20774890D02*
X94805476Y-20822509D01*
X94805476Y-20822509D02*
X94710238Y-20870128D01*
X94710238Y-20870128D02*
X94329286Y-20870128D01*
X95186429Y-20346319D02*
X95757857Y-20346319D01*
X95472143Y-21346319D02*
X95472143Y-20346319D01*
X96091191Y-20965366D02*
X96853096Y-20965366D01*
X97662619Y-20822509D02*
X97329286Y-20822509D01*
X97329286Y-21346319D02*
X97329286Y-20346319D01*
X97329286Y-20346319D02*
X97805476Y-20346319D01*
X100163333Y-62134819D02*
X99830000Y-61658628D01*
X99591905Y-62134819D02*
X99591905Y-61134819D01*
X99591905Y-61134819D02*
X99972857Y-61134819D01*
X99972857Y-61134819D02*
X100068095Y-61182438D01*
X100068095Y-61182438D02*
X100115714Y-61230057D01*
X100115714Y-61230057D02*
X100163333Y-61325295D01*
X100163333Y-61325295D02*
X100163333Y-61468152D01*
X100163333Y-61468152D02*
X100115714Y-61563390D01*
X100115714Y-61563390D02*
X100068095Y-61611009D01*
X100068095Y-61611009D02*
X99972857Y-61658628D01*
X99972857Y-61658628D02*
X99591905Y-61658628D01*
X101068095Y-61134819D02*
X100591905Y-61134819D01*
X100591905Y-61134819D02*
X100544286Y-61611009D01*
X100544286Y-61611009D02*
X100591905Y-61563390D01*
X100591905Y-61563390D02*
X100687143Y-61515771D01*
X100687143Y-61515771D02*
X100925238Y-61515771D01*
X100925238Y-61515771D02*
X101020476Y-61563390D01*
X101020476Y-61563390D02*
X101068095Y-61611009D01*
X101068095Y-61611009D02*
X101115714Y-61706247D01*
X101115714Y-61706247D02*
X101115714Y-61944342D01*
X101115714Y-61944342D02*
X101068095Y-62039580D01*
X101068095Y-62039580D02*
X101020476Y-62087200D01*
X101020476Y-62087200D02*
X100925238Y-62134819D01*
X100925238Y-62134819D02*
X100687143Y-62134819D01*
X100687143Y-62134819D02*
X100591905Y-62087200D01*
X100591905Y-62087200D02*
X100544286Y-62039580D01*
X114804819Y-51638333D02*
X115519104Y-51638333D01*
X115519104Y-51638333D02*
X115661961Y-51685952D01*
X115661961Y-51685952D02*
X115757200Y-51781190D01*
X115757200Y-51781190D02*
X115804819Y-51924047D01*
X115804819Y-51924047D02*
X115804819Y-52019285D01*
X114900057Y-51209761D02*
X114852438Y-51162142D01*
X114852438Y-51162142D02*
X114804819Y-51066904D01*
X114804819Y-51066904D02*
X114804819Y-50828809D01*
X114804819Y-50828809D02*
X114852438Y-50733571D01*
X114852438Y-50733571D02*
X114900057Y-50685952D01*
X114900057Y-50685952D02*
X114995295Y-50638333D01*
X114995295Y-50638333D02*
X115090533Y-50638333D01*
X115090533Y-50638333D02*
X115233390Y-50685952D01*
X115233390Y-50685952D02*
X115804819Y-51257380D01*
X115804819Y-51257380D02*
X115804819Y-50638333D01*
X91109580Y-37289166D02*
X91157200Y-37336785D01*
X91157200Y-37336785D02*
X91204819Y-37479642D01*
X91204819Y-37479642D02*
X91204819Y-37574880D01*
X91204819Y-37574880D02*
X91157200Y-37717737D01*
X91157200Y-37717737D02*
X91061961Y-37812975D01*
X91061961Y-37812975D02*
X90966723Y-37860594D01*
X90966723Y-37860594D02*
X90776247Y-37908213D01*
X90776247Y-37908213D02*
X90633390Y-37908213D01*
X90633390Y-37908213D02*
X90442914Y-37860594D01*
X90442914Y-37860594D02*
X90347676Y-37812975D01*
X90347676Y-37812975D02*
X90252438Y-37717737D01*
X90252438Y-37717737D02*
X90204819Y-37574880D01*
X90204819Y-37574880D02*
X90204819Y-37479642D01*
X90204819Y-37479642D02*
X90252438Y-37336785D01*
X90252438Y-37336785D02*
X90300057Y-37289166D01*
X90300057Y-36908213D02*
X90252438Y-36860594D01*
X90252438Y-36860594D02*
X90204819Y-36765356D01*
X90204819Y-36765356D02*
X90204819Y-36527261D01*
X90204819Y-36527261D02*
X90252438Y-36432023D01*
X90252438Y-36432023D02*
X90300057Y-36384404D01*
X90300057Y-36384404D02*
X90395295Y-36336785D01*
X90395295Y-36336785D02*
X90490533Y-36336785D01*
X90490533Y-36336785D02*
X90633390Y-36384404D01*
X90633390Y-36384404D02*
X91204819Y-36955832D01*
X91204819Y-36955832D02*
X91204819Y-36336785D01*
X78865833Y-43634819D02*
X78532500Y-43158628D01*
X78294405Y-43634819D02*
X78294405Y-42634819D01*
X78294405Y-42634819D02*
X78675357Y-42634819D01*
X78675357Y-42634819D02*
X78770595Y-42682438D01*
X78770595Y-42682438D02*
X78818214Y-42730057D01*
X78818214Y-42730057D02*
X78865833Y-42825295D01*
X78865833Y-42825295D02*
X78865833Y-42968152D01*
X78865833Y-42968152D02*
X78818214Y-43063390D01*
X78818214Y-43063390D02*
X78770595Y-43111009D01*
X78770595Y-43111009D02*
X78675357Y-43158628D01*
X78675357Y-43158628D02*
X78294405Y-43158628D01*
X79199167Y-42634819D02*
X79818214Y-42634819D01*
X79818214Y-42634819D02*
X79484881Y-43015771D01*
X79484881Y-43015771D02*
X79627738Y-43015771D01*
X79627738Y-43015771D02*
X79722976Y-43063390D01*
X79722976Y-43063390D02*
X79770595Y-43111009D01*
X79770595Y-43111009D02*
X79818214Y-43206247D01*
X79818214Y-43206247D02*
X79818214Y-43444342D01*
X79818214Y-43444342D02*
X79770595Y-43539580D01*
X79770595Y-43539580D02*
X79722976Y-43587200D01*
X79722976Y-43587200D02*
X79627738Y-43634819D01*
X79627738Y-43634819D02*
X79342024Y-43634819D01*
X79342024Y-43634819D02*
X79246786Y-43587200D01*
X79246786Y-43587200D02*
X79199167Y-43539580D01*
X112059580Y-43326666D02*
X112107200Y-43374285D01*
X112107200Y-43374285D02*
X112154819Y-43517142D01*
X112154819Y-43517142D02*
X112154819Y-43612380D01*
X112154819Y-43612380D02*
X112107200Y-43755237D01*
X112107200Y-43755237D02*
X112011961Y-43850475D01*
X112011961Y-43850475D02*
X111916723Y-43898094D01*
X111916723Y-43898094D02*
X111726247Y-43945713D01*
X111726247Y-43945713D02*
X111583390Y-43945713D01*
X111583390Y-43945713D02*
X111392914Y-43898094D01*
X111392914Y-43898094D02*
X111297676Y-43850475D01*
X111297676Y-43850475D02*
X111202438Y-43755237D01*
X111202438Y-43755237D02*
X111154819Y-43612380D01*
X111154819Y-43612380D02*
X111154819Y-43517142D01*
X111154819Y-43517142D02*
X111202438Y-43374285D01*
X111202438Y-43374285D02*
X111250057Y-43326666D01*
X111154819Y-42421904D02*
X111154819Y-42898094D01*
X111154819Y-42898094D02*
X111631009Y-42945713D01*
X111631009Y-42945713D02*
X111583390Y-42898094D01*
X111583390Y-42898094D02*
X111535771Y-42802856D01*
X111535771Y-42802856D02*
X111535771Y-42564761D01*
X111535771Y-42564761D02*
X111583390Y-42469523D01*
X111583390Y-42469523D02*
X111631009Y-42421904D01*
X111631009Y-42421904D02*
X111726247Y-42374285D01*
X111726247Y-42374285D02*
X111964342Y-42374285D01*
X111964342Y-42374285D02*
X112059580Y-42421904D01*
X112059580Y-42421904D02*
X112107200Y-42469523D01*
X112107200Y-42469523D02*
X112154819Y-42564761D01*
X112154819Y-42564761D02*
X112154819Y-42802856D01*
X112154819Y-42802856D02*
X112107200Y-42898094D01*
X112107200Y-42898094D02*
X112059580Y-42945713D01*
X83457142Y-62134819D02*
X83123809Y-61658628D01*
X82885714Y-62134819D02*
X82885714Y-61134819D01*
X82885714Y-61134819D02*
X83266666Y-61134819D01*
X83266666Y-61134819D02*
X83361904Y-61182438D01*
X83361904Y-61182438D02*
X83409523Y-61230057D01*
X83409523Y-61230057D02*
X83457142Y-61325295D01*
X83457142Y-61325295D02*
X83457142Y-61468152D01*
X83457142Y-61468152D02*
X83409523Y-61563390D01*
X83409523Y-61563390D02*
X83361904Y-61611009D01*
X83361904Y-61611009D02*
X83266666Y-61658628D01*
X83266666Y-61658628D02*
X82885714Y-61658628D01*
X84409523Y-62134819D02*
X83838095Y-62134819D01*
X84123809Y-62134819D02*
X84123809Y-61134819D01*
X84123809Y-61134819D02*
X84028571Y-61277676D01*
X84028571Y-61277676D02*
X83933333Y-61372914D01*
X83933333Y-61372914D02*
X83838095Y-61420533D01*
X85028571Y-61134819D02*
X85123809Y-61134819D01*
X85123809Y-61134819D02*
X85219047Y-61182438D01*
X85219047Y-61182438D02*
X85266666Y-61230057D01*
X85266666Y-61230057D02*
X85314285Y-61325295D01*
X85314285Y-61325295D02*
X85361904Y-61515771D01*
X85361904Y-61515771D02*
X85361904Y-61753866D01*
X85361904Y-61753866D02*
X85314285Y-61944342D01*
X85314285Y-61944342D02*
X85266666Y-62039580D01*
X85266666Y-62039580D02*
X85219047Y-62087200D01*
X85219047Y-62087200D02*
X85123809Y-62134819D01*
X85123809Y-62134819D02*
X85028571Y-62134819D01*
X85028571Y-62134819D02*
X84933333Y-62087200D01*
X84933333Y-62087200D02*
X84885714Y-62039580D01*
X84885714Y-62039580D02*
X84838095Y-61944342D01*
X84838095Y-61944342D02*
X84790476Y-61753866D01*
X84790476Y-61753866D02*
X84790476Y-61515771D01*
X84790476Y-61515771D02*
X84838095Y-61325295D01*
X84838095Y-61325295D02*
X84885714Y-61230057D01*
X84885714Y-61230057D02*
X84933333Y-61182438D01*
X84933333Y-61182438D02*
X85028571Y-61134819D01*
X112274819Y-55443333D02*
X112989104Y-55443333D01*
X112989104Y-55443333D02*
X113131961Y-55490952D01*
X113131961Y-55490952D02*
X113227200Y-55586190D01*
X113227200Y-55586190D02*
X113274819Y-55729047D01*
X113274819Y-55729047D02*
X113274819Y-55824285D01*
X113274819Y-54967142D02*
X112274819Y-54967142D01*
X112274819Y-54967142D02*
X112274819Y-54586190D01*
X112274819Y-54586190D02*
X112322438Y-54490952D01*
X112322438Y-54490952D02*
X112370057Y-54443333D01*
X112370057Y-54443333D02*
X112465295Y-54395714D01*
X112465295Y-54395714D02*
X112608152Y-54395714D01*
X112608152Y-54395714D02*
X112703390Y-54443333D01*
X112703390Y-54443333D02*
X112751009Y-54490952D01*
X112751009Y-54490952D02*
X112798628Y-54586190D01*
X112798628Y-54586190D02*
X112798628Y-54967142D01*
X113274819Y-53443333D02*
X113274819Y-54014761D01*
X113274819Y-53729047D02*
X112274819Y-53729047D01*
X112274819Y-53729047D02*
X112417676Y-53824285D01*
X112417676Y-53824285D02*
X112512914Y-53919523D01*
X112512914Y-53919523D02*
X112560533Y-54014761D01*
X63924819Y-47866904D02*
X64734342Y-47866904D01*
X64734342Y-47866904D02*
X64829580Y-47819285D01*
X64829580Y-47819285D02*
X64877200Y-47771666D01*
X64877200Y-47771666D02*
X64924819Y-47676428D01*
X64924819Y-47676428D02*
X64924819Y-47485952D01*
X64924819Y-47485952D02*
X64877200Y-47390714D01*
X64877200Y-47390714D02*
X64829580Y-47343095D01*
X64829580Y-47343095D02*
X64734342Y-47295476D01*
X64734342Y-47295476D02*
X63924819Y-47295476D01*
X64020057Y-46866904D02*
X63972438Y-46819285D01*
X63972438Y-46819285D02*
X63924819Y-46724047D01*
X63924819Y-46724047D02*
X63924819Y-46485952D01*
X63924819Y-46485952D02*
X63972438Y-46390714D01*
X63972438Y-46390714D02*
X64020057Y-46343095D01*
X64020057Y-46343095D02*
X64115295Y-46295476D01*
X64115295Y-46295476D02*
X64210533Y-46295476D01*
X64210533Y-46295476D02*
X64353390Y-46343095D01*
X64353390Y-46343095D02*
X64924819Y-46914523D01*
X64924819Y-46914523D02*
X64924819Y-46295476D01*
X109053333Y-34194819D02*
X108720000Y-33718628D01*
X108481905Y-34194819D02*
X108481905Y-33194819D01*
X108481905Y-33194819D02*
X108862857Y-33194819D01*
X108862857Y-33194819D02*
X108958095Y-33242438D01*
X108958095Y-33242438D02*
X109005714Y-33290057D01*
X109005714Y-33290057D02*
X109053333Y-33385295D01*
X109053333Y-33385295D02*
X109053333Y-33528152D01*
X109053333Y-33528152D02*
X109005714Y-33623390D01*
X109005714Y-33623390D02*
X108958095Y-33671009D01*
X108958095Y-33671009D02*
X108862857Y-33718628D01*
X108862857Y-33718628D02*
X108481905Y-33718628D01*
X110005714Y-34194819D02*
X109434286Y-34194819D01*
X109720000Y-34194819D02*
X109720000Y-33194819D01*
X109720000Y-33194819D02*
X109624762Y-33337676D01*
X109624762Y-33337676D02*
X109529524Y-33432914D01*
X109529524Y-33432914D02*
X109434286Y-33480533D01*
X100163333Y-50704819D02*
X99830000Y-50228628D01*
X99591905Y-50704819D02*
X99591905Y-49704819D01*
X99591905Y-49704819D02*
X99972857Y-49704819D01*
X99972857Y-49704819D02*
X100068095Y-49752438D01*
X100068095Y-49752438D02*
X100115714Y-49800057D01*
X100115714Y-49800057D02*
X100163333Y-49895295D01*
X100163333Y-49895295D02*
X100163333Y-50038152D01*
X100163333Y-50038152D02*
X100115714Y-50133390D01*
X100115714Y-50133390D02*
X100068095Y-50181009D01*
X100068095Y-50181009D02*
X99972857Y-50228628D01*
X99972857Y-50228628D02*
X99591905Y-50228628D01*
X101020476Y-49704819D02*
X100830000Y-49704819D01*
X100830000Y-49704819D02*
X100734762Y-49752438D01*
X100734762Y-49752438D02*
X100687143Y-49800057D01*
X100687143Y-49800057D02*
X100591905Y-49942914D01*
X100591905Y-49942914D02*
X100544286Y-50133390D01*
X100544286Y-50133390D02*
X100544286Y-50514342D01*
X100544286Y-50514342D02*
X100591905Y-50609580D01*
X100591905Y-50609580D02*
X100639524Y-50657200D01*
X100639524Y-50657200D02*
X100734762Y-50704819D01*
X100734762Y-50704819D02*
X100925238Y-50704819D01*
X100925238Y-50704819D02*
X101020476Y-50657200D01*
X101020476Y-50657200D02*
X101068095Y-50609580D01*
X101068095Y-50609580D02*
X101115714Y-50514342D01*
X101115714Y-50514342D02*
X101115714Y-50276247D01*
X101115714Y-50276247D02*
X101068095Y-50181009D01*
X101068095Y-50181009D02*
X101020476Y-50133390D01*
X101020476Y-50133390D02*
X100925238Y-50085771D01*
X100925238Y-50085771D02*
X100734762Y-50085771D01*
X100734762Y-50085771D02*
X100639524Y-50133390D01*
X100639524Y-50133390D02*
X100591905Y-50181009D01*
X100591905Y-50181009D02*
X100544286Y-50276247D01*
X96189580Y-37289166D02*
X96237200Y-37336785D01*
X96237200Y-37336785D02*
X96284819Y-37479642D01*
X96284819Y-37479642D02*
X96284819Y-37574880D01*
X96284819Y-37574880D02*
X96237200Y-37717737D01*
X96237200Y-37717737D02*
X96141961Y-37812975D01*
X96141961Y-37812975D02*
X96046723Y-37860594D01*
X96046723Y-37860594D02*
X95856247Y-37908213D01*
X95856247Y-37908213D02*
X95713390Y-37908213D01*
X95713390Y-37908213D02*
X95522914Y-37860594D01*
X95522914Y-37860594D02*
X95427676Y-37812975D01*
X95427676Y-37812975D02*
X95332438Y-37717737D01*
X95332438Y-37717737D02*
X95284819Y-37574880D01*
X95284819Y-37574880D02*
X95284819Y-37479642D01*
X95284819Y-37479642D02*
X95332438Y-37336785D01*
X95332438Y-37336785D02*
X95380057Y-37289166D01*
X96284819Y-36336785D02*
X96284819Y-36908213D01*
X96284819Y-36622499D02*
X95284819Y-36622499D01*
X95284819Y-36622499D02*
X95427676Y-36717737D01*
X95427676Y-36717737D02*
X95522914Y-36812975D01*
X95522914Y-36812975D02*
X95570533Y-36908213D01*
X100109580Y-43346666D02*
X100157200Y-43394285D01*
X100157200Y-43394285D02*
X100204819Y-43537142D01*
X100204819Y-43537142D02*
X100204819Y-43632380D01*
X100204819Y-43632380D02*
X100157200Y-43775237D01*
X100157200Y-43775237D02*
X100061961Y-43870475D01*
X100061961Y-43870475D02*
X99966723Y-43918094D01*
X99966723Y-43918094D02*
X99776247Y-43965713D01*
X99776247Y-43965713D02*
X99633390Y-43965713D01*
X99633390Y-43965713D02*
X99442914Y-43918094D01*
X99442914Y-43918094D02*
X99347676Y-43870475D01*
X99347676Y-43870475D02*
X99252438Y-43775237D01*
X99252438Y-43775237D02*
X99204819Y-43632380D01*
X99204819Y-43632380D02*
X99204819Y-43537142D01*
X99204819Y-43537142D02*
X99252438Y-43394285D01*
X99252438Y-43394285D02*
X99300057Y-43346666D01*
X99538152Y-42489523D02*
X100204819Y-42489523D01*
X99157200Y-42727618D02*
X99871485Y-42965713D01*
X99871485Y-42965713D02*
X99871485Y-42346666D01*
X112274819Y-61293333D02*
X112989104Y-61293333D01*
X112989104Y-61293333D02*
X113131961Y-61340952D01*
X113131961Y-61340952D02*
X113227200Y-61436190D01*
X113227200Y-61436190D02*
X113274819Y-61579047D01*
X113274819Y-61579047D02*
X113274819Y-61674285D01*
X112608152Y-60388571D02*
X113274819Y-60388571D01*
X112227200Y-60626666D02*
X112941485Y-60864761D01*
X112941485Y-60864761D02*
X112941485Y-60245714D01*
D11*
%TO.C,D1*%
X53175000Y-56920000D02*
X54195000Y-56920000D01*
X54195000Y-55450000D02*
X54195000Y-58390000D01*
X54195000Y-58390000D02*
X59635000Y-58390000D01*
X54975000Y-55450000D02*
X54975000Y-58390000D01*
X55095000Y-55450000D02*
X55095000Y-58390000D01*
X55215000Y-55450000D02*
X55215000Y-58390000D01*
X59635000Y-55450000D02*
X54195000Y-55450000D01*
X59635000Y-58390000D02*
X59635000Y-55450000D01*
X60655000Y-56920000D02*
X59635000Y-56920000D01*
%TO.C,R4*%
X99602936Y-58780000D02*
X101057064Y-58780000D01*
X99602936Y-60600000D02*
X101057064Y-60600000D01*
%TO.C,R2*%
X102327064Y-36470000D02*
X100872936Y-36470000D01*
X102327064Y-34650000D02*
X100872936Y-34650000D01*
%TO.C,R8*%
X83569564Y-51710000D02*
X82115436Y-51710000D01*
X83569564Y-49890000D02*
X82115436Y-49890000D01*
D10*
%TO.C,J5*%
X46300000Y-24960000D02*
X46300000Y-31160000D01*
X46300000Y-31160000D02*
X49900000Y-31160000D01*
X49900000Y-21860000D02*
X57650000Y-21860000D01*
X49900000Y-24960000D02*
X46300000Y-24960000D01*
X49900000Y-33660000D02*
X49900000Y-21860000D01*
X53450000Y-33660000D02*
X49900000Y-33660000D01*
D11*
X55200000Y-34710000D02*
X56200000Y-34710000D01*
X55700000Y-34160000D02*
X55200000Y-34710000D01*
X56200000Y-34710000D02*
X55700000Y-34160000D01*
D10*
X59650000Y-21860000D02*
X62050000Y-21860000D01*
X61700000Y-33660000D02*
X57950000Y-33660000D01*
X61700000Y-33660000D02*
X62050000Y-33660000D01*
X62050000Y-21860000D02*
X62050000Y-33660000D01*
D11*
%TO.C,J3*%
X45305000Y-39850000D02*
X60005000Y-39850000D01*
X45305000Y-49050000D02*
X45305000Y-39850000D01*
X54105000Y-49050000D02*
X45305000Y-49050000D01*
X59155000Y-39650000D02*
X60205000Y-39650000D01*
X60005000Y-39850000D02*
X60005000Y-42450000D01*
X60005000Y-46350000D02*
X60005000Y-49050000D01*
X60005000Y-49050000D02*
X58105000Y-49050000D01*
X60205000Y-40700000D02*
X60205000Y-39650000D01*
%TO.C,C9*%
X52900000Y-66054775D02*
X52900000Y-65554775D01*
X52650000Y-65804775D02*
X53150000Y-65804775D01*
X51795000Y-63250000D02*
X56955000Y-63250000D01*
X51795000Y-63210000D02*
X56955000Y-63210000D01*
X51796000Y-63170000D02*
X56954000Y-63170000D01*
X51797000Y-63130000D02*
X56953000Y-63130000D01*
X51799000Y-63090000D02*
X56951000Y-63090000D01*
X51802000Y-63050000D02*
X56948000Y-63050000D01*
X51806000Y-63010000D02*
X53335000Y-63010000D01*
X55415000Y-63010000D02*
X56944000Y-63010000D01*
X51810000Y-62970000D02*
X53335000Y-62970000D01*
X55415000Y-62970000D02*
X56940000Y-62970000D01*
X51814000Y-62930000D02*
X53335000Y-62930000D01*
X55415000Y-62930000D02*
X56936000Y-62930000D01*
X51819000Y-62890000D02*
X53335000Y-62890000D01*
X55415000Y-62890000D02*
X56931000Y-62890000D01*
X51825000Y-62850000D02*
X53335000Y-62850000D01*
X55415000Y-62850000D02*
X56925000Y-62850000D01*
X51832000Y-62810000D02*
X53335000Y-62810000D01*
X55415000Y-62810000D02*
X56918000Y-62810000D01*
X51839000Y-62770000D02*
X53335000Y-62770000D01*
X55415000Y-62770000D02*
X56911000Y-62770000D01*
X51847000Y-62730000D02*
X53335000Y-62730000D01*
X55415000Y-62730000D02*
X56903000Y-62730000D01*
X51855000Y-62690000D02*
X53335000Y-62690000D01*
X55415000Y-62690000D02*
X56895000Y-62690000D01*
X51864000Y-62650000D02*
X53335000Y-62650000D01*
X55415000Y-62650000D02*
X56886000Y-62650000D01*
X51874000Y-62610000D02*
X53335000Y-62610000D01*
X55415000Y-62610000D02*
X56876000Y-62610000D01*
X51884000Y-62570000D02*
X53335000Y-62570000D01*
X55415000Y-62570000D02*
X56866000Y-62570000D01*
X51895000Y-62529000D02*
X53335000Y-62529000D01*
X55415000Y-62529000D02*
X56855000Y-62529000D01*
X51907000Y-62489000D02*
X53335000Y-62489000D01*
X55415000Y-62489000D02*
X56843000Y-62489000D01*
X51920000Y-62449000D02*
X53335000Y-62449000D01*
X55415000Y-62449000D02*
X56830000Y-62449000D01*
X51933000Y-62409000D02*
X53335000Y-62409000D01*
X55415000Y-62409000D02*
X56817000Y-62409000D01*
X51947000Y-62369000D02*
X53335000Y-62369000D01*
X55415000Y-62369000D02*
X56803000Y-62369000D01*
X51961000Y-62329000D02*
X53335000Y-62329000D01*
X55415000Y-62329000D02*
X56789000Y-62329000D01*
X51977000Y-62289000D02*
X53335000Y-62289000D01*
X55415000Y-62289000D02*
X56773000Y-62289000D01*
X51993000Y-62249000D02*
X53335000Y-62249000D01*
X55415000Y-62249000D02*
X56757000Y-62249000D01*
X52010000Y-62209000D02*
X53335000Y-62209000D01*
X55415000Y-62209000D02*
X56740000Y-62209000D01*
X52027000Y-62169000D02*
X53335000Y-62169000D01*
X55415000Y-62169000D02*
X56723000Y-62169000D01*
X52046000Y-62129000D02*
X53335000Y-62129000D01*
X55415000Y-62129000D02*
X56704000Y-62129000D01*
X52065000Y-62089000D02*
X53335000Y-62089000D01*
X55415000Y-62089000D02*
X56685000Y-62089000D01*
X52085000Y-62049000D02*
X53335000Y-62049000D01*
X55415000Y-62049000D02*
X56665000Y-62049000D01*
X52107000Y-62009000D02*
X53335000Y-62009000D01*
X55415000Y-62009000D02*
X56643000Y-62009000D01*
X52128000Y-61969000D02*
X53335000Y-61969000D01*
X55415000Y-61969000D02*
X56622000Y-61969000D01*
X52151000Y-61929000D02*
X53335000Y-61929000D01*
X55415000Y-61929000D02*
X56599000Y-61929000D01*
X52175000Y-61889000D02*
X53335000Y-61889000D01*
X55415000Y-61889000D02*
X56575000Y-61889000D01*
X52200000Y-61849000D02*
X53335000Y-61849000D01*
X55415000Y-61849000D02*
X56550000Y-61849000D01*
X52226000Y-61809000D02*
X53335000Y-61809000D01*
X55415000Y-61809000D02*
X56524000Y-61809000D01*
X52253000Y-61769000D02*
X53335000Y-61769000D01*
X55415000Y-61769000D02*
X56497000Y-61769000D01*
X52280000Y-61729000D02*
X53335000Y-61729000D01*
X55415000Y-61729000D02*
X56470000Y-61729000D01*
X52310000Y-61689000D02*
X53335000Y-61689000D01*
X55415000Y-61689000D02*
X56440000Y-61689000D01*
X52340000Y-61649000D02*
X53335000Y-61649000D01*
X55415000Y-61649000D02*
X56410000Y-61649000D01*
X52371000Y-61609000D02*
X53335000Y-61609000D01*
X55415000Y-61609000D02*
X56379000Y-61609000D01*
X52404000Y-61569000D02*
X53335000Y-61569000D01*
X55415000Y-61569000D02*
X56346000Y-61569000D01*
X52438000Y-61529000D02*
X53335000Y-61529000D01*
X55415000Y-61529000D02*
X56312000Y-61529000D01*
X52474000Y-61489000D02*
X53335000Y-61489000D01*
X55415000Y-61489000D02*
X56276000Y-61489000D01*
X52511000Y-61449000D02*
X53335000Y-61449000D01*
X55415000Y-61449000D02*
X56239000Y-61449000D01*
X52549000Y-61409000D02*
X53335000Y-61409000D01*
X55415000Y-61409000D02*
X56201000Y-61409000D01*
X52590000Y-61369000D02*
X53335000Y-61369000D01*
X55415000Y-61369000D02*
X56160000Y-61369000D01*
X52632000Y-61329000D02*
X53335000Y-61329000D01*
X55415000Y-61329000D02*
X56118000Y-61329000D01*
X52676000Y-61289000D02*
X53335000Y-61289000D01*
X55415000Y-61289000D02*
X56074000Y-61289000D01*
X52722000Y-61249000D02*
X53335000Y-61249000D01*
X55415000Y-61249000D02*
X56028000Y-61249000D01*
X52770000Y-61209000D02*
X53335000Y-61209000D01*
X55415000Y-61209000D02*
X55980000Y-61209000D01*
X52821000Y-61169000D02*
X53335000Y-61169000D01*
X55415000Y-61169000D02*
X55929000Y-61169000D01*
X52875000Y-61129000D02*
X53335000Y-61129000D01*
X55415000Y-61129000D02*
X55875000Y-61129000D01*
X52932000Y-61089000D02*
X53335000Y-61089000D01*
X55415000Y-61089000D02*
X55818000Y-61089000D01*
X52992000Y-61049000D02*
X53335000Y-61049000D01*
X55415000Y-61049000D02*
X55758000Y-61049000D01*
X53056000Y-61009000D02*
X53335000Y-61009000D01*
X55415000Y-61009000D02*
X55694000Y-61009000D01*
X53124000Y-60969000D02*
X53335000Y-60969000D01*
X55415000Y-60969000D02*
X55626000Y-60969000D01*
X53197000Y-60929000D02*
X55553000Y-60929000D01*
X53277000Y-60889000D02*
X55473000Y-60889000D01*
X53364000Y-60849000D02*
X55386000Y-60849000D01*
X53460000Y-60809000D02*
X55290000Y-60809000D01*
X53570000Y-60769000D02*
X55180000Y-60769000D01*
X53698000Y-60729000D02*
X55052000Y-60729000D01*
X53857000Y-60689000D02*
X54893000Y-60689000D01*
X54091000Y-60649000D02*
X54659000Y-60649000D01*
X56995000Y-63250000D02*
G75*
G03*
X56995000Y-63250000I-2620000J0D01*
G01*
%TO.C,U1*%
X91762500Y-44350000D02*
X88162500Y-44350000D01*
X91762500Y-44350000D02*
X93962500Y-44350000D01*
X91762500Y-49570000D02*
X89562500Y-49570000D01*
X91762500Y-49570000D02*
X93962500Y-49570000D01*
%TO.C,R9*%
X83569564Y-55520000D02*
X82115436Y-55520000D01*
X83569564Y-53700000D02*
X82115436Y-53700000D01*
%TO.C,C7*%
X59815000Y-63981252D02*
X59815000Y-62558748D01*
X61635000Y-63981252D02*
X61635000Y-62558748D01*
%TO.C,C3*%
X82131248Y-46080000D02*
X83553752Y-46080000D01*
X82131248Y-47900000D02*
X83553752Y-47900000D01*
%TO.C,C6*%
X75605000Y-62788748D02*
X75605000Y-64211252D01*
X73785000Y-62788748D02*
X73785000Y-64211252D01*
%TO.C,R7*%
X99602936Y-54970000D02*
X101057064Y-54970000D01*
X99602936Y-56790000D02*
X101057064Y-56790000D01*
%TO.C,C8*%
X69820000Y-60715225D02*
X69820000Y-61215225D01*
X70070000Y-60965225D02*
X69570000Y-60965225D01*
X70925000Y-63520000D02*
X65765000Y-63520000D01*
X70925000Y-63560000D02*
X65765000Y-63560000D01*
X70924000Y-63600000D02*
X65766000Y-63600000D01*
X70923000Y-63640000D02*
X65767000Y-63640000D01*
X70921000Y-63680000D02*
X65769000Y-63680000D01*
X70918000Y-63720000D02*
X65772000Y-63720000D01*
X70914000Y-63760000D02*
X69385000Y-63760000D01*
X67305000Y-63760000D02*
X65776000Y-63760000D01*
X70910000Y-63800000D02*
X69385000Y-63800000D01*
X67305000Y-63800000D02*
X65780000Y-63800000D01*
X70906000Y-63840000D02*
X69385000Y-63840000D01*
X67305000Y-63840000D02*
X65784000Y-63840000D01*
X70901000Y-63880000D02*
X69385000Y-63880000D01*
X67305000Y-63880000D02*
X65789000Y-63880000D01*
X70895000Y-63920000D02*
X69385000Y-63920000D01*
X67305000Y-63920000D02*
X65795000Y-63920000D01*
X70888000Y-63960000D02*
X69385000Y-63960000D01*
X67305000Y-63960000D02*
X65802000Y-63960000D01*
X70881000Y-64000000D02*
X69385000Y-64000000D01*
X67305000Y-64000000D02*
X65809000Y-64000000D01*
X70873000Y-64040000D02*
X69385000Y-64040000D01*
X67305000Y-64040000D02*
X65817000Y-64040000D01*
X70865000Y-64080000D02*
X69385000Y-64080000D01*
X67305000Y-64080000D02*
X65825000Y-64080000D01*
X70856000Y-64120000D02*
X69385000Y-64120000D01*
X67305000Y-64120000D02*
X65834000Y-64120000D01*
X70846000Y-64160000D02*
X69385000Y-64160000D01*
X67305000Y-64160000D02*
X65844000Y-64160000D01*
X70836000Y-64200000D02*
X69385000Y-64200000D01*
X67305000Y-64200000D02*
X65854000Y-64200000D01*
X70825000Y-64241000D02*
X69385000Y-64241000D01*
X67305000Y-64241000D02*
X65865000Y-64241000D01*
X70813000Y-64281000D02*
X69385000Y-64281000D01*
X67305000Y-64281000D02*
X65877000Y-64281000D01*
X70800000Y-64321000D02*
X69385000Y-64321000D01*
X67305000Y-64321000D02*
X65890000Y-64321000D01*
X70787000Y-64361000D02*
X69385000Y-64361000D01*
X67305000Y-64361000D02*
X65903000Y-64361000D01*
X70773000Y-64401000D02*
X69385000Y-64401000D01*
X67305000Y-64401000D02*
X65917000Y-64401000D01*
X70759000Y-64441000D02*
X69385000Y-64441000D01*
X67305000Y-64441000D02*
X65931000Y-64441000D01*
X70743000Y-64481000D02*
X69385000Y-64481000D01*
X67305000Y-64481000D02*
X65947000Y-64481000D01*
X70727000Y-64521000D02*
X69385000Y-64521000D01*
X67305000Y-64521000D02*
X65963000Y-64521000D01*
X70710000Y-64561000D02*
X69385000Y-64561000D01*
X67305000Y-64561000D02*
X65980000Y-64561000D01*
X70693000Y-64601000D02*
X69385000Y-64601000D01*
X67305000Y-64601000D02*
X65997000Y-64601000D01*
X70674000Y-64641000D02*
X69385000Y-64641000D01*
X67305000Y-64641000D02*
X66016000Y-64641000D01*
X70655000Y-64681000D02*
X69385000Y-64681000D01*
X67305000Y-64681000D02*
X66035000Y-64681000D01*
X70635000Y-64721000D02*
X69385000Y-64721000D01*
X67305000Y-64721000D02*
X66055000Y-64721000D01*
X70613000Y-64761000D02*
X69385000Y-64761000D01*
X67305000Y-64761000D02*
X66077000Y-64761000D01*
X70592000Y-64801000D02*
X69385000Y-64801000D01*
X67305000Y-64801000D02*
X66098000Y-64801000D01*
X70569000Y-64841000D02*
X69385000Y-64841000D01*
X67305000Y-64841000D02*
X66121000Y-64841000D01*
X70545000Y-64881000D02*
X69385000Y-64881000D01*
X67305000Y-64881000D02*
X66145000Y-64881000D01*
X70520000Y-64921000D02*
X69385000Y-64921000D01*
X67305000Y-64921000D02*
X66170000Y-64921000D01*
X70494000Y-64961000D02*
X69385000Y-64961000D01*
X67305000Y-64961000D02*
X66196000Y-64961000D01*
X70467000Y-65001000D02*
X69385000Y-65001000D01*
X67305000Y-65001000D02*
X66223000Y-65001000D01*
X70440000Y-65041000D02*
X69385000Y-65041000D01*
X67305000Y-65041000D02*
X66250000Y-65041000D01*
X70410000Y-65081000D02*
X69385000Y-65081000D01*
X67305000Y-65081000D02*
X66280000Y-65081000D01*
X70380000Y-65121000D02*
X69385000Y-65121000D01*
X67305000Y-65121000D02*
X66310000Y-65121000D01*
X70349000Y-65161000D02*
X69385000Y-65161000D01*
X67305000Y-65161000D02*
X66341000Y-65161000D01*
X70316000Y-65201000D02*
X69385000Y-65201000D01*
X67305000Y-65201000D02*
X66374000Y-65201000D01*
X70282000Y-65241000D02*
X69385000Y-65241000D01*
X67305000Y-65241000D02*
X66408000Y-65241000D01*
X70246000Y-65281000D02*
X69385000Y-65281000D01*
X67305000Y-65281000D02*
X66444000Y-65281000D01*
X70209000Y-65321000D02*
X69385000Y-65321000D01*
X67305000Y-65321000D02*
X66481000Y-65321000D01*
X70171000Y-65361000D02*
X69385000Y-65361000D01*
X67305000Y-65361000D02*
X66519000Y-65361000D01*
X70130000Y-65401000D02*
X69385000Y-65401000D01*
X67305000Y-65401000D02*
X66560000Y-65401000D01*
X70088000Y-65441000D02*
X69385000Y-65441000D01*
X67305000Y-65441000D02*
X66602000Y-65441000D01*
X70044000Y-65481000D02*
X69385000Y-65481000D01*
X67305000Y-65481000D02*
X66646000Y-65481000D01*
X69998000Y-65521000D02*
X69385000Y-65521000D01*
X67305000Y-65521000D02*
X66692000Y-65521000D01*
X69950000Y-65561000D02*
X69385000Y-65561000D01*
X67305000Y-65561000D02*
X66740000Y-65561000D01*
X69899000Y-65601000D02*
X69385000Y-65601000D01*
X67305000Y-65601000D02*
X66791000Y-65601000D01*
X69845000Y-65641000D02*
X69385000Y-65641000D01*
X67305000Y-65641000D02*
X66845000Y-65641000D01*
X69788000Y-65681000D02*
X69385000Y-65681000D01*
X67305000Y-65681000D02*
X66902000Y-65681000D01*
X69728000Y-65721000D02*
X69385000Y-65721000D01*
X67305000Y-65721000D02*
X66962000Y-65721000D01*
X69664000Y-65761000D02*
X69385000Y-65761000D01*
X67305000Y-65761000D02*
X67026000Y-65761000D01*
X69596000Y-65801000D02*
X69385000Y-65801000D01*
X67305000Y-65801000D02*
X67094000Y-65801000D01*
X69523000Y-65841000D02*
X67167000Y-65841000D01*
X69443000Y-65881000D02*
X67247000Y-65881000D01*
X69356000Y-65921000D02*
X67334000Y-65921000D01*
X69260000Y-65961000D02*
X67430000Y-65961000D01*
X69150000Y-66001000D02*
X67540000Y-66001000D01*
X69022000Y-66041000D02*
X67668000Y-66041000D01*
X68863000Y-66081000D02*
X67827000Y-66081000D01*
X68629000Y-66121000D02*
X68061000Y-66121000D01*
X70965000Y-63520000D02*
G75*
G03*
X70965000Y-63520000I-2620000J0D01*
G01*
%TO.C,D2*%
X89260000Y-62365000D02*
X89260000Y-64635000D01*
X89260000Y-64635000D02*
X93320000Y-64635000D01*
X93320000Y-62365000D02*
X89260000Y-62365000D01*
D10*
%TO.C,J1*%
X70915000Y-19700000D02*
X118315000Y-19700000D01*
D11*
%TO.C,R5*%
X99602936Y-62590000D02*
X101057064Y-62590000D01*
X99602936Y-64410000D02*
X101057064Y-64410000D01*
%TO.C,J2*%
X116290000Y-66790000D02*
X116290000Y-35820000D01*
X124890000Y-66790000D02*
X116290000Y-66790000D01*
X115395662Y-47240000D02*
X115395662Y-46740000D01*
X115828675Y-46990000D02*
X115395662Y-47240000D01*
X115395662Y-46740000D02*
X115828675Y-46990000D01*
X116290000Y-35820000D02*
X124890000Y-35820000D01*
%TO.C,C2*%
X89810000Y-36411248D02*
X89810000Y-37833752D01*
X87990000Y-36411248D02*
X87990000Y-37833752D01*
%TO.C,R3*%
X82115436Y-42270000D02*
X83569564Y-42270000D01*
X82115436Y-44090000D02*
X83569564Y-44090000D01*
%TO.C,C5*%
X109425000Y-40355225D02*
X109425000Y-40855225D01*
X109675000Y-40605225D02*
X109175000Y-40605225D01*
X110530000Y-43160000D02*
X105370000Y-43160000D01*
X110530000Y-43200000D02*
X105370000Y-43200000D01*
X110529000Y-43240000D02*
X105371000Y-43240000D01*
X110528000Y-43280000D02*
X105372000Y-43280000D01*
X110526000Y-43320000D02*
X105374000Y-43320000D01*
X110523000Y-43360000D02*
X105377000Y-43360000D01*
X110519000Y-43400000D02*
X108990000Y-43400000D01*
X106910000Y-43400000D02*
X105381000Y-43400000D01*
X110515000Y-43440000D02*
X108990000Y-43440000D01*
X106910000Y-43440000D02*
X105385000Y-43440000D01*
X110511000Y-43480000D02*
X108990000Y-43480000D01*
X106910000Y-43480000D02*
X105389000Y-43480000D01*
X110506000Y-43520000D02*
X108990000Y-43520000D01*
X106910000Y-43520000D02*
X105394000Y-43520000D01*
X110500000Y-43560000D02*
X108990000Y-43560000D01*
X106910000Y-43560000D02*
X105400000Y-43560000D01*
X110493000Y-43600000D02*
X108990000Y-43600000D01*
X106910000Y-43600000D02*
X105407000Y-43600000D01*
X110486000Y-43640000D02*
X108990000Y-43640000D01*
X106910000Y-43640000D02*
X105414000Y-43640000D01*
X110478000Y-43680000D02*
X108990000Y-43680000D01*
X106910000Y-43680000D02*
X105422000Y-43680000D01*
X110470000Y-43720000D02*
X108990000Y-43720000D01*
X106910000Y-43720000D02*
X105430000Y-43720000D01*
X110461000Y-43760000D02*
X108990000Y-43760000D01*
X106910000Y-43760000D02*
X105439000Y-43760000D01*
X110451000Y-43800000D02*
X108990000Y-43800000D01*
X106910000Y-43800000D02*
X105449000Y-43800000D01*
X110441000Y-43840000D02*
X108990000Y-43840000D01*
X106910000Y-43840000D02*
X105459000Y-43840000D01*
X110430000Y-43881000D02*
X108990000Y-43881000D01*
X106910000Y-43881000D02*
X105470000Y-43881000D01*
X110418000Y-43921000D02*
X108990000Y-43921000D01*
X106910000Y-43921000D02*
X105482000Y-43921000D01*
X110405000Y-43961000D02*
X108990000Y-43961000D01*
X106910000Y-43961000D02*
X105495000Y-43961000D01*
X110392000Y-44001000D02*
X108990000Y-44001000D01*
X106910000Y-44001000D02*
X105508000Y-44001000D01*
X110378000Y-44041000D02*
X108990000Y-44041000D01*
X106910000Y-44041000D02*
X105522000Y-44041000D01*
X110364000Y-44081000D02*
X108990000Y-44081000D01*
X106910000Y-44081000D02*
X105536000Y-44081000D01*
X110348000Y-44121000D02*
X108990000Y-44121000D01*
X106910000Y-44121000D02*
X105552000Y-44121000D01*
X110332000Y-44161000D02*
X108990000Y-44161000D01*
X106910000Y-44161000D02*
X105568000Y-44161000D01*
X110315000Y-44201000D02*
X108990000Y-44201000D01*
X106910000Y-44201000D02*
X105585000Y-44201000D01*
X110298000Y-44241000D02*
X108990000Y-44241000D01*
X106910000Y-44241000D02*
X105602000Y-44241000D01*
X110279000Y-44281000D02*
X108990000Y-44281000D01*
X106910000Y-44281000D02*
X105621000Y-44281000D01*
X110260000Y-44321000D02*
X108990000Y-44321000D01*
X106910000Y-44321000D02*
X105640000Y-44321000D01*
X110240000Y-44361000D02*
X108990000Y-44361000D01*
X106910000Y-44361000D02*
X105660000Y-44361000D01*
X110218000Y-44401000D02*
X108990000Y-44401000D01*
X106910000Y-44401000D02*
X105682000Y-44401000D01*
X110197000Y-44441000D02*
X108990000Y-44441000D01*
X106910000Y-44441000D02*
X105703000Y-44441000D01*
X110174000Y-44481000D02*
X108990000Y-44481000D01*
X106910000Y-44481000D02*
X105726000Y-44481000D01*
X110150000Y-44521000D02*
X108990000Y-44521000D01*
X106910000Y-44521000D02*
X105750000Y-44521000D01*
X110125000Y-44561000D02*
X108990000Y-44561000D01*
X106910000Y-44561000D02*
X105775000Y-44561000D01*
X110099000Y-44601000D02*
X108990000Y-44601000D01*
X106910000Y-44601000D02*
X105801000Y-44601000D01*
X110072000Y-44641000D02*
X108990000Y-44641000D01*
X106910000Y-44641000D02*
X105828000Y-44641000D01*
X110045000Y-44681000D02*
X108990000Y-44681000D01*
X106910000Y-44681000D02*
X105855000Y-44681000D01*
X110015000Y-44721000D02*
X108990000Y-44721000D01*
X106910000Y-44721000D02*
X105885000Y-44721000D01*
X109985000Y-44761000D02*
X108990000Y-44761000D01*
X106910000Y-44761000D02*
X105915000Y-44761000D01*
X109954000Y-44801000D02*
X108990000Y-44801000D01*
X106910000Y-44801000D02*
X105946000Y-44801000D01*
X109921000Y-44841000D02*
X108990000Y-44841000D01*
X106910000Y-44841000D02*
X105979000Y-44841000D01*
X109887000Y-44881000D02*
X108990000Y-44881000D01*
X106910000Y-44881000D02*
X106013000Y-44881000D01*
X109851000Y-44921000D02*
X108990000Y-44921000D01*
X106910000Y-44921000D02*
X106049000Y-44921000D01*
X109814000Y-44961000D02*
X108990000Y-44961000D01*
X106910000Y-44961000D02*
X106086000Y-44961000D01*
X109776000Y-45001000D02*
X108990000Y-45001000D01*
X106910000Y-45001000D02*
X106124000Y-45001000D01*
X109735000Y-45041000D02*
X108990000Y-45041000D01*
X106910000Y-45041000D02*
X106165000Y-45041000D01*
X109693000Y-45081000D02*
X108990000Y-45081000D01*
X106910000Y-45081000D02*
X106207000Y-45081000D01*
X109649000Y-45121000D02*
X108990000Y-45121000D01*
X106910000Y-45121000D02*
X106251000Y-45121000D01*
X109603000Y-45161000D02*
X108990000Y-45161000D01*
X106910000Y-45161000D02*
X106297000Y-45161000D01*
X109555000Y-45201000D02*
X108990000Y-45201000D01*
X106910000Y-45201000D02*
X106345000Y-45201000D01*
X109504000Y-45241000D02*
X108990000Y-45241000D01*
X106910000Y-45241000D02*
X106396000Y-45241000D01*
X109450000Y-45281000D02*
X108990000Y-45281000D01*
X106910000Y-45281000D02*
X106450000Y-45281000D01*
X109393000Y-45321000D02*
X108990000Y-45321000D01*
X106910000Y-45321000D02*
X106507000Y-45321000D01*
X109333000Y-45361000D02*
X108990000Y-45361000D01*
X106910000Y-45361000D02*
X106567000Y-45361000D01*
X109269000Y-45401000D02*
X108990000Y-45401000D01*
X106910000Y-45401000D02*
X106631000Y-45401000D01*
X109201000Y-45441000D02*
X108990000Y-45441000D01*
X106910000Y-45441000D02*
X106699000Y-45441000D01*
X109128000Y-45481000D02*
X106772000Y-45481000D01*
X109048000Y-45521000D02*
X106852000Y-45521000D01*
X108961000Y-45561000D02*
X106939000Y-45561000D01*
X108865000Y-45601000D02*
X107035000Y-45601000D01*
X108755000Y-45641000D02*
X107145000Y-45641000D01*
X108627000Y-45681000D02*
X107273000Y-45681000D01*
X108468000Y-45721000D02*
X107432000Y-45721000D01*
X108234000Y-45761000D02*
X107666000Y-45761000D01*
X110570000Y-43160000D02*
G75*
G03*
X110570000Y-43160000I-2620000J0D01*
G01*
%TO.C,R10*%
X83372936Y-62590000D02*
X84827064Y-62590000D01*
X83372936Y-64410000D02*
X84827064Y-64410000D01*
%TO.C,JP1*%
X111820000Y-53280000D02*
X111820000Y-54610000D01*
X110490000Y-53280000D02*
X111820000Y-53280000D01*
X109220000Y-53280000D02*
X106620000Y-53280000D01*
X109220000Y-53280000D02*
X109220000Y-55940000D01*
X106620000Y-53280000D02*
X106620000Y-55940000D01*
X109220000Y-55940000D02*
X106620000Y-55940000D01*
%TO.C,U2*%
X65920000Y-51930000D02*
X67730000Y-51930000D01*
X67730000Y-51930000D02*
X67730000Y-57055000D01*
X74510000Y-51930000D02*
X74510000Y-53030000D01*
X76320000Y-51930000D02*
X74510000Y-51930000D01*
X65920000Y-50430000D02*
X65920000Y-51930000D01*
X76320000Y-50430000D02*
X76320000Y-51930000D01*
%TO.C,R1*%
X108492936Y-34650000D02*
X109947064Y-34650000D01*
X108492936Y-36470000D02*
X109947064Y-36470000D01*
%TO.C,R6*%
X99602936Y-51160000D02*
X101057064Y-51160000D01*
X99602936Y-52980000D02*
X101057064Y-52980000D01*
%TO.C,C1*%
X94890000Y-36411248D02*
X94890000Y-37833752D01*
X93070000Y-36411248D02*
X93070000Y-37833752D01*
%TO.C,C4*%
X100690000Y-43891252D02*
X100690000Y-42468748D01*
X102510000Y-43891252D02*
X102510000Y-42468748D01*
%TO.C,J4*%
X111820000Y-58360000D02*
X111820000Y-59690000D01*
X110490000Y-58360000D02*
X111820000Y-58360000D01*
X109220000Y-58360000D02*
X106620000Y-58360000D01*
X109220000Y-58360000D02*
X109220000Y-60960000D01*
X106620000Y-58360000D02*
X106620000Y-63560000D01*
X111820000Y-60960000D02*
X111820000Y-63560000D01*
X109220000Y-60960000D02*
X111820000Y-60960000D01*
X111820000Y-63560000D02*
X106620000Y-63560000D01*
%TD*%
M02*
