%TF.GenerationSoftware,KiCad,Pcbnew,7.0.8*%
%TF.CreationDate,2023-10-25T20:50:05+02:00*%
%TF.ProjectId,SCART_syncSplitter,53434152-545f-4737-996e-6353706c6974,rev?*%
%TF.SameCoordinates,Original*%
%TF.FileFunction,Soldermask,Bot*%
%TF.FilePolarity,Negative*%
%FSLAX46Y46*%
G04 Gerber Fmt 4.6, Leading zero omitted, Abs format (unit mm)*
G04 Created by KiCad (PCBNEW 7.0.8) date 2023-10-25 20:50:05*
%MOMM*%
%LPD*%
G01*
G04 APERTURE LIST*
G04 Aperture macros list*
%AMRoundRect*
0 Rectangle with rounded corners*
0 $1 Rounding radius*
0 $2 $3 $4 $5 $6 $7 $8 $9 X,Y pos of 4 corners*
0 Add a 4 corners polygon primitive as box body*
4,1,4,$2,$3,$4,$5,$6,$7,$8,$9,$2,$3,0*
0 Add four circle primitives for the rounded corners*
1,1,$1+$1,$2,$3*
1,1,$1+$1,$4,$5*
1,1,$1+$1,$6,$7*
1,1,$1+$1,$8,$9*
0 Add four rect primitives between the rounded corners*
20,1,$1+$1,$2,$3,$4,$5,0*
20,1,$1+$1,$4,$5,$6,$7,0*
20,1,$1+$1,$6,$7,$8,$9,0*
20,1,$1+$1,$8,$9,$2,$3,0*%
%AMFreePoly0*
4,1,19,0.500000,-0.750000,0.000000,-0.750000,0.000000,-0.744911,-0.071157,-0.744911,-0.207708,-0.704816,-0.327430,-0.627875,-0.420627,-0.520320,-0.479746,-0.390866,-0.500000,-0.250000,-0.500000,0.250000,-0.479746,0.390866,-0.420627,0.520320,-0.327430,0.627875,-0.207708,0.704816,-0.071157,0.744911,0.000000,0.744911,0.000000,0.750000,0.500000,0.750000,0.500000,-0.750000,0.500000,-0.750000,
$1*%
%AMFreePoly1*
4,1,19,0.000000,0.744911,0.071157,0.744911,0.207708,0.704816,0.327430,0.627875,0.420627,0.520320,0.479746,0.390866,0.500000,0.250000,0.500000,-0.250000,0.479746,-0.390866,0.420627,-0.520320,0.327430,-0.627875,0.207708,-0.704816,0.071157,-0.744911,0.000000,-0.744911,0.000000,-0.750000,-0.500000,-0.750000,-0.500000,0.750000,0.000000,0.750000,0.000000,0.744911,0.000000,0.744911,
$1*%
G04 Aperture macros list end*
%ADD10R,2.200000X2.200000*%
%ADD11O,2.200000X2.200000*%
%ADD12O,4.000000X2.200000*%
%ADD13O,2.200000X4.000000*%
%ADD14R,4.000000X2.200000*%
%ADD15R,3.500000X3.500000*%
%ADD16RoundRect,0.750000X-0.750000X-1.000000X0.750000X-1.000000X0.750000X1.000000X-0.750000X1.000000X0*%
%ADD17RoundRect,0.875000X-0.875000X-0.875000X0.875000X-0.875000X0.875000X0.875000X-0.875000X0.875000X0*%
%ADD18R,1.600000X1.600000*%
%ADD19C,1.600000*%
%ADD20C,3.000000*%
%ADD21O,3.000000X6.000000*%
%ADD22O,2.000000X4.000000*%
%ADD23C,4.000000*%
%ADD24R,1.700000X1.700000*%
%ADD25O,1.700000X1.700000*%
%ADD26R,1.000000X1.000000*%
%ADD27FreePoly0,0.000000*%
%ADD28FreePoly1,0.000000*%
G04 APERTURE END LIST*
D10*
%TO.C,D1*%
X51835000Y-56920000D03*
D11*
X61995000Y-56920000D03*
%TD*%
D12*
%TO.C,J5*%
X55700000Y-22860000D03*
D13*
X51390000Y-28060000D03*
D14*
X55700000Y-32660000D03*
%TD*%
D15*
%TO.C,J3*%
X59105000Y-44450000D03*
D16*
X53105000Y-44450000D03*
D17*
X56105000Y-49150000D03*
%TD*%
D18*
%TO.C,C9*%
X54375000Y-64500000D03*
D19*
X54375000Y-62000000D03*
%TD*%
D18*
%TO.C,C8*%
X68345000Y-62270000D03*
D19*
X68345000Y-64770000D03*
%TD*%
D20*
%TO.C,J1*%
X68215000Y-22400000D03*
D21*
X68215000Y-23900000D03*
D20*
X68215000Y-25450000D03*
X121015000Y-22500000D03*
D21*
X121015000Y-24000000D03*
D20*
X121015000Y-25450000D03*
D22*
X75565000Y-30480000D03*
X77470000Y-25400000D03*
X79375000Y-30480000D03*
X81280000Y-25400000D03*
X83185000Y-30480000D03*
X85090000Y-25400000D03*
X86995000Y-30480000D03*
X88900000Y-25400000D03*
X90805000Y-30480000D03*
X92710000Y-25400000D03*
X94615000Y-30480000D03*
X96520000Y-25400000D03*
X98425000Y-30480000D03*
X100330000Y-25400000D03*
X102235000Y-30480000D03*
X104140000Y-25400000D03*
X106045000Y-30480000D03*
X107950000Y-25400000D03*
X109855000Y-30480000D03*
X111760000Y-25400000D03*
X113665000Y-30480000D03*
%TD*%
D23*
%TO.C,J2*%
X120010000Y-63805000D03*
X120010000Y-38805000D03*
D18*
X117960000Y-46990000D03*
D19*
X117960000Y-49280000D03*
X117960000Y-51570000D03*
X117960000Y-53860000D03*
X117960000Y-56150000D03*
X119940000Y-45845000D03*
X119940000Y-48135000D03*
X119940000Y-50425000D03*
X119940000Y-52715000D03*
X119940000Y-55005000D03*
X121920000Y-46990000D03*
X121920000Y-49280000D03*
X121920000Y-51570000D03*
X121920000Y-53860000D03*
X121920000Y-56150000D03*
%TD*%
D18*
%TO.C,C5*%
X107950000Y-41910000D03*
D19*
X107950000Y-44410000D03*
%TD*%
D24*
%TO.C,JP1*%
X110490000Y-54610000D03*
D25*
X107950000Y-54610000D03*
%TD*%
D24*
%TO.C,J4*%
X110490000Y-59690000D03*
D25*
X110490000Y-62230000D03*
X107950000Y-59690000D03*
X107950000Y-62230000D03*
%TD*%
D26*
%TO.C,TP3*%
X101600000Y-48260000D03*
%TD*%
%TO.C,TP1*%
X101600000Y-40640000D03*
%TD*%
%TO.C,TP2*%
X101600000Y-44450000D03*
%TD*%
D27*
%TO.C,JP2*%
X113650000Y-57150000D03*
D28*
X114950000Y-57150000D03*
%TD*%
M02*
