%TF.GenerationSoftware,KiCad,Pcbnew,7.0.8*%
%TF.CreationDate,2023-10-25T20:50:05+02:00*%
%TF.ProjectId,SCART_syncSplitter,53434152-545f-4737-996e-6353706c6974,rev?*%
%TF.SameCoordinates,Original*%
%TF.FileFunction,Paste,Top*%
%TF.FilePolarity,Positive*%
%FSLAX46Y46*%
G04 Gerber Fmt 4.6, Leading zero omitted, Abs format (unit mm)*
G04 Created by KiCad (PCBNEW 7.0.8) date 2023-10-25 20:50:05*
%MOMM*%
%LPD*%
G01*
G04 APERTURE LIST*
G04 Aperture macros list*
%AMRoundRect*
0 Rectangle with rounded corners*
0 $1 Rounding radius*
0 $2 $3 $4 $5 $6 $7 $8 $9 X,Y pos of 4 corners*
0 Add a 4 corners polygon primitive as box body*
4,1,4,$2,$3,$4,$5,$6,$7,$8,$9,$2,$3,0*
0 Add four circle primitives for the rounded corners*
1,1,$1+$1,$2,$3*
1,1,$1+$1,$4,$5*
1,1,$1+$1,$6,$7*
1,1,$1+$1,$8,$9*
0 Add four rect primitives between the rounded corners*
20,1,$1+$1,$2,$3,$4,$5,0*
20,1,$1+$1,$4,$5,$6,$7,0*
20,1,$1+$1,$6,$7,$8,$9,0*
20,1,$1+$1,$8,$9,$2,$3,0*%
G04 Aperture macros list end*
%ADD10RoundRect,0.250000X-0.400000X-0.625000X0.400000X-0.625000X0.400000X0.625000X-0.400000X0.625000X0*%
%ADD11RoundRect,0.250000X0.400000X0.625000X-0.400000X0.625000X-0.400000X-0.625000X0.400000X-0.625000X0*%
%ADD12RoundRect,0.100000X-0.637500X-0.100000X0.637500X-0.100000X0.637500X0.100000X-0.637500X0.100000X0*%
%ADD13RoundRect,0.250000X0.650000X-0.412500X0.650000X0.412500X-0.650000X0.412500X-0.650000X-0.412500X0*%
%ADD14RoundRect,0.250000X-0.412500X-0.650000X0.412500X-0.650000X0.412500X0.650000X-0.412500X0.650000X0*%
%ADD15RoundRect,0.250000X-0.650000X0.412500X-0.650000X-0.412500X0.650000X-0.412500X0.650000X0.412500X0*%
%ADD16RoundRect,0.250001X-0.462499X-0.624999X0.462499X-0.624999X0.462499X0.624999X-0.462499X0.624999X0*%
%ADD17RoundRect,0.250000X0.300000X-2.050000X0.300000X2.050000X-0.300000X2.050000X-0.300000X-2.050000X0*%
%ADD18RoundRect,0.250000X2.375000X-2.025000X2.375000X2.025000X-2.375000X2.025000X-2.375000X-2.025000X0*%
G04 APERTURE END LIST*
D10*
%TO.C,R4*%
X98780000Y-59690000D03*
X101880000Y-59690000D03*
%TD*%
D11*
%TO.C,R2*%
X103150000Y-35560000D03*
X100050000Y-35560000D03*
%TD*%
%TO.C,R8*%
X84392500Y-50800000D03*
X81292500Y-50800000D03*
%TD*%
D12*
%TO.C,U1*%
X88900000Y-45010000D03*
X88900000Y-45660000D03*
X88900000Y-46310000D03*
X88900000Y-46960000D03*
X88900000Y-47610000D03*
X88900000Y-48260000D03*
X88900000Y-48910000D03*
X94625000Y-48910000D03*
X94625000Y-48260000D03*
X94625000Y-47610000D03*
X94625000Y-46960000D03*
X94625000Y-46310000D03*
X94625000Y-45660000D03*
X94625000Y-45010000D03*
%TD*%
D11*
%TO.C,R9*%
X84392500Y-54610000D03*
X81292500Y-54610000D03*
%TD*%
D13*
%TO.C,C7*%
X60725000Y-64832500D03*
X60725000Y-61707500D03*
%TD*%
D14*
%TO.C,C3*%
X81280000Y-46990000D03*
X84405000Y-46990000D03*
%TD*%
D15*
%TO.C,C6*%
X74695000Y-61937500D03*
X74695000Y-65062500D03*
%TD*%
D10*
%TO.C,R7*%
X98780000Y-55880000D03*
X101880000Y-55880000D03*
%TD*%
D16*
%TO.C,D2*%
X90232500Y-63500000D03*
X93207500Y-63500000D03*
%TD*%
D10*
%TO.C,R5*%
X98780000Y-63500000D03*
X101880000Y-63500000D03*
%TD*%
D15*
%TO.C,C2*%
X88900000Y-35560000D03*
X88900000Y-38685000D03*
%TD*%
D10*
%TO.C,R3*%
X81292500Y-43180000D03*
X84392500Y-43180000D03*
%TD*%
%TO.C,R10*%
X82550000Y-63500000D03*
X85650000Y-63500000D03*
%TD*%
D17*
%TO.C,U2*%
X68580000Y-54755000D03*
X71120000Y-54755000D03*
D18*
X68345000Y-48030000D03*
X73895000Y-48030000D03*
X68345000Y-43180000D03*
X73895000Y-43180000D03*
D17*
X73660000Y-54755000D03*
%TD*%
D10*
%TO.C,R1*%
X107670000Y-35560000D03*
X110770000Y-35560000D03*
%TD*%
%TO.C,R6*%
X98780000Y-52070000D03*
X101880000Y-52070000D03*
%TD*%
D15*
%TO.C,C1*%
X93980000Y-35560000D03*
X93980000Y-38685000D03*
%TD*%
D13*
%TO.C,C4*%
X101600000Y-44742500D03*
X101600000Y-41617500D03*
%TD*%
M02*
